<svg width="156" height="158" viewBox="0 0 156 158" fill="none" xmlns="http://www.w3.org/2000/svg">
<path opacity="0.3" d="M21.5176 28.5377V26.5821C21.5176 22.726 18.9515 21.3602 16.344 21.3602C15.6591 21.3481 14.9789 21.4755 14.3448 21.7348C13.7107 21.9941 13.1361 22.3798 12.6559 22.8684C12.1757 23.357 11.8 23.9382 11.5517 24.5767C11.3035 25.2151 11.1878 25.8975 11.2118 26.5821V28.5377H10.4668V39.3609H22.1937V28.5377H21.5176ZM16.6751 34.4943V36.4568H15.5645V34.4943C15.2463 34.3654 14.9828 34.1299 14.8191 33.8281C14.6554 33.5263 14.6018 33.1769 14.6675 32.8399C14.7331 32.5029 14.9139 32.1992 15.1789 31.9809C15.4438 31.7625 15.7765 31.6431 16.1198 31.6431C16.4632 31.6431 16.7958 31.7625 17.0608 31.9809C17.3258 32.1992 17.5066 32.5029 17.5722 32.8399C17.6378 33.1769 17.5842 33.5263 17.4206 33.8281C17.2569 34.1299 16.9934 34.3654 16.6751 34.4943ZM19.8931 28.5481H12.7708V26.5924C12.7689 25.6472 13.1425 24.7399 13.8092 24.0699C14.476 23.3998 15.3815 23.0219 16.3268 23.0192C18.2928 23.0192 19.8931 24.3643 19.8931 26.5821V28.5481Z" stroke="black" stroke-miterlimit="10"/>
<path opacity="0.3" d="M62.8825 8.15366H29.6541C27.0863 8.15366 25.0047 10.2345 25.0047 12.8013C25.0047 15.3681 27.0863 17.4489 29.6541 17.4489H62.8825C65.4503 17.4489 67.5318 15.3681 67.5318 12.8013C67.5318 10.2345 65.4503 8.15366 62.8825 8.15366Z" stroke="black" stroke-miterlimit="10"/>
<g opacity="0.3">
<path d="M33.8481 12.3684L34.8173 13.4376L34.3517 13.7825L33.6274 12.5098L32.9134 13.7998L32.4478 13.4549L33.4101 12.3857L31.9925 12.0753L32.1649 11.5165L33.4997 12.1028L33.3342 10.6577H33.9205L33.7653 12.1028L35.1001 11.5269L35.2726 12.0856L33.8481 12.3684Z" fill="black"/>
<path d="M37.4593 12.3684L38.4285 13.4376L37.949 13.7998L37.2282 12.5271L36.5246 13.7998L36.0589 13.4549L37.0178 12.3857L35.6002 12.0753L35.7761 11.5165L37.1109 12.1028L36.9454 10.6577H37.5317L37.3765 12.1028L38.7113 11.5269L38.8837 12.0856L37.4593 12.3684Z" fill="black"/>
<path d="M41.0532 12.3684L42.0224 13.4376L41.5568 13.7825L40.8359 12.5098L40.1358 13.7998L39.6736 13.4549L40.6324 12.3857L39.2114 12.0753L39.3873 11.5165L40.7221 12.1028L40.5566 10.6577H41.1429L40.9877 12.1028L42.3225 11.5269L42.4949 12.0856L41.0532 12.3684Z" fill="black"/>
<path d="M44.6782 12.3684L45.6474 13.4376L45.1921 13.7998L44.4678 12.5271L43.747 13.7998L43.2814 13.4549L44.2402 12.3857L42.8226 12.0753L42.9951 11.5165L44.3299 12.1028L44.1574 10.6577H44.7403L44.5851 12.1028L45.9199 11.5269L46.0958 12.0856L44.6782 12.3684Z" fill="black"/>
<path d="M48.2963 12.3684L49.2655 13.4376L48.7998 13.7825L48.0755 12.5098L47.3581 13.7998L46.8891 13.4549L47.8513 12.3857L46.4338 12.0753L46.6062 11.5165L47.941 12.1028L47.7755 10.6577H48.3618L48.2066 12.1028L49.5414 11.5269L49.7138 12.0856L48.2963 12.3684Z" fill="black"/>
<path d="M51.9006 12.3684L52.8698 13.4376L52.4007 13.7825L51.6799 12.5098L50.9659 13.7998L50.5003 13.4549L51.4591 12.3857L50.0416 12.0753L50.2175 11.5165L51.5523 12.1028L51.4005 10.6577H51.9868L51.8316 12.1028L53.1664 11.5269L53.3389 12.0856L51.9006 12.3684Z" fill="black"/>
<path d="M55.5083 12.3684L56.4775 13.4376L56.0119 13.7825L55.291 12.5098L54.5771 13.7998L54.1114 13.4549L55.0703 12.3857L53.6527 12.0753L53.8286 11.5165L55.1634 12.1028L54.9978 10.6577H55.5842L55.429 12.1028L56.7638 11.5269L56.9362 12.0856L55.5083 12.3684Z" fill="black"/>
<path d="M59.1195 12.3684L60.0887 13.4376L59.6231 13.7825L58.8988 12.5098L58.1883 13.7998L57.7226 13.4549L58.6815 12.3857L57.2639 12.0753L57.4364 11.5165L58.7712 12.1028L58.6091 10.6577H59.1919L59.0367 12.1028L60.3681 11.5269L60.544 12.0856L59.1195 12.3684Z" fill="black"/>
</g>
<path opacity="0.3" d="M19.9138 71.5512C19.8078 71.3188 19.6422 71.1185 19.4338 70.9707C19.2255 70.8229 18.9817 70.7328 18.7273 70.7096H17.9444V70.0198C18.5489 69.2582 18.874 68.3122 18.8653 67.3399C18.8653 65.5808 17.8064 64.1529 16.4992 64.1529C15.192 64.1529 14.1504 65.5808 14.1504 67.3399C14.1432 68.2775 14.4423 69.1919 15.0023 69.9439V70.7096H13.9676C13.7102 70.7299 13.4626 70.8173 13.2496 70.9632C13.0366 71.1091 12.8655 71.3082 12.7535 71.5409L11.3359 73.9276H21.2934L19.9138 71.5512Z" stroke="black" stroke-miterlimit="10"/>
<path opacity="0.3" d="M23.2253 72.5759C24.794 68.7886 22.9955 64.4468 19.2083 62.878C15.421 61.3093 11.0791 63.1078 9.51042 66.895C7.94169 70.6823 9.74015 75.0241 13.5274 76.5929C17.3146 78.1616 21.6565 76.3631 23.2253 72.5759Z" stroke="black" stroke-miterlimit="10"/>
<g opacity="0.2">
<path d="M71.8638 102.01C63.1064 97.1427 56.3812 89.3007 52.9055 79.9037C49.4299 70.5067 49.4337 60.1759 52.9162 50.7814C56.3987 41.387 63.1297 33.5499 71.8906 28.689C80.6516 23.828 90.8634 22.2645 100.677 24.2816L99.6082 27.8686L111.528 25.03L103.112 16.1279L102.078 19.5529C98.8436 18.8606 95.545 18.5138 92.2375 18.5181C66.4005 18.5181 45.3784 39.5368 45.3784 65.3739C45.3853 73.9737 47.7562 82.4061 52.232 89.7493C56.7078 97.0926 63.1162 103.064 70.7567 107.011L67.8008 102.096L71.8638 102.01Z" fill="black"/>
<path d="M109.538 21.8155L113.218 25.7095L108.7 26.7856C118.571 30.9906 126.455 38.8188 130.731 48.6597C135.006 58.5006 135.347 69.6058 131.684 79.6906C128.021 89.7753 120.632 98.0726 111.037 102.875C101.443 107.678 90.3723 108.621 80.1037 105.511L81.5592 102.872L69.3115 103.11L75.6406 113.599L77.6824 109.902C82.3839 111.442 87.3004 112.226 92.2479 112.223C118.085 112.223 139.107 91.204 139.107 65.3635C139.096 55.9808 136.273 46.8167 131.002 39.0542C125.731 31.2917 118.255 25.2871 109.538 21.8155Z" fill="black"/>
</g>
<path d="M147.63 14.224L139.731 12.7168V12.7444C139.338 13.5411 138.697 13.9826 138.1 13.8688L137.755 13.8032C137.158 13.6929 136.72 13.041 136.651 12.1546V12.127L128.753 10.6197C128.23 10.5192 127.692 10.5229 127.171 10.6304C126.649 10.738 126.154 10.9474 125.713 11.2466C125.273 11.5459 124.896 11.9291 124.604 12.3743C124.311 12.8195 124.11 13.318 124.011 13.8412L113.76 65.8223C113.645 66.4287 113.775 67.0561 114.122 67.5664C114.47 68.0767 115.006 68.4282 115.612 68.5436L137.897 72.7963C138.197 72.8538 138.505 72.8516 138.804 72.7898C139.104 72.728 139.388 72.6078 139.64 72.4361C139.893 72.2644 140.11 72.0446 140.277 71.7892C140.445 71.5337 140.561 71.2478 140.618 70.9476L150.862 18.9734C150.963 18.4493 150.959 17.9103 150.851 17.3876C150.743 16.8648 150.533 16.3685 150.233 15.9272C149.932 15.4859 149.548 15.1082 149.101 14.816C148.654 14.5237 148.154 14.3225 147.63 14.224Z" fill="#92E3A9" stroke="#263238" stroke-linecap="round" stroke-linejoin="round"/>
<path d="M150.641 20.1254L150.862 18.9665C150.962 18.4429 150.957 17.9046 150.849 17.3827C150.74 16.8607 150.53 16.3652 150.23 15.9247C149.93 15.4841 149.545 15.1072 149.099 14.8153C148.653 14.5235 148.154 14.3226 147.63 14.224L139.731 12.7168V12.7444C139.338 13.5411 138.697 13.9826 138.1 13.8688L137.755 13.8032C137.158 13.6929 136.72 13.041 136.651 12.1546V12.127L128.753 10.6197C128.23 10.5192 127.692 10.5229 127.171 10.6304C126.649 10.738 126.154 10.9474 125.713 11.2466C125.273 11.5459 124.896 11.9291 124.604 12.3743C124.311 12.8195 124.11 13.318 124.011 13.8412L123.786 15.0035L150.641 20.1254Z" fill="white" stroke="#263238" stroke-linecap="round" stroke-linejoin="round"/>
<path d="M148.909 36.7707L149.872 31.735L149.416 31.6488L152.289 18.2836C152.49 17.2272 152.262 16.1345 151.658 15.2454C151.053 14.3563 150.121 13.7434 149.065 13.5411L127.68 9.4574C126.624 9.25637 125.531 9.48317 124.641 10.0879C123.752 10.6927 123.139 11.6259 122.938 12.6823L112.397 66.1741C112.297 66.697 112.301 67.2347 112.408 67.7563C112.516 68.2778 112.725 68.7731 113.024 69.2136C113.324 69.6541 113.707 70.0313 114.152 70.3235C114.597 70.6157 115.096 70.8172 115.619 70.9165L137.003 75.0002C137.528 75.1028 138.067 75.1008 138.591 74.9943C139.114 74.8877 139.612 74.6788 140.054 74.3794C140.497 74.0801 140.876 73.6962 141.17 73.2499C141.464 72.8036 141.666 72.3037 141.766 71.7788L147.63 40.9854L148.085 41.0751L148.654 38.0917L148.199 38.0054L148.451 36.6844L148.909 36.7707ZM141.049 68.6953C140.846 69.7514 140.232 70.6838 139.342 71.2877C138.453 71.8917 137.359 72.1179 136.303 71.9168L117.412 68.3125C116.357 68.1102 115.424 67.4972 114.82 66.6079C114.216 65.7187 113.99 64.626 114.191 63.57L124.007 13.8412C124.106 13.318 124.308 12.8195 124.6 12.3743C124.892 11.9291 125.269 11.5459 125.71 11.2466C126.151 10.9474 126.646 10.738 127.167 10.6304C127.689 10.5229 128.227 10.5192 128.75 10.6197L136.648 12.127V12.1546C136.724 13.041 137.155 13.6929 137.752 13.8032L138.097 13.8688C138.69 13.9826 139.335 13.5239 139.728 12.7444V12.7168L147.63 14.224C148.154 14.3225 148.654 14.5237 149.101 14.816C149.548 15.1082 149.932 15.4859 150.233 15.9272C150.533 16.3685 150.743 16.8648 150.851 17.3875C150.959 17.9103 150.962 18.4492 150.862 18.9734L141.049 68.6953Z" fill="#707070" stroke="#263238" stroke-linecap="round" stroke-linejoin="round"/>
<path d="M148.261 13.9688L128.256 10.1507C127.137 9.93748 125.979 10.1774 125.037 10.8177C124.094 11.458 123.445 12.4462 123.231 13.5653L113.008 65.4774C112.902 66.0316 112.906 66.6012 113.02 67.1538C113.135 67.7063 113.357 68.231 113.674 68.6977C113.991 69.1644 114.397 69.564 114.868 69.8737C115.34 70.1834 115.868 70.3971 116.422 70.5027L136.427 74.3174C136.981 74.4234 137.551 74.4192 138.104 74.3049C138.656 74.1907 139.181 73.9686 139.647 73.6515C140.114 73.3344 140.514 72.9284 140.823 72.4568C141.133 71.9851 141.347 71.4571 141.452 70.9028L151.676 18.9907C151.889 17.8719 151.649 16.7143 151.008 15.7726C150.368 14.8308 149.38 14.1819 148.261 13.9688ZM141.049 68.6954C140.846 69.7514 140.232 70.6838 139.342 71.2878C138.452 71.8917 137.359 72.118 136.303 71.9168L117.412 68.3125C116.357 68.1103 115.424 67.4972 114.82 66.6079C114.216 65.7187 113.99 64.626 114.191 63.57L124.007 13.8412C124.106 13.318 124.308 12.8195 124.6 12.3743C124.892 11.9291 125.269 11.5459 125.71 11.2466C126.15 10.9474 126.646 10.738 127.167 10.6304C127.689 10.5229 128.227 10.5192 128.75 10.6197L136.648 12.127V12.1546C136.724 13.041 137.155 13.6929 137.752 13.8032L138.096 13.8688C138.69 13.9826 139.335 13.5239 139.728 12.7444V12.7168L147.63 14.224C148.154 14.3225 148.654 14.5237 149.101 14.816C149.548 15.1082 149.932 15.4859 150.233 15.9272C150.533 16.3685 150.743 16.8648 150.851 17.3876C150.959 17.9103 150.962 18.4493 150.862 18.9734L141.049 68.6954Z" fill="#263238" stroke="#263238" stroke-linecap="round" stroke-linejoin="round"/>
<path d="M138.448 12.6685C138.463 12.5948 138.455 12.5186 138.426 12.4494C138.397 12.3802 138.348 12.3212 138.285 12.2798C138.223 12.2384 138.149 12.2164 138.074 12.2168C137.999 12.2171 137.926 12.2397 137.864 12.2816C137.802 12.3236 137.753 12.383 137.725 12.4525C137.696 12.5219 137.689 12.5982 137.704 12.6717C137.719 12.7453 137.755 12.8127 137.809 12.8656C137.862 12.9184 137.93 12.9542 138.003 12.9686C138.052 12.9786 138.103 12.9787 138.152 12.969C138.201 12.9593 138.247 12.9399 138.289 12.9119C138.33 12.884 138.366 12.8481 138.393 12.8063C138.42 12.7645 138.439 12.7176 138.448 12.6685Z" fill="#707070"/>
<path d="M126.842 11.9373C126.77 12.3167 126.318 12.3719 126.263 12.6581V12.6788L126.673 12.7582L126.649 12.8858L126.097 12.7651L126.118 12.6581C126.194 12.2546 126.635 12.2546 126.701 11.9028C126.725 11.7752 126.701 11.6958 126.594 11.6786C126.487 11.6614 126.432 11.7234 126.411 11.8338L126.39 11.9442L126.259 11.92V11.8166C126.297 11.6269 126.408 11.5165 126.604 11.551C126.648 11.5541 126.691 11.5678 126.729 11.5907C126.767 11.6137 126.799 11.6454 126.822 11.6831C126.845 11.7209 126.859 11.7636 126.863 11.8078C126.866 11.852 126.859 11.8964 126.842 11.9373Z" fill="#263238"/>
<path d="M127.529 12.0752V12.1063C127.523 12.1609 127.501 12.2124 127.464 12.2533C127.427 12.2943 127.379 12.3225 127.325 12.3339C127.371 12.3644 127.407 12.4092 127.425 12.4614C127.444 12.5137 127.445 12.5707 127.429 12.6236L127.411 12.7202C127.373 12.9134 127.26 13.0203 127.066 12.9858C126.873 12.9513 126.808 12.8064 126.846 12.6133V12.5271L126.977 12.5512L126.956 12.6478C126.935 12.7616 126.956 12.8375 127.07 12.8547C127.184 12.872 127.228 12.8168 127.253 12.6892L127.273 12.5926C127.294 12.4719 127.273 12.4029 127.149 12.3788H127.073L127.097 12.2546H127.18C127.202 12.2585 127.224 12.2578 127.246 12.2525C127.267 12.2471 127.287 12.2372 127.304 12.2235C127.322 12.2098 127.336 12.1926 127.346 12.173C127.356 12.1533 127.362 12.1318 127.363 12.1097V12.0511C127.387 11.9235 127.363 11.8476 127.253 11.8304C127.142 11.8131 127.091 11.8717 127.07 11.9856V12.0476L126.939 12.0235V11.9649C126.973 11.7752 127.087 11.6682 127.284 11.7027C127.48 11.7372 127.566 11.8752 127.529 12.0752Z" fill="#263238"/>
<path d="M127.784 12.2132L127.749 12.3891L127.615 12.3615L127.649 12.1891L127.784 12.2132ZM127.653 12.903L127.618 13.0789L127.484 13.0513L127.518 12.8789L127.653 12.903Z" fill="#263238"/>
<path d="M128.046 12.3822C128.069 12.3522 128.101 12.3297 128.137 12.3175C128.174 12.3052 128.212 12.3037 128.249 12.3132C128.412 12.3443 128.46 12.4753 128.425 12.6581L128.38 12.903C128.343 13.0962 128.229 13.2031 128.036 13.1651C127.842 13.1272 127.78 12.9892 127.815 12.7961L127.832 12.7099L127.963 12.7375L127.946 12.8306C127.922 12.941 127.946 13.0203 128.056 13.0375C128.167 13.0548 128.218 12.9996 128.239 12.8858L128.284 12.6409C128.308 12.5305 128.284 12.4512 128.174 12.4339C128.155 12.4294 128.137 12.4285 128.118 12.4315C128.1 12.4345 128.082 12.4411 128.066 12.4511C128.05 12.4611 128.037 12.4742 128.026 12.4897C128.016 12.5051 128.008 12.5225 128.005 12.5409V12.5685L127.873 12.5443L128.039 11.8545L128.536 11.9476L128.512 12.0718L128.143 12.0028L128.046 12.3822Z" fill="#263238"/>
<path d="M129.201 12.3857V12.4201L129.07 12.396V12.365C129.091 12.2511 129.07 12.1753 128.953 12.158C128.836 12.1408 128.787 12.196 128.763 12.3305L128.708 12.6098C128.731 12.5713 128.766 12.5414 128.808 12.5246C128.85 12.5078 128.896 12.505 128.939 12.5167C129.098 12.5478 129.15 12.6754 129.115 12.8616L129.077 13.0513C129.076 13.0928 129.065 13.1334 129.046 13.1703C129.027 13.2071 129 13.2392 128.967 13.2643C128.934 13.2894 128.896 13.3069 128.855 13.3154C128.815 13.3239 128.773 13.3232 128.732 13.3135C128.691 13.3076 128.651 13.2927 128.617 13.2698C128.582 13.2469 128.552 13.2165 128.531 13.1809C128.509 13.1453 128.495 13.1053 128.491 13.0638C128.486 13.0224 128.491 12.9804 128.505 12.941L128.629 12.3029C128.667 12.1028 128.781 11.9959 128.974 12.0338C129.013 12.0392 129.051 12.053 129.085 12.0743C129.118 12.0956 129.147 12.124 129.168 12.1574C129.19 12.1908 129.204 12.2285 129.21 12.2679C129.216 12.3073 129.213 12.3475 129.201 12.3857ZM128.681 12.7651L128.643 12.9513C128.622 13.0651 128.643 13.141 128.756 13.1617C128.87 13.1824 128.919 13.1238 128.943 13.0099L128.977 12.8202C128.998 12.7099 128.977 12.6305 128.863 12.6133C128.75 12.596 128.701 12.6581 128.681 12.7651Z" fill="#263238"/>
<path d="M142.891 15.0586L142.535 14.9907L142.366 15.875L142.722 15.9429L142.891 15.0586Z" fill="#263238"/>
<path d="M143.4 14.9646L143.045 14.8968L142.842 15.9606L143.198 16.0284L143.4 14.9646Z" fill="#263238"/>
<path d="M143.896 14.9247L143.54 14.8568L143.313 16.046L143.669 16.1139L143.896 14.9247Z" fill="#263238"/>
<path d="M144.415 14.7994L144.059 14.7315L143.79 16.1409L144.146 16.2088L144.415 14.7994Z" fill="#263238"/>
<path d="M148.53 17.0212L146.405 16.6177L146.65 15.3174L148.778 15.7244L148.53 17.0212ZM146.543 16.5211L148.433 16.866L148.637 15.8003L146.747 15.4553L146.543 16.5211Z" fill="#263238"/>
<path d="M148.025 15.8258L146.904 15.6119L146.75 16.4182L147.871 16.6322L148.025 15.8258Z" fill="#263238"/>
<path d="M148.448 16.6114L148.181 16.5596L148.122 16.8638L148.389 16.9156L148.448 16.6114Z" fill="#263238"/>
<path d="M145.678 16.1866C145.663 16.1831 145.65 16.176 145.64 16.1659C145.549 16.0678 145.43 16.0008 145.3 15.9741C145.169 15.9475 145.033 15.9627 144.912 16.0176C144.903 16.0231 144.893 16.0269 144.882 16.0285C144.872 16.0301 144.861 16.0297 144.851 16.0271C144.841 16.0245 144.831 16.0199 144.822 16.0135C144.814 16.0071 144.807 15.9991 144.802 15.99C144.796 15.981 144.792 15.9709 144.791 15.9604C144.789 15.9499 144.789 15.9392 144.792 15.929C144.795 15.9187 144.799 15.909 144.806 15.9005C144.812 15.892 144.82 15.8849 144.829 15.8796C144.98 15.8052 145.15 15.7811 145.315 15.8109C145.48 15.8407 145.632 15.9229 145.747 16.0452C145.754 16.0525 145.76 16.0614 145.764 16.0712C145.769 16.0809 145.771 16.0915 145.771 16.1021C145.771 16.1127 145.769 16.1232 145.764 16.133C145.76 16.1427 145.754 16.1516 145.747 16.159C145.738 16.1686 145.727 16.1762 145.715 16.1809C145.703 16.1857 145.69 16.1877 145.678 16.1866Z" fill="#263238"/>
<path d="M145.905 15.9486C145.893 15.9518 145.88 15.9518 145.867 15.9486C145.738 15.8103 145.569 15.7158 145.384 15.6781C145.198 15.6404 145.006 15.6614 144.833 15.7382C144.824 15.7436 144.813 15.7472 144.803 15.7487C144.793 15.7503 144.782 15.7498 144.772 15.7472C144.761 15.7447 144.752 15.7401 144.743 15.7338C144.735 15.7275 144.728 15.7196 144.722 15.7106C144.717 15.7015 144.713 15.6915 144.712 15.681C144.71 15.6706 144.711 15.6599 144.713 15.6497C144.716 15.6394 144.72 15.6298 144.727 15.6213C144.733 15.6128 144.741 15.6056 144.75 15.6002C144.954 15.5033 145.183 15.4732 145.406 15.514C145.628 15.5549 145.832 15.6647 145.988 15.8278C145.996 15.8352 146.002 15.8441 146.006 15.8539C146.01 15.8636 146.012 15.8741 146.012 15.8847C146.012 15.8954 146.01 15.9059 146.006 15.9156C146.002 15.9254 145.996 15.9343 145.988 15.9417C145.976 15.9507 145.962 15.9562 145.948 15.9574C145.933 15.9587 145.918 15.9556 145.905 15.9486Z" fill="#263238"/>
<path d="M146.095 15.6692C146.08 15.6651 146.066 15.6581 146.054 15.6485C145.888 15.4676 145.668 15.3445 145.428 15.2973C145.187 15.2501 144.937 15.2813 144.715 15.3864C144.696 15.3964 144.674 15.3988 144.654 15.393C144.633 15.3872 144.616 15.3737 144.605 15.3553C144.599 15.3463 144.596 15.3362 144.594 15.3258C144.592 15.3153 144.593 15.3046 144.595 15.2943C144.598 15.284 144.603 15.2743 144.609 15.2659C144.615 15.2574 144.623 15.2503 144.633 15.2449C144.885 15.1256 145.168 15.0888 145.442 15.1395C145.716 15.1903 145.968 15.3261 146.161 15.5278C146.168 15.5352 146.174 15.544 146.178 15.5538C146.182 15.5636 146.185 15.5741 146.185 15.5847C146.185 15.5953 146.182 15.6058 146.178 15.6156C146.174 15.6253 146.168 15.6342 146.161 15.6416C146.153 15.6512 146.143 15.6587 146.131 15.6635C146.12 15.6683 146.107 15.6703 146.095 15.6692Z" fill="#263238"/>
<path d="M145.412 16.2728C145.407 16.2989 145.398 16.3239 145.383 16.3462C145.369 16.3686 145.35 16.3878 145.329 16.4029C145.307 16.418 145.282 16.4286 145.256 16.4341C145.23 16.4396 145.204 16.4398 145.177 16.4349C145.124 16.4248 145.078 16.3941 145.047 16.3495C145.017 16.3048 145.005 16.2499 145.015 16.1969C145.025 16.1438 145.056 16.097 145.101 16.0666C145.145 16.0361 145.2 16.0247 145.253 16.0348C145.28 16.0397 145.304 16.0498 145.327 16.0645C145.349 16.0792 145.368 16.0982 145.383 16.1204C145.397 16.1426 145.408 16.1675 145.413 16.1936C145.418 16.2198 145.418 16.2467 145.412 16.2728Z" fill="#263238"/>
<path d="M143.659 34.4687L124.944 30.8986C123.945 30.708 122.98 31.3635 122.789 32.3627L119.793 48.0728C119.602 49.072 120.257 50.0365 121.257 50.2271L139.972 53.7972C140.971 53.9878 141.936 53.3323 142.126 52.3331L145.123 36.623C145.314 35.6239 144.658 34.6593 143.659 34.4687Z" fill="white" stroke="#263238" stroke-miterlimit="10"/>
<path d="M128.398 28.5584L128.156 26.7166L128.47 26.7752L128.636 28.1824L129.326 26.9373L129.612 26.9891L128.694 28.6308L128.512 29.6L128.211 29.5448L128.398 28.5584Z" fill="#263238"/>
<path d="M129.612 27.6685C129.618 27.5793 129.644 27.4925 129.687 27.4138C129.729 27.3351 129.788 27.2663 129.859 27.212C129.93 27.1576 130.012 27.1189 130.099 27.0983C130.186 27.0778 130.277 27.0759 130.364 27.0928C130.452 27.1097 130.536 27.145 130.609 27.1963C130.682 27.2477 130.744 27.314 130.79 27.3908C130.835 27.4676 130.865 27.5533 130.875 27.6422C130.885 27.7311 130.877 27.8211 130.85 27.9065L130.584 29.2861C130.578 29.3754 130.552 29.4622 130.51 29.5409C130.467 29.6195 130.408 29.6883 130.337 29.7427C130.266 29.7971 130.184 29.8358 130.097 29.8563C130.01 29.8769 129.92 29.8787 129.832 29.8619C129.744 29.845 129.661 29.8097 129.587 29.7583C129.514 29.707 129.452 29.6407 129.407 29.5638C129.361 29.487 129.332 29.4013 129.321 29.3125C129.311 29.2236 129.319 29.1335 129.346 29.0482L129.612 27.6685ZM129.639 29.1378C129.591 29.3862 129.67 29.5483 129.884 29.5897C130.098 29.631 130.229 29.5069 130.281 29.2447L130.553 27.8168C130.598 27.5719 130.526 27.4064 130.309 27.365C130.091 27.3236 129.964 27.4512 129.912 27.7099L129.639 29.1378Z" fill="#263238"/>
<path d="M131.154 29.4276C131.109 29.6724 131.174 29.8345 131.395 29.8794C131.616 29.9242 131.74 29.7897 131.785 29.5345L132.178 27.465L132.461 27.5202L132.068 29.569C131.988 29.9794 131.747 30.2174 131.333 30.1346C130.919 30.0518 130.781 29.7483 130.86 29.3379L131.25 27.2891L131.547 27.3443L131.154 29.4276Z" fill="#263238"/>
<path d="M133.361 27.7065C133.446 27.7108 133.53 27.7353 133.604 27.7778C133.678 27.8204 133.742 27.8798 133.789 27.9514C133.836 28.023 133.865 28.1046 133.875 28.1897C133.884 28.2747 133.874 28.3609 133.844 28.4411L133.802 28.6619C133.744 28.9585 133.606 29.124 133.361 29.1516C133.468 29.212 133.549 29.3082 133.592 29.4231C133.634 29.5381 133.634 29.6643 133.592 29.7794L133.513 30.2002C133.483 30.3133 133.483 30.4319 133.513 30.5451L133.209 30.4899C133.181 30.3766 133.181 30.2582 133.209 30.145L133.288 29.7207C133.347 29.4138 133.223 29.2896 132.971 29.2413L132.761 29.2034L132.54 30.3554L132.237 30.3002L132.754 27.5961L133.361 27.7065ZM133.04 28.9757C133.278 29.0206 133.437 28.9757 133.492 28.6757L133.54 28.417C133.589 28.1755 133.54 28.0307 133.299 27.9858L133.006 27.9307L132.816 28.9309L133.04 28.9757Z" fill="#263238"/>
<path d="M135.944 28.8791L135.899 29.1206L135.613 29.0654L135.661 28.8067C135.71 28.5653 135.641 28.3997 135.42 28.3583C135.199 28.3169 135.075 28.4446 135.03 28.7032L134.758 30.1312C134.71 30.376 134.782 30.5416 134.999 30.583C135.217 30.6244 135.344 30.4968 135.389 30.2381L135.458 29.8932L135.744 29.9449L135.679 30.2898C135.599 30.6968 135.358 30.9313 134.941 30.852C134.523 30.7727 134.385 30.4657 134.465 30.0553L134.73 28.6756C134.806 28.2687 135.051 28.0341 135.465 28.1134C135.55 28.1265 135.631 28.1576 135.702 28.2048C135.774 28.2519 135.834 28.3139 135.88 28.3865C135.925 28.4592 135.955 28.5408 135.966 28.6258C135.977 28.7108 135.97 28.7972 135.944 28.8791Z" fill="#263238"/>
<path d="M136.196 28.924C136.205 28.8363 136.232 28.7515 136.275 28.6749C136.319 28.5982 136.378 28.5315 136.448 28.4789C136.519 28.4262 136.6 28.3889 136.686 28.3692C136.771 28.3495 136.86 28.3479 136.947 28.3645C137.033 28.381 137.116 28.4155 137.188 28.4655C137.261 28.5155 137.322 28.5801 137.368 28.6551C137.414 28.7301 137.444 28.8139 137.456 28.9012C137.468 28.9885 137.462 29.0773 137.438 29.162L137.169 30.5416C137.158 30.6269 137.129 30.7089 137.085 30.7828C137.041 30.8567 136.983 30.9209 136.913 30.9714C136.844 31.0218 136.764 31.0575 136.681 31.0763C136.597 31.095 136.51 31.0965 136.425 31.0805C136.341 31.0645 136.261 31.0314 136.189 30.9832C136.118 30.9351 136.057 30.8729 136.011 30.8005C135.965 30.7281 135.934 30.6469 135.92 30.5621C135.906 30.4772 135.91 30.3905 135.931 30.3071L136.196 28.924ZM136.224 30.3967C136.179 30.6416 136.255 30.8037 136.472 30.8451C136.689 30.8865 136.817 30.7658 136.865 30.5002L137.138 29.0723C137.186 28.8274 137.114 28.6618 136.893 28.6205C136.672 28.5791 136.548 28.7067 136.496 28.9654L136.224 30.3967Z" fill="#263238"/>
<path d="M138.479 28.686C138.568 28.6957 138.653 28.7254 138.729 28.773C138.804 28.8206 138.868 28.8847 138.915 28.9605C138.961 29.0363 138.99 29.1218 138.999 29.2105C139.008 29.2993 138.997 29.3888 138.966 29.4724L138.707 30.852C138.628 31.2625 138.386 31.4832 137.966 31.4004L137.331 31.2797L137.848 28.5791L138.479 28.686ZM138.014 31.1004C138.231 31.1418 138.359 31.0245 138.407 30.7762L138.673 29.3965C138.717 29.1482 138.642 28.993 138.421 28.9516L138.097 28.8895L137.686 31.0452L138.014 31.1004Z" fill="#263238"/>
<path d="M140.111 30.2381L140.059 30.5071L139.397 30.3795L139.214 31.3418L140.025 31.497L139.973 31.7695L138.862 31.5591L139.376 28.855L140.49 29.0689L140.435 29.3413L139.624 29.1861L139.449 30.1105L140.111 30.2381Z" fill="#263238"/>
<path d="M126.321 39.5057C126.421 39.386 126.553 39.2967 126.701 39.248C126.849 39.1992 127.008 39.1929 127.159 39.2298C127.815 39.354 128.015 39.892 127.873 40.6094L127.684 41.6062C127.535 42.3857 127.066 42.8238 126.287 42.6754C125.507 42.5271 125.252 41.9477 125.39 41.1682L125.456 40.8233L125.987 40.9233L125.914 41.3027C125.828 41.7614 125.963 42.0753 126.37 42.1512C126.777 42.2271 127.022 41.9891 127.108 41.5303L127.297 40.5405C127.387 40.0817 127.249 39.7679 126.842 39.692C126.768 39.6722 126.691 39.6678 126.615 39.6793C126.54 39.6907 126.467 39.7177 126.402 39.7585C126.337 39.7993 126.282 39.8531 126.239 39.9164C126.196 39.9798 126.166 40.0513 126.152 40.1266L126.128 40.2438L125.597 40.1438L126.287 37.3363L128.298 37.7191L128.201 38.2296L126.701 37.9433L126.321 39.5057Z" fill="#263238"/>
<path d="M131.019 39.5196V39.6161L130.488 39.5127L130.512 39.3816C130.602 38.9229 130.464 38.6194 130.046 38.54C129.629 38.4607 129.356 38.6987 129.27 39.2298L129.053 40.3749C129.144 40.2175 129.284 40.0941 129.451 40.0237C129.619 39.9533 129.805 39.9398 129.981 39.9852C130.636 40.1094 130.836 40.6371 130.695 41.3648L130.55 42.1374C130.402 42.9169 129.915 43.3515 129.139 43.2032C128.363 43.0549 128.063 42.4685 128.211 41.689L128.708 39.0884C128.86 38.2814 129.322 37.8468 130.129 38.002C130.936 38.1572 131.167 38.7401 131.019 39.5196ZM128.901 41.0958L128.756 41.858C128.667 42.3168 128.805 42.6306 129.219 42.71C129.632 42.7893 129.877 42.5479 129.964 42.0891L130.108 41.3234C130.198 40.8647 130.053 40.5508 129.646 40.475C129.239 40.3991 129.005 40.6371 128.901 41.0958Z" fill="#263238"/>
<path d="M133.854 40.0611L133.837 40.1576L133.302 40.0542L133.33 39.9231C133.416 39.4644 133.278 39.1609 132.864 39.0815C132.45 39.0022 132.192 39.2402 132.088 39.7713L131.867 40.913C131.96 40.757 132.1 40.635 132.267 40.5653C132.434 40.4957 132.62 40.4821 132.795 40.5267C133.451 40.6509 133.654 41.1786 133.513 41.9063L133.364 42.6755C133.216 43.455 132.733 43.893 131.954 43.7447C131.174 43.5964 130.878 43.01 131.026 42.2305L131.523 39.6679C131.678 38.8608 132.137 38.4262 132.947 38.5814C133.758 38.7366 134.002 39.2816 133.854 40.0611ZM131.733 41.6338L131.588 42.3995C131.502 42.8583 131.636 43.1721 132.054 43.2515C132.471 43.3308 132.709 43.0894 132.799 42.6306L132.944 41.8649C133.03 41.4062 132.888 41.0923 132.478 41.013C132.068 40.9337 131.823 41.1751 131.733 41.6338Z" fill="#263238"/>
<path d="M136.686 40.6095L136.189 43.2101C136.034 44.0172 135.575 44.4587 134.758 44.3035C133.94 44.1482 133.702 43.5791 133.851 42.8031L133.871 42.7065L134.403 42.8066L134.375 42.9411C134.289 43.3998 134.434 43.7068 134.841 43.7826C135.248 43.8585 135.53 43.6274 135.624 43.0928L135.841 41.9512C135.749 42.1065 135.609 42.2276 135.442 42.2961C135.275 42.3646 135.091 42.3767 134.916 42.3306C134.261 42.2064 134.058 41.6856 134.199 40.951L134.347 40.1715C134.496 39.392 134.972 38.9608 135.758 39.1091C136.544 39.2575 136.834 39.83 136.686 40.6095ZM134.913 40.2404L134.768 41.0061C134.682 41.4649 134.823 41.7787 135.234 41.8581C135.644 41.9374 135.889 41.696 135.975 41.2372L136.124 40.4715C136.213 40.0059 136.075 39.6989 135.658 39.6196C135.241 39.5403 135.003 39.7748 134.913 40.2404Z" fill="#263238"/>
<path d="M139.573 41.1372L139.542 41.2993C139.445 41.8166 139.197 42.1581 138.759 42.2374C139.152 42.4823 139.235 42.9272 139.138 43.4239L139.066 43.8033C138.914 44.5897 138.414 45.0001 137.621 44.838C136.827 44.6759 136.51 44.1206 136.662 43.3342L136.734 42.9548C136.831 42.4375 137.079 42.0822 137.531 41.9891C137.145 41.7511 137.041 41.3476 137.141 40.8302L137.169 40.6681C137.32 39.8817 137.824 39.4885 138.614 39.6334C139.404 39.7782 139.724 40.3577 139.573 41.1372ZM137.727 40.7923L137.683 41.0372C137.586 41.5338 137.786 41.7994 138.186 41.8753C138.586 41.9512 138.876 41.7787 138.962 41.282L139.007 41.0475C139.107 40.5232 138.914 40.237 138.51 40.1611C138.107 40.0852 137.827 40.2749 137.727 40.8026V40.7923ZM137.307 42.9962L137.224 43.4274C137.124 43.9516 137.31 44.2448 137.717 44.3207C138.124 44.3966 138.407 44.1965 138.507 43.6722L138.59 43.2411C138.683 42.7479 138.51 42.4651 138.09 42.3857C137.669 42.3064 137.403 42.5134 137.307 43.0066V42.9962Z" fill="#263238"/>
<path d="M121.199 54.6748L138.81 58.0342" stroke="#263238" stroke-miterlimit="10"/>
<path d="M120.544 58.1101L138.152 61.4695" stroke="#263238" stroke-miterlimit="10"/>
<path d="M149.754 41.7304L154.014 41.0751" stroke="#263238" stroke-miterlimit="10"/>
<path d="M149.099 46.6454L151.393 47.3007" stroke="#263238" stroke-miterlimit="10"/>
<path d="M147.788 50.905L152.048 53.8539" stroke="#263238" stroke-miterlimit="10"/>
<path d="M108.921 49.9117C109.142 49.9117 109.354 49.8237 109.511 49.6672C109.668 49.5107 109.755 49.2984 109.755 49.077V42.1788C109.755 41.9575 109.668 41.7452 109.511 41.5886C109.354 41.4321 109.142 41.3442 108.921 41.3442H108.886V38.647C108.886 38.2096 108.799 37.7766 108.631 37.3727C108.463 36.9689 108.218 36.602 107.908 36.2933C107.598 35.9845 107.23 35.7397 106.826 35.5731C106.422 35.4065 105.988 35.3212 105.551 35.3221H32.7754C31.8927 35.3221 31.0461 35.6727 30.4219 36.2969C29.7977 36.9211 29.4471 37.7677 29.4471 38.6504V88.9277C29.448 89.8098 29.7991 90.6555 30.4232 91.2789C31.0472 91.9024 31.8933 92.2526 32.7754 92.2526H105.551C106.433 92.2526 107.279 91.9024 107.903 91.2789C108.527 90.6555 108.878 89.8098 108.879 88.9277V70.889H108.914C109.135 70.889 109.348 70.801 109.504 70.6445C109.661 70.488 109.749 70.2757 109.749 70.0543V63.1561C109.749 62.9348 109.661 62.7225 109.504 62.5659C109.348 62.4094 109.135 62.3215 108.914 62.3215H108.879V61.4488H108.914C109.135 61.4488 109.348 61.3609 109.504 61.2044C109.661 61.0478 109.749 60.8355 109.749 60.6142V53.716C109.749 53.4946 109.661 53.2823 109.504 53.1258C109.348 52.9693 109.135 52.8813 108.914 52.8813H108.879V49.9117H108.921Z" fill="#263238"/>
<path d="M105.92 37.5398H32.4236V90.0348H105.92V37.5398Z" fill="#92E3A9" stroke="#263238" stroke-miterlimit="10"/>
<path d="M89.8439 44.2896H48.7412V77.3008H89.8439V44.2896Z" fill="#E3E3E3" stroke="#263238" stroke-miterlimit="10"/>
<path d="M64.2069 68.1538V68.3608H63.7033V69.0954H64.3207V69.3024H63.4722V67.2329H64.3207V67.4399H63.7033V68.1469L64.2069 68.1538Z" fill="#B2B2B2"/>
<path d="M64.7381 69.3024H64.5311V67.2329H64.8208L65.3003 68.7229V67.2329H65.5038V69.3024H65.2658L64.7381 67.633V69.3024Z" fill="#B2B2B2"/>
<path d="M66.0384 69.3024V67.4468H65.6555V67.2398H66.6454V67.4468H66.266V69.3024H66.0384Z" fill="#B2B2B2"/>
<path d="M67.5353 68.1538V68.3608H67.0317V69.0954H67.6491V69.3024H66.8006V67.2329H67.6491V67.4399H67.0317V68.1469L67.5353 68.1538Z" fill="#B2B2B2"/>
<path d="M68.3216 67.2398C68.6459 67.2398 68.7838 67.4019 68.7838 67.7089V67.8779C68.7838 68.1056 68.7045 68.247 68.5251 68.3022C68.7148 68.3608 68.7873 68.5126 68.7873 68.7333V69.0541C68.7787 69.139 68.793 69.2248 68.8287 69.3024H68.5941C68.5613 69.224 68.5482 69.1387 68.5562 69.0541V68.7298C68.5562 68.4953 68.4458 68.4229 68.2561 68.4229H68.094V69.3024H67.8629V67.2329L68.3216 67.2398ZM68.263 68.2125C68.4458 68.2125 68.5562 68.1538 68.5562 67.9297V67.7296C68.5562 67.5468 68.4872 67.4468 68.3182 67.4468H68.094V68.2125H68.263Z" fill="#B2B2B2"/>
<path d="M70.3945 67.7365V67.9228H70.1738V67.7262C70.1738 67.5399 70.1013 67.4261 69.9323 67.4261C69.7633 67.4261 69.6909 67.5399 69.6909 67.7262V68.8161C69.6909 69.0023 69.7668 69.1161 69.9323 69.1161C70.0979 69.1161 70.1738 69.0023 70.1738 68.8161V68.547H70.3945V68.8057C70.3945 69.1161 70.2462 69.3231 69.9254 69.3231C69.6047 69.3231 69.4633 69.1161 69.4633 68.8057V67.7365C69.4633 67.4226 69.6116 67.2191 69.9254 67.2191C70.2393 67.2191 70.3945 67.4226 70.3945 67.7365Z" fill="#B2B2B2"/>
<path d="M70.5842 67.7365C70.5842 67.4226 70.7394 67.2191 71.0568 67.2191C71.124 67.2148 71.1914 67.2256 71.254 67.2507C71.3165 67.2757 71.3727 67.3145 71.4183 67.3641C71.464 67.4137 71.4979 67.4729 71.5177 67.5373C71.5375 67.6018 71.5426 67.6698 71.5327 67.7365V68.8057C71.543 68.8725 71.5384 68.9407 71.519 69.0055C71.4997 69.0702 71.4662 69.1299 71.421 69.1801C71.3757 69.2303 71.3199 69.2698 71.2575 69.2957C71.1951 69.3216 71.1277 69.3333 71.0602 69.33C70.7429 69.33 70.5877 69.123 70.5877 68.8126L70.5842 67.7365ZM70.8119 68.8161C70.8119 69.0058 70.8912 69.1161 71.0568 69.1161C71.2223 69.1161 71.3016 69.0058 71.3016 68.8161V67.7262C71.3016 67.5399 71.2258 67.4261 71.0568 67.4261C70.8878 67.4261 70.8119 67.5399 70.8119 67.7262V68.8161Z" fill="#B2B2B2"/>
<path d="M72.2329 67.2398C72.5536 67.2398 72.7019 67.433 72.7019 67.7503V68.785C72.7019 69.1023 72.5536 69.2955 72.2329 69.2955H71.75V67.226L72.2329 67.2398ZM72.2329 69.0954C72.3984 69.0954 72.4778 68.992 72.4778 68.8023V67.74C72.4778 67.5503 72.3984 67.4468 72.2294 67.4468H71.9845V69.0954H72.2329Z" fill="#B2B2B2"/>
<path d="M73.6504 68.1538V68.3608H73.1469V69.0954H73.7677V69.3024H72.9158V67.2329H73.7677V67.4399H73.1469V68.1469L73.6504 68.1538Z" fill="#B2B2B2"/>
<path d="M86.5983 55.1922H51.9144V59.1069H86.5983V55.1922Z" fill="white" stroke="#263238" stroke-miterlimit="10"/>
<path d="M86.5983 61.4005H51.9144V65.3153H86.5983V61.4005Z" fill="white" stroke="#263238" stroke-miterlimit="10"/>
<path d="M74.1575 70.2302H70.8843V74.1449H74.1575V70.2302Z" fill="white" stroke="#263238" stroke-miterlimit="10"/>
<path d="M69.9875 70.2302H66.7144V74.1449H69.9875V70.2302Z" fill="white" stroke="#263238" stroke-miterlimit="10"/>
<path d="M65.8211 70.2302H62.5479V74.1449H65.8211V70.2302Z" fill="white" stroke="#263238" stroke-miterlimit="10"/>
<path d="M61.6546 70.2302H58.5297V74.1449H61.6546V70.2302Z" fill="white" stroke="#263238" stroke-miterlimit="10"/>
<path d="M78.4447 70.2302H75.0508V74.1449H78.4447V70.2302Z" fill="white" stroke="#263238" stroke-miterlimit="10"/>
<path d="M70.9464 48.77V48.0181C70.9238 47.4464 70.6808 46.9057 70.2683 46.5092C69.8559 46.1127 69.3059 45.8912 68.7338 45.8912C68.1616 45.8912 67.6117 46.1127 67.1992 46.5092C66.7868 46.9057 66.5438 47.4464 66.5212 48.0181V48.77H66.4798V52.9296H70.9877V48.77H70.9464ZM68.8769 51.0568V51.8087H68.4389V51.0499C68.3165 51.0003 68.2152 50.9097 68.1523 50.7936C68.0894 50.6775 68.0689 50.5431 68.0941 50.4135C68.1194 50.284 68.189 50.1672 68.2909 50.0832C68.3928 49.9993 68.5207 49.9534 68.6527 49.9534C68.7847 49.9534 68.9127 49.9993 69.0146 50.0832C69.1165 50.1672 69.186 50.284 69.2113 50.4135C69.2366 50.5431 69.216 50.6775 69.1531 50.7936C69.0902 50.9097 68.9889 51.0003 68.8666 51.0499L68.8769 51.0568ZM70.1151 48.77H67.3731V48.0181C67.411 47.681 67.5717 47.3697 67.8246 47.1436C68.0775 46.9175 68.4049 46.7925 68.7441 46.7925C69.0834 46.7925 69.4107 46.9175 69.6636 47.1436C69.9165 47.3697 70.0773 47.681 70.1151 48.0181V48.77Z" fill="#263238"/>
<path d="M63.8861 57.6273C63.8861 57.8135 63.9585 57.9239 64.1275 57.9239C64.2965 57.9239 64.3655 57.8135 64.3655 57.6273V56.0476H64.5828V57.6031C64.5828 57.917 64.4379 58.1274 64.1172 58.1274C63.7964 58.1274 63.6584 57.917 63.6584 57.6031V56.0372H63.8861V57.6273Z" fill="#B2B2B2"/>
<path d="M65.7038 56.5442V56.5994H65.483V56.5305C65.483 56.3477 65.414 56.2373 65.2485 56.2373C65.0829 56.2373 65.014 56.3477 65.014 56.5305C65.014 56.9926 65.7038 57.0375 65.7038 57.6169C65.7038 57.9308 65.552 58.1343 65.2347 58.1343C64.9174 58.1343 64.7725 57.9308 64.7725 57.6169V57.4996H64.9898V57.6307C64.9898 57.8135 65.0657 57.9239 65.2313 57.9239C65.3968 57.9239 65.4727 57.8135 65.4727 57.6307C65.4727 57.1685 64.7829 57.1237 64.7829 56.5442C64.7829 56.2235 64.9277 56.0269 65.2381 56.0269C65.5486 56.0269 65.7038 56.2235 65.7038 56.5442Z" fill="#B2B2B2"/>
<path d="M66.6419 56.9616V57.1685H66.1349V57.9032H66.7558V58.1136H65.9073V56.0441H66.7558V56.2545H66.1349V56.9443L66.6419 56.9616Z" fill="#B2B2B2"/>
<path d="M67.4283 56.0476C67.7525 56.0476 67.887 56.2131 67.887 56.5201V56.6891C67.887 56.9167 67.8077 57.0582 67.6318 57.1133C67.8215 57.1685 67.8905 57.3237 67.8905 57.5445V57.8652C67.8842 57.9501 67.8984 58.0353 67.9319 58.1136H67.7008C67.6665 58.0343 67.6522 57.9478 67.6594 57.8618V57.5376C67.6594 57.303 67.5525 57.2306 67.3593 57.2306H67.1972V58.1136H66.9661V56.0441L67.4283 56.0476ZM67.3697 57.0202C67.5525 57.0202 67.6594 56.9616 67.6594 56.7374V56.5408C67.6594 56.3545 67.5939 56.258 67.4214 56.258H67.1972V57.0202H67.3697Z" fill="#B2B2B2"/>
<path d="M68.7907 58.1136H68.5837V56.0441H68.8769L69.3529 57.5376V56.0441H69.5564V58.1136H69.3356L68.8079 56.4442L68.7907 58.1136Z" fill="#B2B2B2"/>
<path d="M70.0255 57.6962L69.9461 58.1136H69.7323L70.1289 56.0441H70.4739L70.867 58.1136H70.6394L70.5566 57.6962H70.0255ZM70.0565 57.4996H70.5152L70.2842 56.3063L70.0565 57.4996Z" fill="#B2B2B2"/>
<path d="M71.7983 58.1101H71.5775L71.2326 56.4684V58.1136H71.0326V56.0441H71.3534L71.6983 57.6928L72.0259 56.0441H72.3467V58.1136H72.1294V56.4511L71.7983 58.1101Z" fill="#B2B2B2"/>
<path d="M73.3124 56.9616V57.1685H72.8089V57.9032H73.4297V58.1136H72.5812V56.0441H73.4297V56.2545H72.8089V56.9443L73.3124 56.9616Z" fill="#B2B2B2"/>
<path d="M64.2 63.163L64.5138 63.5079L64.3621 63.6183L64.131 63.2079L63.8999 63.6183L63.7516 63.5079L64.0585 63.163L63.6033 63.0665L63.6585 62.8871L64.0896 63.0768L64.0379 62.6112H64.2241L64.1758 63.0768L64.6069 62.8906L64.6621 63.0699L64.2 63.163Z" fill="#B2B2B2"/>
<path d="M65.3658 63.163L65.6797 63.5079L65.5279 63.6183L65.2968 63.2079L65.0657 63.6183L64.914 63.5079L65.2244 63.163L64.7691 63.0665L64.8243 62.8871L65.2554 63.0768L65.2002 62.6112H65.3899L65.3382 63.0768L65.7693 62.8906L65.828 63.0699L65.3658 63.163Z" fill="#B2B2B2"/>
<path d="M66.5315 63.163L66.8454 63.5079L66.6936 63.6183L66.4591 63.2079L66.2315 63.6183L66.0797 63.5079L66.3901 63.163L65.9314 63.0665L65.99 62.8871L66.4177 63.0768L66.366 62.6112H66.5557L66.5039 63.0768L66.9351 62.8906L66.9903 63.0699L66.5315 63.163Z" fill="#B2B2B2"/>
<path d="M67.6974 63.163L68.0078 63.5079L67.8595 63.6183L67.6249 63.2079L67.3939 63.6183L67.2455 63.5079L67.556 63.163L67.0972 63.0665L67.1524 62.8871L67.5836 63.0768L67.5318 62.6112H67.7181L67.6698 63.0768L68.1009 62.8906L68.1561 63.0699L67.6974 63.163Z" fill="#B2B2B2"/>
<path d="M68.8597 63.163L69.1736 63.5079L69.0218 63.6183L68.7907 63.2079L68.5596 63.6183L68.4113 63.5079L68.7183 63.163L68.263 63.0665L68.3182 62.8871L68.7493 63.0768L68.6941 62.6112H68.8838L68.8355 63.0768L69.2667 62.8906L69.3219 63.0699L68.8597 63.163Z" fill="#B2B2B2"/>
<path d="M70.0255 63.163L70.3394 63.5079L70.1876 63.6183L69.9565 63.2079L69.7254 63.6183L69.5737 63.5079L69.8841 63.163L69.4254 63.0665L69.484 62.8871L69.9151 63.0768L69.8599 62.6112H70.0496L69.9979 63.0768L70.429 62.8906L70.4877 63.0699L70.0255 63.163Z" fill="#B2B2B2"/>
<path d="M71.1913 63.163L71.5051 63.5079L71.3534 63.6183L71.1188 63.2079L70.8912 63.6183L70.7394 63.5079L71.0499 63.163L70.5911 63.0665L70.6463 62.8871L71.0774 63.0768L71.0257 62.6112H71.2154L71.1637 63.0768L71.5948 62.8906L71.65 63.0699L71.1913 63.163Z" fill="#B2B2B2"/>
<path d="M72.357 63.163L72.6675 63.5079L72.5191 63.6183L72.2846 63.2079L72.0535 63.6183L71.9052 63.5079L72.2156 63.163L71.7569 63.0665L71.8121 62.8871L72.2432 63.0768L72.1915 62.6112H72.3777L72.3294 63.0768L72.7606 62.8906L72.8158 63.0699L72.357 63.163Z" fill="#B2B2B2"/>
<path d="M72.7709 157.181C84.9564 157.181 94.8347 147.899 94.8347 136.449C94.8347 124.999 84.9564 115.717 72.7709 115.717C60.5854 115.717 50.7072 124.999 50.7072 136.449C50.7072 147.899 60.5854 157.181 72.7709 157.181Z" fill="#263238"/>
<path d="M72.3053 156.102C84.4908 156.102 94.3691 146.82 94.3691 135.37C94.3691 123.919 84.4908 114.637 72.3053 114.637C60.1199 114.637 50.2416 123.919 50.2416 135.37C50.2416 146.82 60.1199 156.102 72.3053 156.102Z" fill="white" stroke="#263238" stroke-miterlimit="10"/>
<path d="M72.3053 153.267C82.8221 153.267 91.3477 145.254 91.3477 135.37C91.3477 125.485 82.8221 117.472 72.3053 117.472C61.7885 117.472 53.2629 125.485 53.2629 135.37C53.2629 145.254 61.7885 153.267 72.3053 153.267Z" fill="white" stroke="#263238" stroke-miterlimit="10"/>
<path d="M77.5824 123.322C69.9392 123.322 63.7412 131.106 63.7412 140.712C63.7412 146.92 66.3246 152.342 70.2048 155.422C70.8463 155.478 71.4947 155.509 72.1501 155.509C80.1864 155.509 87.1915 151.397 90.9338 145.292C91.2542 143.792 91.4138 142.261 91.4097 140.726C91.4097 131.106 85.2255 123.322 77.5824 123.322Z" fill="#263238"/>
<path d="M63.9033 132.869H54.8909V135.025H63.9033V132.869Z" fill="white" stroke="#263238" stroke-miterlimit="10"/>
<path d="M75.4853 146.748C83.0782 146.748 89.2334 140.965 89.2334 133.831C89.2334 126.697 83.0782 120.914 75.4853 120.914C67.8925 120.914 61.7373 126.697 61.7373 133.831C61.7373 140.965 67.8925 146.748 75.4853 146.748Z" fill="white" stroke="#263238" stroke-miterlimit="10"/>
<path d="M75.4853 144.616C81.8229 144.616 86.9604 139.788 86.9604 133.831C86.9604 127.875 81.8229 123.046 75.4853 123.046C69.1478 123.046 64.0103 127.875 64.0103 133.831C64.0103 139.788 69.1478 144.616 75.4853 144.616Z" fill="#263238" stroke="#263238" stroke-miterlimit="10"/>
<path d="M70.6773 123.939C70.6041 123.759 70.5188 123.584 70.4221 123.415C69.2494 121.377 69.3873 118.786 70.2738 116.379" stroke="#263238" stroke-miterlimit="10"/>
<path d="M70.8602 128.226C70.8602 128.226 71.4741 125.895 70.6774 123.939" stroke="white" stroke-miterlimit="10"/>
<path d="M74.9542 123.415C73.785 121.377 73.9195 118.786 74.8094 116.379" stroke="#263238" stroke-miterlimit="10"/>
<path d="M75.3922 128.226C75.3922 128.226 76.1234 125.45 74.9542 123.415" stroke="white" stroke-miterlimit="10"/>
<path d="M79.6346 123.687C79.5898 123.594 79.5415 123.505 79.4897 123.415C78.3205 121.377 78.455 118.786 79.3414 116.379" stroke="#263238" stroke-miterlimit="10"/>
<path d="M79.9278 128.226C79.9278 128.226 80.5969 125.691 79.6346 123.687" stroke="white" stroke-miterlimit="10"/>
<path d="M123.535 114.596C123.535 114.596 123.19 114.616 122.531 114.685C121.924 112.616 120.096 106.497 118.896 103.334C117.44 99.4922 115.446 94.0599 114.129 91.8076C112.811 89.5554 112.936 88.2309 110.418 86.1132C107.9 83.9954 105.648 84.9198 105.648 84.9198C105.648 84.9198 105.251 83.3298 102.733 82.5365C100.215 81.7432 96.7731 83.3298 96.7731 83.3298C96.7731 83.3298 96.242 82.402 93.7241 82.6676C92.9823 82.7584 92.276 83.0374 91.6723 83.4781C91.0686 83.9188 90.5877 84.5065 90.2751 85.1854C90.2751 85.1854 85.1014 74.8381 83.1217 74.0552C81.1419 73.2723 79.1449 75.2486 79.9416 77.1042C80.7384 78.9598 86.6984 89.2932 87.4917 91.6765C88.285 94.0599 90.0095 98.0366 90.0095 98.0366C90.0095 98.0366 84.3116 93.9288 82.5905 93.5322C80.8694 93.1355 78.3516 92.8699 76.8926 94.4599C75.4337 96.05 78.8793 96.4466 81.6627 98.9645C84.4461 101.482 88.9506 107.308 91.0684 111.019C93.1861 114.73 97.694 115.392 99.6911 117.51C101.088 119.004 103.078 121.083 104.133 122.187C103.776 122.549 103.443 122.934 103.137 123.339L107.507 134.069C107.507 134.069 108.434 132.614 112.146 129.699C115.857 126.785 127.38 123.208 127.38 123.208L123.535 114.596Z" fill="#263238" stroke="#263238" stroke-miterlimit="10"/>
<path d="M104.692 120.169C104.692 120.169 101.512 116.858 99.5186 114.741C97.525 112.623 93.0274 111.957 90.8959 108.246C88.7643 104.535 84.2702 98.7092 81.4902 96.1914C78.7103 93.6736 75.2646 93.2769 76.7201 91.6869C78.1757 90.0969 80.7176 90.3693 82.4422 90.7591C84.1667 91.1488 89.8611 95.2636 89.8611 95.2636C89.8611 95.2636 88.1366 91.2903 87.3433 88.9069C86.55 86.5236 80.5797 76.1867 79.7864 74.3311C78.9931 72.4755 80.9763 70.4888 82.963 71.2856C84.9496 72.0823 90.1198 82.4123 90.1198 82.4123C90.4315 81.7331 90.9123 81.1452 91.5162 80.705C92.1201 80.2647 92.8269 79.9869 93.5689 79.8979C96.0867 79.6324 96.6179 80.5602 96.6179 80.5602C96.6179 80.5602 100.067 78.9701 102.578 79.7634C105.089 80.5567 105.492 82.1502 105.492 82.1502C105.492 82.1502 107.745 81.2224 110.262 83.3401C112.78 85.4579 112.646 86.7892 113.97 89.038C115.295 91.2868 117.285 96.7225 118.74 100.565C120.196 104.407 122.583 112.619 122.583 112.619L105.485 121.894L104.692 120.169Z" fill="white" stroke="#263238" stroke-miterlimit="10"/>
<path d="M90.1199 82.4123L94.7554 89.3036" stroke="#263238" stroke-miterlimit="10"/>
<path d="M96.611 80.5602L100.85 87.1824" stroke="#263238" stroke-miterlimit="10"/>
<path d="M105.485 82.1502L108.4 87.3169" stroke="#263238" stroke-miterlimit="10"/>
<path d="M91.8961 101.189L92.5032 102.948" stroke="#263238" stroke-miterlimit="10"/>
<path d="M89.8542 95.2636L91.4753 99.9681" stroke="#263238" stroke-miterlimit="10"/>
<path d="M97.2732 90.8936L98.3321 92.3491" stroke="#263238" stroke-miterlimit="10"/>
<path d="M102.174 89.4347L103.368 91.0247" stroke="#263238" stroke-miterlimit="10"/>
<path d="M108.666 88.6414L109.459 91.1592" stroke="#263238" stroke-miterlimit="10"/>
<path d="M102.968 120.569C102.968 120.569 106.017 116.331 112.242 114.209C115.839 112.956 119.578 112.155 123.372 111.826L127.215 120.449C127.215 120.449 115.688 124.012 111.977 126.93C108.265 129.848 107.341 131.303 107.341 131.303L102.968 120.569Z" fill="white" stroke="#263238" stroke-miterlimit="10"/>
<path d="M113.436 149.183C113.436 149.183 108.4 136.597 107.075 133.948C105.751 131.3 107.872 129.975 107.872 129.975C107.872 129.975 110.918 125.867 118.868 122.687C126.818 119.507 127.491 119.376 129.463 121.628C131.436 123.881 144.488 149.221 144.488 149.221" fill="white"/>
<path d="M113.436 149.183C113.436 149.183 108.4 136.597 107.075 133.948C105.751 131.3 107.872 129.975 107.872 129.975C107.872 129.975 110.918 125.867 118.868 122.687C126.818 119.507 127.491 119.376 129.463 121.628C131.436 123.881 144.488 149.221 144.488 149.221" stroke="#263238" stroke-miterlimit="10"/>
<path d="M30.7336 135.942C32.1011 133.353 34.2261 131.242 36.8247 129.892C41.1119 127.706 43.8988 126.764 48.0032 122.715C52.1076 118.666 58.8712 115.051 61.6581 114.554C64.4449 114.058 65.3727 112.854 64.1724 111.488C62.9722 110.122 59.6886 110.043 56.7742 111.029C53.8597 112.016 51.1556 113.223 51.1556 113.223C52.6353 110.312 53.6183 106.804 55.0738 103.883C56.1085 101.813 57.802 98.385 58.8091 96.2949C59.4645 94.9325 61.4166 92.663 60.5337 91.173C59.6507 89.683 57.5709 90.6729 56.512 92.0939C54.8289 94.3565 46.5959 106.77 46.5959 106.77L51.2901 96.8364C53.6665 91.8042 54.7978 89.4036 54.4633 90.1175C55.1531 88.6482 56.5051 86.6685 55.6808 84.9888C55.4941 84.5956 55.2054 84.2597 54.8446 84.0162C54.4838 83.7727 54.0643 83.6305 53.6299 83.6044C53.1954 83.5783 52.7619 83.6694 52.3746 83.868C51.9873 84.0666 51.6605 84.3655 51.4281 84.7335C50.283 86.596 41.5327 103.155 41.5327 103.155C41.5327 103.155 47.0098 88.9449 47.71 87.31C48.5654 85.3164 48.0549 83.5746 46.7994 83.585C44.9645 83.585 44.0988 85.6303 43.3814 87.0099L43.7815 86.427C42.0569 88.7138 40.9153 91.7145 39.4805 94.1944C37.8134 97.0962 36.0843 99.9601 34.2931 102.786C34.638 99.8578 35.821 97.1123 37.2765 94.5703C38.156 93.0389 41.8155 89.276 41.1878 87.4273C40.6497 85.8338 36.6384 88.8276 34.2896 92.0939C33.0204 93.8736 29.6851 98.7299 28.7711 102.144C27.8571 105.559 21.4315 117.193 19.7173 120.425C18.0031 123.656 15.944 129.392 15.944 129.392L30.7336 135.942Z" fill="#263238" stroke="#263238" stroke-miterlimit="10"/>
<path d="M35.6278 132.817C35.6278 132.817 32.3236 128.775 25.9704 127.043C22.3035 126.015 18.5232 125.446 14.7161 125.35L11.4188 134.173C11.4188 134.173 23.1456 137.035 27.0258 139.715C30.9061 142.395 31.9235 143.792 31.9235 143.792L35.6278 132.817Z" fill="#263238" stroke="#263238" stroke-miterlimit="10"/>
<path d="M30.299 134.411C31.6665 131.823 33.79 129.714 36.3866 128.364C40.6738 126.174 43.4641 125.233 47.5651 121.187C51.666 117.141 58.4331 113.523 61.2234 113.023C64.0137 112.523 64.9381 111.326 63.7344 109.957C62.5306 108.587 59.2506 108.515 56.3361 109.501C53.4216 110.488 50.7106 111.692 50.7106 111.692C52.1903 108.781 53.1733 105.276 54.6288 102.351C55.6635 100.282 57.3605 96.8571 58.3642 94.7635C59.0195 93.4011 60.9717 91.1316 60.0887 89.645C59.2057 88.1585 57.1294 89.1415 56.0705 90.566C54.3874 92.8285 46.1544 105.238 46.1544 105.238C47.7157 101.927 49.2793 98.6173 50.8452 95.3084C53.2216 90.2762 54.3563 87.8757 54.0183 88.5862C54.7081 87.1203 56.0636 85.1543 55.2393 83.4608C55.0524 83.0675 54.7635 82.7315 54.4027 82.4878C54.0418 82.2441 53.6222 82.1016 53.1876 82.0752C52.7529 82.0488 52.3191 82.1394 51.9314 82.3376C51.5437 82.5358 51.2162 82.8344 50.9831 83.2022C49.838 85.0681 41.0877 101.627 41.0877 101.627C41.0877 101.627 46.5648 87.4135 47.265 85.7821C48.1204 83.7851 47.6099 82.0467 46.3545 82.0571C44.5195 82.0571 43.6538 84.0989 42.9364 85.482L43.3365 84.8991C41.612 87.1824 40.4703 90.1866 39.0355 92.6664C37.3616 95.5637 35.6278 98.4264 33.8343 101.255C34.1792 98.3264 35.3622 95.5844 36.8178 93.0424C37.6973 91.511 41.3567 87.7481 40.7325 85.8959C40.1944 84.3059 36.1797 87.2962 33.8343 90.566C32.5616 92.3457 29.2298 97.1985 28.3158 100.617C27.4018 104.035 20.9761 115.661 19.2619 118.897C17.5477 122.132 15.4886 127.864 15.4886 127.864L30.299 134.411Z" fill="white" stroke="#263238" stroke-miterlimit="10"/>
<path d="M41.1084 101.631L39.5253 104.828" stroke="#263238" stroke-miterlimit="10"/>
<path d="M46.1751 105.242L44.9404 106.842" stroke="#263238" stroke-miterlimit="10"/>
<path d="M50.7176 111.692L49.131 114.002" stroke="#263238" stroke-miterlimit="10"/>
<path d="M42.5156 110.174L42.388 111.55" stroke="#263238" stroke-miterlimit="10"/>
<path d="M38.563 107.666L38.5699 108.994" stroke="#263238" stroke-miterlimit="10"/>
<path d="M32.7479 104.897L33.0686 107.156" stroke="#263238" stroke-miterlimit="10"/>
<path d="M35.1898 131.289C35.1898 131.289 31.8855 127.247 25.5323 125.515C21.8686 124.489 18.0918 123.922 14.2883 123.825L10.9841 132.655C10.9841 132.655 22.711 135.514 26.5912 138.194C30.4714 140.874 31.4889 142.275 31.4889 142.275L35.1898 131.289Z" fill="white" stroke="#263238" stroke-miterlimit="10"/>
<path d="M29.9334 150.383C29.9334 150.383 30.7578 147.624 31.9167 144.896C33.0755 142.168 30.8819 140.978 30.8819 140.978C30.8819 140.978 27.5846 137.066 19.4551 134.383C11.3256 131.7 10.6565 131.607 8.81127 133.976C6.96601 136.346 1.04395 150.597 1.04395 150.597" fill="white"/>
<path d="M29.9334 150.383C29.9334 150.383 30.7578 147.624 31.9167 144.896C33.0755 142.168 30.8819 140.978 30.8819 140.978C30.8819 140.978 27.5846 137.066 19.4551 134.383C11.3256 131.7 10.6565 131.607 8.81127 133.976C6.96601 136.346 1.04395 150.597 1.04395 150.597" stroke="#263238" stroke-miterlimit="10"/>
</svg>
