<svg width="258" height="256" viewBox="0 0 258 256" fill="none" xmlns="http://www.w3.org/2000/svg">
<path d="M250.543 25.4458H189.703V88.868H250.543V25.4458Z" fill="#E0E0E0"/>
<path d="M246.423 25.4458H185.582V88.868H246.423V25.4458Z" fill="#FAFAFA"/>
<path d="M246.44 88.8851H185.559V25.423H246.44V88.8851ZM185.599 88.8452H246.4V25.4629H185.599V88.8452Z" fill="#E0E0E0"/>
<path d="M238.245 33.9712H193.76V80.3426H238.245V33.9712Z" fill="#FAFAFA"/>
<path d="M193.76 80.6446C193.446 81.1129 193.077 81.5415 192.66 81.9211C191.954 82.6734 190.951 83.6878 189.811 84.7705C188.671 85.8533 187.662 86.8563 186.904 87.5516C186.521 87.9584 186.091 88.318 185.622 88.6229C185.936 88.1594 186.301 87.7331 186.711 87.3521C187.423 86.6056 188.42 85.5855 189.56 84.5027C190.7 83.4199 191.714 82.4169 192.472 81.716C192.858 81.3094 193.29 80.9498 193.76 80.6446Z" fill="#E0E0E0"/>
<path d="M238.245 80.5306C238.709 80.8473 239.136 81.2164 239.516 81.6305C240.268 82.3428 241.283 83.3401 242.365 84.4799C243.448 85.6197 244.451 86.6284 245.152 87.3863C245.559 87.7702 245.917 88.2027 246.218 88.6742C245.755 88.3574 245.329 87.9904 244.947 87.5801C244.2 86.8677 243.18 85.8704 242.098 84.7306C241.015 83.5909 240.012 82.5765 239.316 81.8185C238.904 81.4384 238.544 81.0053 238.245 80.5306Z" fill="#E0E0E0"/>
<path d="M238.12 34.0909C238.437 33.6252 238.806 33.197 239.22 32.8143C239.926 32.0678 240.929 31.0534 242.069 29.9649C243.209 28.8764 244.217 27.8849 244.975 27.1839C245.362 26.7787 245.794 26.4192 246.263 26.1125C245.95 26.5778 245.583 27.0044 245.169 27.3834C244.457 28.1356 243.46 29.15 242.32 30.2328C241.18 31.3155 240.166 32.3242 239.408 33.0195C239.026 33.4303 238.593 33.7904 238.12 34.0909Z" fill="#E0E0E0"/>
<path d="M193.64 34.2049C193.173 33.8921 192.744 33.5248 192.364 33.1107C191.612 32.3983 190.597 31.401 189.515 30.2613C188.432 29.1215 187.429 28.1185 186.728 27.3606C186.323 26.9752 185.965 26.5429 185.662 26.0726C186.126 26.3872 186.553 26.7544 186.933 27.1668C187.679 27.8735 188.7 28.8765 189.782 30.0162C190.865 31.156 191.868 32.1704 192.569 32.9283C192.974 33.3111 193.334 33.7395 193.64 34.2049Z" fill="#E0E0E0"/>
<path d="M238.12 80.3368C238.12 80.3368 238.12 80.2571 238.12 80.1146C238.12 79.9721 238.12 79.7442 238.12 79.4649C238.12 78.895 238.12 78.0459 238.12 76.9631C238.12 74.7634 238.12 71.5721 238.074 67.5145C238.074 59.3937 238.023 47.8193 237.989 33.9712L238.16 34.1422H193.806L193.999 33.9484C193.999 50.9651 193.999 66.8876 193.999 80.314L193.828 80.1488L225.947 80.2343L234.968 80.2799H237.356H237.972H238.188C238.124 80.2854 238.059 80.2854 237.994 80.2799H237.396H235.042L226.055 80.3254L193.828 80.4109H193.658V80.24C193.658 66.8135 193.658 50.891 193.629 33.8743V33.6749H193.834H238.188H238.359V33.8458C238.325 47.7396 238.296 59.3481 238.274 67.4974C238.274 71.5379 238.239 74.7235 238.228 76.9062C238.228 77.9775 238.228 78.8039 238.228 79.3794C238.228 79.6473 238.228 79.8524 238.228 80.0063C238.208 80.1211 238.172 80.2324 238.12 80.3368Z" fill="#E0E0E0"/>
<path d="M217.302 52.1618C216.501 50.975 215.395 50.0257 214.101 49.4134C212.806 48.8011 211.371 48.5484 209.945 48.6819C208.52 48.8154 207.156 49.3301 205.998 50.172C204.84 51.0139 203.93 52.152 203.363 53.4669C202.919 54.5873 202.701 55.784 202.721 56.9887C202.74 58.1934 202.997 59.3824 203.477 60.4878C204.456 62.6979 206.05 64.5793 208.07 65.9074C213.273 69.4521 220.812 69.2925 225.651 65.2634C227.514 63.8136 228.781 61.7315 229.213 59.4108C229.411 58.0634 229.228 56.6873 228.683 55.4389C228.139 54.1905 227.255 53.1197 226.133 52.3481C225.011 51.5766 223.695 51.1352 222.334 51.074C220.973 51.0129 219.623 51.3345 218.436 52.0023" fill="#E0E0E0"/>
<path d="M217.325 52.1562C217.153 51.5253 216.763 50.9756 216.225 50.6043C215.687 50.233 215.035 50.064 214.384 50.1274L216.122 52.1961C215.646 52.2643 215.196 52.4588 214.821 52.7595C214.445 53.0601 214.156 53.4559 213.985 53.9057C213.9 54.1166 213.877 54.4129 214.076 54.5212C214.149 54.5431 214.225 54.5504 214.3 54.5426C214.376 54.5347 214.449 54.512 214.515 54.4756L216.629 53.598C216.775 54.7785 217.208 55.9055 217.889 56.8805C218.374 55.8454 218.645 54.7232 218.687 53.5809L221.023 54.6124C220.836 53.9453 220.453 53.3498 219.923 52.9027C220.616 52.768 221.278 52.5093 221.878 52.1391C222.06 52.0251 222.26 51.8313 222.174 51.6376C222.089 51.4438 221.924 51.4438 221.758 51.4324C220.216 51.2827 218.664 51.6046 217.308 52.3556" fill="#EBEBEB"/>
<path d="M217.171 53.0281C217.536 50.6642 217.341 48.2475 216.601 45.9729C217.171 45.8476 217.843 45.7678 218.202 46.2066C218.386 46.486 218.468 46.8198 218.436 47.1526C218.463 49.382 218.038 51.5939 217.188 53.6549" fill="#EBEBEB"/>
<path d="M205.824 61.4908C205.685 61.3884 205.562 61.2654 205.46 61.1261C205.158 60.7618 204.897 60.3663 204.679 59.9465C203.937 58.5531 203.675 56.9543 203.932 55.3969C204.19 53.8395 204.953 52.4102 206.104 51.3298C206.451 51.0024 206.833 50.7139 207.243 50.4693C207.383 50.3676 207.539 50.2905 207.705 50.2414C207.195 50.6157 206.709 51.0231 206.252 51.4609C205.174 52.5428 204.46 53.9343 204.211 55.4412C203.962 56.9481 204.189 58.4952 204.861 59.8667C205.147 60.4281 205.469 60.9706 205.824 61.4908Z" fill="white"/>
<path d="M208.167 63.2689C208.167 63.3315 207.774 63.2689 207.403 62.9839C207.033 62.699 206.833 62.414 206.89 62.3571C206.947 62.3001 207.209 62.5337 207.551 62.7788C207.893 63.0238 208.195 63.2005 208.167 63.2689Z" fill="white"/>
<path d="M113.196 6.97018H28.46V95.302H113.196V6.97018Z" fill="#E0E0E0"/>
<path d="M107.457 6.97018H22.7212V95.302H107.457V6.97018Z" fill="#FAFAFA"/>
<path d="M107.486 95.3247H22.6927V6.94168H107.486V95.3247ZM22.7611 95.2735H107.429V6.99297H22.7611V95.2735Z" fill="#E0E0E0"/>
<path d="M96.0651 18.8408H34.1132V83.4199H96.0651V18.8408Z" fill="#FAFAFA"/>
<path d="M34.1132 83.853C33.6726 84.5013 33.1603 85.0977 32.5859 85.6311C31.5943 86.6739 30.2038 88.0873 28.6481 89.6202C27.0923 91.1532 25.6562 92.5209 24.5962 93.4897C23.5362 94.4585 22.8865 95.0398 22.8068 94.9828C23.2441 94.3355 23.7546 93.7408 24.3283 93.2105C25.3199 92.1676 26.7105 90.7543 28.2776 89.2213C29.8448 87.6883 31.2752 86.3092 32.3295 85.3347C33.3838 84.3602 34.0619 83.796 34.1132 83.853Z" fill="#E0E0E0"/>
<path d="M96.0651 83.7162C96.7142 84.158 97.3107 84.6723 97.8431 85.2492C98.886 86.2351 100.299 87.6256 101.832 89.1871C103.365 90.7486 104.733 92.1733 105.708 93.2333C106.273 93.7678 106.773 94.3686 107.195 95.0227C106.549 94.586 105.956 94.0754 105.428 93.5011C104.38 92.5152 102.966 91.119 101.439 89.5575C99.9118 87.9961 98.527 86.5543 97.5582 85.5C96.5894 84.4457 96.0081 83.7447 96.0651 83.7162Z" fill="#E0E0E0"/>
<path d="M95.8942 19.0175C96.3305 18.3677 96.8412 17.771 97.4158 17.2395C98.4016 16.1909 99.7922 14.7776 101.354 13.2503C102.915 11.723 104.346 10.3496 105.4 9.37509C105.934 8.8092 106.535 8.3098 107.189 7.8877C107.246 7.93898 106.659 8.61145 105.668 9.65433C104.676 10.6972 103.286 12.1162 101.724 13.6435C100.163 15.1708 98.7265 16.5556 97.6665 17.5244C96.6065 18.4932 95.9455 19.0745 95.8942 19.0175Z" fill="#E0E0E0"/>
<path d="M33.9423 19.1714C33.2906 18.7353 32.6936 18.2225 32.1642 17.6441C31.1213 16.6525 29.708 15.2677 28.1751 13.7062C26.6421 12.1447 25.2687 10.7143 24.2999 9.66003C23.7349 9.123 23.2339 8.52254 22.8068 7.87059C22.8638 7.81361 23.5362 8.40059 24.5791 9.38648C25.622 10.3724 27.041 11.7743 28.5683 13.3358C30.0956 14.8972 31.4747 16.3333 32.4492 17.3933C33.015 17.9253 33.5161 18.5221 33.9423 19.1714Z" fill="#E0E0E0"/>
<path d="M95.8942 83.4256C95.8942 83.4256 95.8942 83.3116 95.8942 83.1122C95.8942 82.9127 95.8942 82.5936 95.8942 82.2118C95.8942 81.3949 95.8942 80.2324 95.8942 78.7241C95.8942 75.6638 95.86 71.213 95.8315 65.5598C95.8315 54.2476 95.7574 38.1371 95.7118 18.8294L95.9455 19.0688L34.1702 19.103L34.4438 18.8294C34.4438 42.5366 34.4153 64.7107 34.4039 83.4142L34.1702 83.1749L78.906 83.3002L91.4719 83.3572L94.7943 83.3857H95.6549C95.7535 83.3784 95.8526 83.3784 95.9512 83.3857C95.862 83.3912 95.7726 83.3912 95.6834 83.3857H94.8456L91.5688 83.4142L79.0314 83.4769L34.1474 83.5966H33.9138V83.3629C33.9138 64.6594 33.8853 42.4853 33.8739 18.7782V18.5046H34.1531L95.9284 18.5388H96.1735V18.7782C96.1279 38.1542 96.0823 54.3046 96.0538 65.651C96.0538 71.2814 96.0082 75.7151 95.9911 78.7583C95.9911 80.2514 95.9911 81.4025 95.9626 82.1776C95.9626 82.548 95.9626 82.8386 95.9626 83.0495C95.9539 83.177 95.931 83.3032 95.8942 83.4256Z" fill="#E0E0E0"/>
<path d="M64.8242 31.0021C64.6133 31.7145 60.9832 37.4361 55.7517 39.3794C50.5201 41.3227 46.6335 43.4769 48.081 46.0356C49.5286 48.5944 55.9625 47.2039 55.9625 47.2039C55.9625 47.2039 42.9179 61.3826 55.1989 69.4863C70.1697 79.3624 85.8187 43.9955 85.8187 43.9955L64.8242 31.0021Z" fill="#EBEBEB"/>
<path d="M83.351 48.8508C83.3111 48.9192 78.3759 46.0014 72.3295 42.2801C66.283 38.5588 61.4105 35.5384 61.4504 35.4415C61.4903 35.3446 66.4255 38.2909 72.4777 42.0122C78.5298 45.7336 83.3909 48.7825 83.351 48.8508Z" fill="#E0E0E0"/>
<path d="M81.0373 53.0908C80.9917 53.1592 75.6633 50.0305 69.1267 46.104C62.5902 42.1775 57.3245 38.9406 57.3644 38.8722C57.4043 38.8038 62.7327 41.9325 69.2749 45.859C75.8172 49.7854 81.0772 53.0224 81.0373 53.0908Z" fill="#E0E0E0"/>
<path d="M78.2392 57.1084C78.1936 57.1768 72.2098 53.6549 64.864 49.244C57.5182 44.8332 51.5971 41.1973 51.637 41.1346C51.6769 41.0719 57.6664 44.5881 65.0122 48.999C72.358 53.4099 78.2791 57.0457 78.2392 57.1084Z" fill="#E0E0E0"/>
<path d="M74.7458 62.0607C74.7002 62.1291 70.0614 59.2968 64.3796 55.7407C58.6979 52.1847 54.1217 49.2441 54.1673 49.1814C54.2129 49.1187 58.8461 51.9453 64.5335 55.5014C70.2209 59.0574 74.7857 62.0151 74.7458 62.0607Z" fill="#E0E0E0"/>
<path d="M70.6313 66.8876C70.5914 66.9503 66.2717 64.1636 60.9832 60.6588C55.6947 57.154 51.449 54.259 51.4889 54.1963C51.5288 54.1337 55.8542 56.9204 61.1427 60.4252C66.4312 63.9299 70.6826 66.8192 70.6313 66.8876Z" fill="#E0E0E0"/>
<path d="M65.3997 70.2157C65.1704 70.138 64.9506 70.0348 64.7443 69.908C64.334 69.6971 63.7413 69.3723 63.0347 68.9677C61.5872 68.1528 59.6154 66.9788 57.4783 65.6111C55.3413 64.2434 53.455 62.9383 52.11 61.9638C51.4376 61.4737 50.9019 61.0748 50.5372 60.7899C50.3299 60.6565 50.1387 60.4997 49.9673 60.3226C50.1846 60.4269 50.3908 60.5529 50.5828 60.6987L52.2126 61.7986C53.586 62.7332 55.4838 64.0097 57.6151 65.3717C59.7465 66.7337 61.7012 67.9362 63.1202 68.791L64.8298 69.8168C65.033 69.9298 65.224 70.0635 65.3997 70.2157Z" fill="#E0E0E0"/>
<path d="M53.1188 47.523C52.0815 47.2618 51.1004 46.8138 50.2238 46.2009C49.2994 45.6639 48.479 44.9651 47.8018 44.1379C47.8587 44.0752 48.9073 45.0326 50.3776 45.9616C51.8479 46.8905 53.153 47.4489 53.1188 47.523Z" fill="#E0E0E0"/>
<path d="M84.8442 43.2546C84.792 43.3633 84.729 43.4664 84.6561 43.5623L84.0862 44.4058C83.579 45.1409 82.8268 46.1895 81.8865 47.4831C80.0059 50.059 77.3274 53.5809 74.3241 57.3991C71.3208 61.2173 68.46 64.591 66.3458 67.0073C65.3029 68.2155 64.4538 69.1843 63.8554 69.8567L63.1772 70.609C63.1014 70.7036 63.0154 70.7896 62.9208 70.8654C62.9835 70.7618 63.056 70.6645 63.1373 70.5748L63.787 69.7826L66.2147 66.8819C68.2606 64.4371 71.0644 61.0349 74.0905 57.2281C77.1166 53.4213 79.7893 49.9165 81.7155 47.3692L83.995 44.3488L84.6219 43.5338C84.6889 43.4353 84.7632 43.342 84.8442 43.2546Z" fill="#E0E0E0"/>
<path d="M80.5985 40.2342C80.6612 40.2855 75.4695 47.0728 68.9843 55.3931C62.499 63.7134 57.2048 70.4266 57.1478 70.3753C57.0908 70.324 62.2767 63.5367 68.762 55.2164C75.2473 46.8961 80.5358 40.1886 80.5985 40.2342Z" fill="#E0E0E0"/>
<path d="M74.6774 36.8776C74.6372 36.9964 74.5816 37.1094 74.5121 37.2139L73.9764 38.1542C73.5091 38.9634 72.8025 40.126 71.8907 41.5279C70.0728 44.3773 67.3715 48.11 64.1802 52.1106C60.9888 56.1112 57.9855 59.6273 55.8143 62.1747L53.227 65.178L52.509 65.9872C52.4321 66.0862 52.3441 66.1761 52.2468 66.2551C52.3117 66.1479 52.3861 66.0468 52.4691 65.953L53.1415 65.1096L55.6604 62.0493C57.7975 59.4678 60.7894 55.9345 63.9579 51.9339C67.1265 47.9333 69.8676 44.2006 71.7197 41.4196C72.6543 40.0291 73.3838 38.8893 73.8853 38.0972L74.4552 37.1854C74.5214 37.0774 74.5957 36.9745 74.6774 36.8776Z" fill="#E0E0E0"/>
<path d="M69.822 34.0966C69.8847 34.1422 65.451 40.012 59.9231 47.2039C54.3953 54.3958 49.859 60.1858 49.7963 60.1402C49.7336 60.0946 54.1673 54.2248 59.6952 47.0329C65.223 39.841 69.7593 34.051 69.822 34.0966Z" fill="#E0E0E0"/>
<path d="M66.1691 31.7145C66.0312 31.9868 65.8751 32.2496 65.7018 32.5009C65.5422 32.7517 65.3485 33.0708 65.0977 33.3842C64.847 33.6977 64.5848 34.1137 64.2429 34.524C63.4797 35.4895 62.6575 36.4069 61.781 37.2708C60.7075 38.3238 59.5652 39.3043 58.3617 40.2057C57.1409 41.09 55.8636 41.8933 54.5378 42.6106C53.4513 43.188 52.3303 43.698 51.1812 44.1379C50.6968 44.3431 50.2409 44.4798 49.8477 44.6166C49.4544 44.7534 49.1068 44.8503 48.8219 44.9244C48.5326 45.0216 48.235 45.0922 47.9329 45.1352C48.2091 45.0083 48.4949 44.9035 48.7877 44.8218C49.0669 44.7306 49.4089 44.6166 49.7907 44.4684C50.1725 44.3203 50.6284 44.1664 51.1071 43.9556C52.2364 43.4891 53.3398 42.9622 54.4124 42.377C55.723 41.6556 56.9869 40.8524 58.1964 39.9721C59.3946 39.0803 60.5365 38.1153 61.6157 37.0828C62.4944 36.2343 63.3258 35.3383 64.1061 34.3986C64.4538 34.0054 64.7273 33.6236 64.9894 33.2988C65.2516 32.9739 65.4568 32.689 65.6277 32.4496C65.7877 32.1902 65.9688 31.9443 66.1691 31.7145Z" fill="#E0E0E0"/>
<path d="M50.144 202.651C49.8989 202.708 51.734 211.951 51.734 211.951H56.4469L58.527 203.015C55.8253 202.093 52.9155 201.967 50.144 202.651Z" fill="#E0E0E0"/>
<path d="M47.3059 254.681C47.3059 254.681 40.3762 235.305 41.345 230.011C42.3138 224.717 44.3995 223.634 46.0579 221.97C47.7162 220.306 49.1125 218.921 49.5285 217.257C49.9445 215.593 49.5285 208.937 49.5285 208.937C49.5285 208.937 48.2804 206.999 48.6964 206.304C49.1125 205.608 59.3703 206.304 59.3703 206.304C59.3126 207.151 59.0249 207.967 58.5383 208.663C58.5383 208.663 58.2591 216.425 58.6751 217.257C59.0911 218.089 65.4681 225.161 66.4369 228.763C67.4057 232.364 62.6073 254.681 62.6073 254.681H47.3059Z" fill="#F5F5F5"/>
<path d="M47.306 254.681C47.3971 254.676 47.4884 254.676 47.5796 254.681H48.3603H51.3693L62.6074 254.63L62.5162 254.704C63.0861 251.854 63.7471 248.686 64.3968 245.164C65.0465 241.642 65.7189 237.807 66.1919 233.692C66.3002 232.661 66.4028 231.612 66.4256 230.552C66.4507 230.026 66.4182 229.498 66.3287 228.979C66.1906 228.461 65.9997 227.959 65.7588 227.48C64.6982 225.507 63.4602 223.634 62.0603 221.884C61.3593 220.972 60.6356 220.066 59.9004 219.149C59.53 218.693 59.1596 218.237 58.8005 217.758C58.706 217.634 58.6185 217.505 58.5384 217.371C58.4792 217.217 58.439 217.056 58.4187 216.892C58.3731 216.59 58.356 216.294 58.3389 215.992C58.2364 213.592 58.3047 211.159 58.3788 208.697V208.657V208.617C58.4966 208.434 58.6031 208.244 58.698 208.048C58.9703 207.515 59.1368 206.934 59.1881 206.338L59.3248 206.486C56.9826 206.338 54.6746 206.224 52.4122 206.184C51.3011 206.144 50.1885 206.188 49.084 206.315C48.9831 206.334 48.8853 206.366 48.7934 206.412C48.7403 206.505 48.7164 206.613 48.725 206.72C48.7424 206.977 48.7981 207.231 48.8903 207.472C49.0856 207.969 49.3279 208.446 49.614 208.897V208.931V208.965C49.7166 210.737 49.785 212.481 49.7907 214.197C49.8042 215.051 49.7718 215.905 49.6938 216.755C49.589 217.605 49.2714 218.415 48.7706 219.109C48.2954 219.777 47.7675 220.406 47.192 220.99C46.6222 221.559 46.0523 222.129 45.4824 222.671C44.9023 223.176 44.356 223.718 43.8468 224.295C43.3949 224.857 43.0123 225.471 42.7071 226.124C42.099 227.424 41.6788 228.804 41.459 230.222C41.3879 230.898 41.3879 231.58 41.459 232.256C41.5046 232.929 41.5958 233.584 41.6927 234.234C42.103 236.804 42.6957 239.152 43.2484 241.277C44.3882 245.517 45.4596 248.857 46.2004 251.148C46.5709 252.287 46.8615 253.165 47.061 253.775C47.1578 254.066 47.2319 254.288 47.2832 254.453C47.3345 254.618 47.3516 254.687 47.3516 254.687L47.2604 254.459C47.2034 254.299 47.118 254.077 47.0154 253.792C46.7988 253.222 46.4911 252.322 46.1036 251.182C45.3342 248.902 44.2343 245.563 43.0718 241.323C42.4193 239 41.8867 236.645 41.4761 234.268C41.3792 233.618 41.2824 232.957 41.2311 232.273C41.1572 231.58 41.1572 230.881 41.2311 230.187C41.4453 228.744 41.8676 227.339 42.4848 226.016C42.8196 225.326 43.2388 224.681 43.7329 224.095C44.251 223.511 44.8048 222.959 45.3912 222.443C45.9611 221.918 46.531 221.349 47.1009 220.773C47.6674 220.201 48.1841 219.581 48.6452 218.921C49.1236 218.263 49.4258 217.494 49.5229 216.687C49.5965 215.848 49.627 215.005 49.614 214.162C49.614 212.453 49.5286 210.743 49.426 208.948V209.016C49.1288 208.548 48.8787 208.052 48.6794 207.535C48.5695 207.264 48.5059 206.977 48.4914 206.685C48.4797 206.515 48.5237 206.345 48.6167 206.201C48.7476 206.086 48.9108 206.014 49.084 205.996C50.2069 205.859 51.3389 205.814 52.4691 205.859C54.7487 205.893 57.0282 206.007 59.3989 206.156H59.5471V206.292C59.5042 206.943 59.3256 207.578 59.0228 208.156C58.9211 208.352 58.8088 208.542 58.6866 208.726L58.7151 208.652C58.641 211.108 58.5726 213.541 58.6752 215.918C58.685 216.209 58.7097 216.5 58.7493 216.79C58.765 216.924 58.7955 217.055 58.8404 217.183C58.9125 217.302 58.9924 217.416 59.0798 217.525C59.4274 217.998 59.8035 218.454 60.1683 218.909C60.9034 219.827 61.6272 220.733 62.3281 221.651C63.7404 223.416 64.9862 225.309 66.0495 227.304C66.2913 227.802 66.4822 228.323 66.6193 228.86C66.7105 229.402 66.743 229.952 66.7162 230.501C66.7162 231.578 66.5908 232.632 66.4769 233.664C65.9925 237.795 65.2915 241.642 64.6418 245.153C63.9922 248.663 63.3254 251.866 62.7213 254.687V254.766H62.6416L51.3579 254.721H48.366H47.5967L47.306 254.681Z" fill="#E0E0E0"/>
<path d="M61.2795 252.675C63.0376 246.189 64.203 239.557 64.7615 232.86C64.8185 232.097 64.8185 231.213 64.2429 230.706C63.5363 230.091 62.4535 230.421 61.5588 230.706C58.9286 231.538 56.1302 231.687 53.4266 231.139C50.7994 230.598 48.195 229.395 45.5451 229.828C45.2138 229.861 44.8922 229.959 44.5988 230.117C44.3054 230.274 44.046 230.488 43.8354 230.746C43.4023 231.384 43.5049 232.228 43.6303 232.986C44.6675 239.499 46.7931 246.993 48.5199 252.675H61.2795Z" fill="#E0E0E0"/>
<path d="M63.0233 231.504C62.8815 231.715 62.713 231.906 62.5218 232.074C62.0293 232.527 61.5015 232.941 60.9433 233.31C59.1003 234.575 56.9813 235.38 54.7636 235.659C52.5458 235.938 50.2936 235.681 48.195 234.912C47.5643 234.683 46.9527 234.405 46.3657 234.08C46.1426 233.971 45.934 233.835 45.7445 233.675C45.773 233.624 46.6677 234.182 48.2634 234.712C50.3365 235.413 52.5412 235.635 54.7123 235.362C56.8835 235.09 58.9649 234.33 60.8008 233.139C62.254 232.228 62.9834 231.464 63.0233 231.504Z" fill="white"/>
<path d="M178.613 126.258C176.838 126.456 175.047 126.456 173.273 126.258C175.047 126.06 176.838 126.06 178.613 126.258Z" fill="#FAFAFA"/>
<path d="M257.553 255.41C257.553 255.496 199.898 255.564 128.793 255.564C57.6892 255.564 0 255.496 0 255.41C0 255.325 57.6379 255.251 128.759 255.251C199.881 255.251 257.553 255.331 257.553 255.41Z" fill="#263238"/>
<path d="M206.024 223.241C208.799 221.246 211.626 219.223 214.84 218.055C218.054 216.886 221.77 216.658 224.813 218.226C227.36 219.536 229.195 221.987 230.25 224.654C231.55 227.966 231.77 231.604 230.876 235.049C230.392 236.906 229.429 238.827 227.662 239.579C225.896 240.331 223.861 239.682 222.106 238.895C216.346 236.307 211.356 232.268 207.625 227.173C208.001 226.873 208.456 226.691 208.934 226.648C209.413 226.605 209.893 226.705 210.315 226.933C211.15 227.404 211.908 227.998 212.566 228.694C214.795 230.713 217.483 232.157 220.396 232.9C222.55 233.47 225.451 233.214 226.175 231.111C226.648 229.737 225.896 228.261 225.166 227.013C224.334 225.571 223.383 224.027 221.821 223.451C220.647 223.024 219.353 223.229 218.123 223.451L204.685 225.759L205.517 225.514" fill="#455A64"/>
<path d="M172.475 41.9952C163.613 39.5219 150.483 42.964 145.468 50.6745C140.453 58.385 142.664 69.8282 142.271 79.0147C141.878 88.2012 142.271 97.5359 140.043 106.466C138.641 112.165 135.957 117.864 131.022 121.026C125.38 124.617 116.923 124.97 114.25 131.102C112.022 136.231 115.481 142.5 113.23 147.629C112.238 149.908 110.227 151.618 109.36 153.926C108.164 157.129 109.474 160.856 111.828 163.335C114.182 165.814 117.401 167.267 120.61 168.463C130.384 172.044 140.774 173.642 151.173 173.165C158.735 172.812 166.85 171.022 171.808 165.306C175.7 160.816 176.983 154.661 177.689 148.78C182.032 112.404 182.818 72.4155 172.475 42.0521" fill="#263238"/>
<path d="M123.06 152.381C123.135 152.342 122.73 151.658 122.325 150.296C121.796 148.37 121.683 146.353 121.995 144.38C122.467 141.455 123.559 138.665 125.198 136.197C127.015 133.393 129.648 130.76 132.538 128.167C135.427 125.574 138.305 123.175 140.624 120.673C142.716 118.484 144.458 115.985 145.787 113.265C146.676 111.423 147.228 109.437 147.417 107.401C147.457 106.849 147.457 106.294 147.417 105.742C147.417 105.36 147.372 105.172 147.343 105.172C147.172 105.127 147.628 108.478 145.337 113.06C143.972 115.692 142.227 118.11 140.157 120.234C137.877 122.679 134.988 125.044 132.076 127.643C129.164 130.241 126.508 132.937 124.668 135.843C123.002 138.396 121.924 141.286 121.51 144.306C121.237 146.343 121.432 148.414 122.08 150.364C122.262 150.889 122.491 151.396 122.764 151.88C122.838 152.06 122.938 152.229 123.06 152.381Z" fill="#455A64"/>
<path d="M145.349 217.53L142.385 254.772L231.418 255.211L207.215 221.178L145.349 217.53Z" fill="#263238"/>
<path d="M74.9623 127.956C75.2131 128.173 69.7479 157.334 66.984 171.934C66.5223 174.377 66.755 176.9 67.6556 179.217C68.5562 181.534 70.0886 183.552 72.0787 185.041C74.135 186.579 76.5927 187.488 79.1545 187.657C81.7164 187.827 84.2726 187.251 86.5139 185.999L123.585 166.708L112.233 142.938L88.8675 156.2L90.4062 131.472L74.9623 127.956Z" fill="#FFBE9D"/>
<path d="M87.6194 104.768C87.3573 103.725 86.0408 103.252 84.9923 103.514C83.9697 103.872 83.0583 104.491 82.348 105.309L79.3504 107.127C78.7848 107.502 78.319 108.01 77.9933 108.606C77.6676 109.201 77.4919 109.867 77.4812 110.546C77.4664 111.901 77.6763 113.249 78.1024 114.536C78.4158 115.675 78.8603 116.969 79.9602 117.385C81.1854 117.841 82.5418 116.895 83.1173 115.721C83.6929 114.547 83.7499 113.208 84.0519 111.937C84.416 110.413 85.1367 108.997 86.1548 107.805C86.9128 106.91 87.9101 105.907 87.6194 104.768Z" fill="#EB996E"/>
<path d="M62.7156 105.942C62.6228 105.651 62.6031 105.342 62.6582 105.042C62.7132 104.742 62.8413 104.46 63.0311 104.221C63.2209 103.982 63.4667 103.794 63.7466 103.673C64.0265 103.551 64.332 103.501 64.6361 103.525C70.7224 104.027 85.1803 106.05 93.7571 108.518C105.918 112.017 113.925 114.279 113.925 114.279L139.752 113.709C139.752 113.709 136.652 122.611 126.81 122.656C119.362 122.691 111.549 117.904 111.549 117.904C111.549 117.904 78.45 106.631 64.5506 107.241C64.1446 107.259 63.7442 107.142 63.4121 106.908C63.08 106.673 62.835 106.336 62.7156 105.947V105.942Z" fill="#455A64"/>
<path d="M134.925 113.783C135.245 114.689 134.19 115.493 133.25 115.664C132.31 115.835 131.233 115.789 130.554 116.462C130.314 116.751 130.138 117.088 130.04 117.451C129.942 117.814 129.923 118.194 129.984 118.565C130.119 119.303 130.208 120.049 130.252 120.799C130.267 121.308 130.09 121.804 129.757 122.189C129.078 122.879 127.83 122.645 127.175 121.938C126.575 121.17 126.248 120.223 126.246 119.248C126.238 118.558 126.136 117.872 125.944 117.208C125.843 116.877 125.655 116.578 125.399 116.343C125.144 116.109 124.83 115.947 124.491 115.875C123.676 115.772 122.958 116.388 122.177 116.661C121.768 116.777 121.338 116.803 120.918 116.737C120.498 116.671 120.097 116.515 119.743 116.279C119.389 116.044 119.09 115.734 118.867 115.372C118.644 115.01 118.501 114.604 118.45 114.182L134.925 113.783Z" fill="#FF725E"/>
<path d="M72.0217 104.523C71.6166 104.748 71.1979 104.948 70.7679 105.121C68.6834 105.968 66.4266 106.304 64.1858 106.101C63.7239 106.063 63.2651 105.995 62.8124 105.896C62.8124 105.896 62.9435 105.896 63.1771 105.947C63.4108 105.999 63.747 106.021 64.1858 106.056C65.2997 106.145 66.4201 106.107 67.5253 105.942C68.6291 105.775 69.7109 105.487 70.7508 105.081C71.1498 104.922 71.4689 104.785 71.6855 104.677L72.0217 104.523Z" fill="#263238"/>
<path d="M83.3511 106.158H83.2428L82.935 106.124C82.6672 106.09 82.2797 106.056 81.7953 106.027C80.542 105.952 79.2843 106.017 78.0454 106.221C76.8077 106.432 75.5963 106.776 74.4324 107.247C73.9879 107.435 73.6289 107.594 73.3895 107.714L73.1103 107.845L73.0077 107.885C73.0077 107.885 73.0362 107.885 73.0989 107.822L73.3667 107.668C73.6061 107.537 73.9366 107.366 74.4039 107.173C75.5648 106.673 76.7817 106.315 78.0284 106.107C79.2749 105.902 80.5413 105.847 81.801 105.942C82.2854 105.982 82.6729 106.033 82.9407 106.078L83.2485 106.135L83.3511 106.158Z" fill="#263238"/>
<path d="M91.8195 110.449L90.6284 110.096L89.2379 109.674C88.9365 109.607 88.6625 109.45 88.4515 109.224C88.3987 109.157 88.3633 109.077 88.3484 108.993C88.3335 108.908 88.3396 108.821 88.366 108.74C88.397 108.655 88.4479 108.578 88.5143 108.517C88.5807 108.456 88.6607 108.411 88.7478 108.386C89.1193 108.273 89.5161 108.273 89.8876 108.386C90.2694 108.461 90.6683 108.546 91.073 108.66C91.935 108.903 92.7726 109.225 93.5747 109.623C93.9965 109.834 94.4239 110.068 94.8399 110.33C95.0609 110.448 95.255 110.611 95.4098 110.808C95.4494 110.864 95.4744 110.929 95.4824 110.996C95.4903 111.064 95.481 111.133 95.4554 111.196C95.3949 111.316 95.294 111.411 95.1704 111.464C94.1713 111.849 93.0895 111.969 92.0304 111.811C89.8363 111.532 87.9842 110.478 86.3315 109.612C84.892 108.759 83.3291 108.134 81.6984 107.76C80.5937 107.527 79.4487 107.57 78.3646 107.885C78.0716 107.977 77.7874 108.096 77.5155 108.238C77.3331 108.341 77.2362 108.386 77.2362 108.386L77.4699 108.221C77.739 108.074 78.0214 107.952 78.3133 107.856C79.4029 107.531 80.5566 107.482 81.6699 107.714C83.3057 108.084 84.8744 108.705 86.3201 109.555C87.9785 110.421 89.8306 111.47 92.019 111.749C93.0664 111.903 94.1359 111.785 95.1248 111.407C95.239 111.363 95.3326 111.277 95.387 111.168C95.4071 111.112 95.4139 111.053 95.407 110.995C95.4001 110.936 95.3795 110.88 95.3471 110.831C95.1906 110.642 94.9965 110.486 94.7772 110.375C94.3705 110.117 93.9501 109.881 93.5178 109.669C92.7175 109.271 91.8819 108.948 91.0217 108.706C90.6227 108.592 90.2238 108.5 89.842 108.421C89.4865 108.318 89.1091 108.318 88.7535 108.421C88.673 108.446 88.5989 108.488 88.5368 108.546C88.4748 108.603 88.4261 108.673 88.3945 108.751C88.3689 108.827 88.3623 108.907 88.3752 108.986C88.3881 109.064 88.4202 109.138 88.4686 109.201C88.6749 109.423 88.9428 109.578 89.2379 109.646L90.6284 110.073L91.8195 110.449Z" fill="#263238"/>
<path d="M97.8261 109.931C97.9289 110.107 97.9984 110.3 98.0312 110.501C98.1241 110.966 98.0662 111.449 97.866 111.88C97.6548 112.305 97.3161 112.654 96.8972 112.877C96.7202 112.973 96.5269 113.035 96.3273 113.06C96.5078 113 96.6832 112.926 96.8516 112.837C97.2641 112.619 97.5963 112.274 97.8002 111.854C98.0041 111.434 98.069 110.96 97.9856 110.501C97.9477 110.307 97.8944 110.116 97.8261 109.931Z" fill="#263238"/>
<path d="M108.312 112.672C108.312 112.672 107.742 112.672 106.853 112.615C105.964 112.558 104.71 112.427 103.331 112.41C102.165 112.368 101.002 112.561 99.9118 112.98C99.7149 113.051 99.5242 113.139 99.3419 113.242C99.2044 113.307 99.0744 113.388 98.9543 113.481L98.6295 113.698L98.9372 113.464C99.0562 113.366 99.1863 113.282 99.3248 113.213C99.5067 113.106 99.6974 113.015 99.8947 112.94C100.997 112.511 102.178 112.317 103.36 112.37C104.744 112.37 105.981 112.535 106.881 112.598C107.332 112.632 107.696 112.661 107.947 112.672H108.312Z" fill="#263238"/>
<path d="M119.248 121.272C119.248 121.272 119.043 121.095 118.678 120.764C118.496 120.599 118.268 120.4 117.994 120.194C117.721 119.989 117.424 119.716 117.06 119.459C116.236 118.836 115.374 118.265 114.478 117.75C112.286 116.498 109.914 115.591 107.446 115.06C106.441 114.838 105.422 114.682 104.397 114.593C103.958 114.536 103.559 114.53 103.211 114.513C102.864 114.496 102.562 114.513 102.317 114.513C102.562 114.513 102.887 114.513 103.211 114.513C103.536 114.513 103.958 114.513 104.397 114.581C105.426 114.668 106.448 114.82 107.457 115.037C108.691 115.304 109.906 115.654 111.093 116.086C112.269 116.547 113.411 117.09 114.512 117.71C115.408 118.224 116.271 118.795 117.094 119.419C117.453 119.67 117.749 119.938 118.023 120.16C118.296 120.383 118.519 120.576 118.695 120.73C119.071 121.083 119.248 121.272 119.248 121.272Z" fill="#263238"/>
<path d="M126.719 121.465C126.538 121.564 126.347 121.642 126.149 121.699C125.62 121.86 125.066 121.927 124.514 121.898C123.693 121.847 122.89 121.638 122.149 121.283C121.249 120.837 120.419 120.261 119.687 119.573C118.895 118.855 118.205 118.114 117.567 117.453C117.008 116.851 116.417 116.28 115.794 115.744C115.375 115.387 114.929 115.063 114.461 114.775C114.296 114.678 114.165 114.598 114.073 114.553L113.942 114.49C114.622 114.818 115.256 115.234 115.829 115.727C116.451 116.256 117.047 116.817 117.612 117.408C118.256 118.069 118.946 118.81 119.732 119.522C120.46 120.207 121.284 120.783 122.177 121.232C122.912 121.587 123.71 121.796 124.525 121.847C125.073 121.884 125.622 121.824 126.149 121.67C126.293 121.63 126.434 121.579 126.571 121.517L126.719 121.465Z" fill="#263238"/>
<path d="M136.504 118.724H136.31C136.179 118.724 135.997 118.724 135.769 118.724C135.173 118.725 134.58 118.786 133.997 118.906C133.408 119.034 132.834 119.225 132.287 119.476C132.082 119.568 131.911 119.653 131.802 119.716C131.745 119.75 131.684 119.779 131.62 119.801C131.827 119.663 132.044 119.541 132.27 119.436C133.352 118.914 134.544 118.658 135.746 118.69C135.999 118.684 136.252 118.696 136.504 118.724Z" fill="#263238"/>
<path d="M65.3883 121.004L65.1147 115.675C65.0845 115.101 65.2426 114.533 65.5649 114.057L65.5991 114.005C66.5172 112.643 67.7137 111.492 69.1096 110.626L80.5927 103.508C80.762 103.403 80.9544 103.34 81.1532 103.326C81.3521 103.312 81.5514 103.347 81.7339 103.427C81.9164 103.507 82.0766 103.631 82.2004 103.787C82.3243 103.943 82.4082 104.127 82.4449 104.323C82.5873 105.264 82.1713 107.406 81.3393 108.261C79.8632 109.605 78.2468 110.785 76.5181 111.783L88.0354 109.549C88.3037 110.285 88.2989 111.092 88.0217 111.824C87.7445 112.556 87.2134 113.165 86.5252 113.538L91.2609 112.535C91.2609 112.535 92.811 114.741 90.6911 116.194C88.5711 117.647 84.8042 118.906 84.8042 118.906C84.8042 118.906 90.6797 121.385 90.5429 123.363C90.4061 125.34 90.3263 131.678 90.3263 131.678L74.5406 130.538L65.3883 121.004Z" fill="#FFBE9D"/>
<path d="M76.9341 111.435L76.8259 111.498L76.4953 111.663C76.2104 111.811 75.7944 112.017 75.2929 112.284C74.7914 112.552 74.2215 112.917 73.5832 113.333C72.945 113.749 72.2326 114.176 71.5544 114.701C71.2225 114.955 70.9567 115.285 70.7794 115.664C70.6273 116.024 70.5572 116.413 70.5743 116.804C70.6204 117.466 70.7467 118.121 70.9504 118.753C71.0812 119.188 71.1709 119.634 71.2182 120.086C71.2378 120.251 71.2378 120.417 71.2182 120.582C71.2182 120.582 71.2182 120.405 71.1783 120.086C71.1177 119.641 71.0186 119.203 70.882 118.775C70.6625 118.138 70.5265 117.476 70.4774 116.804C70.4568 116.4 70.5269 115.997 70.6825 115.624C70.8684 115.23 71.1435 114.885 71.4861 114.615C71.8239 114.355 72.1759 114.113 72.5404 113.892L73.5376 113.248C74.1702 112.837 74.7515 112.478 75.2473 112.216C75.7431 111.954 76.1762 111.76 76.4725 111.646L76.8088 111.498L76.9341 111.435Z" fill="#EB996E"/>
<path d="M78.0056 123.397C78.0056 123.397 77.9543 123.34 77.8631 123.221L77.4699 122.713L76.843 121.915C76.5574 121.566 76.3145 121.183 76.1193 120.776C75.9037 120.217 75.8574 119.607 75.9861 119.023C76.1148 118.438 76.4128 117.904 76.843 117.488C77.369 117.029 77.9681 116.661 78.6153 116.399C79.265 116.091 79.9489 115.795 80.6555 115.504C83.0785 114.536 85.5677 113.742 88.1039 113.128C89.0727 112.883 89.8648 112.712 90.4119 112.598L91.0388 112.473L91.261 112.433C91.1901 112.458 91.1178 112.479 91.0445 112.495L90.4176 112.644C89.8762 112.775 89.0898 112.957 88.1381 113.213C85.6189 113.853 83.1441 114.656 80.7296 115.618C80.0287 115.909 79.3448 116.188 78.6951 116.507C78.0577 116.765 77.4668 117.125 76.9456 117.573C76.5286 117.974 76.2384 118.488 76.1107 119.052C75.9831 119.617 76.0237 120.206 76.2275 120.747C76.4151 121.152 76.6484 121.535 76.9228 121.887C77.1507 122.189 77.3559 122.457 77.5383 122.696C77.7206 122.936 77.8289 123.095 77.9144 123.221C77.9999 123.346 78.0056 123.397 78.0056 123.397Z" fill="#EB996E"/>
<path d="M90.2238 116.319C90.1414 116.38 90.0537 116.434 89.9617 116.479L89.2266 116.866C88.6054 117.191 87.7392 117.624 86.7533 118.052C85.9128 118.416 85.0528 118.734 84.1774 119.003C83.8412 119.106 83.5676 119.18 83.3739 119.226C83.2772 119.257 83.1781 119.28 83.0775 119.294C83.1672 119.245 83.2631 119.209 83.3625 119.186L84.1489 118.924C84.8157 118.696 85.7218 118.354 86.7077 117.943C87.6936 117.533 88.5598 117.094 89.1924 116.804L89.9389 116.45C90.0293 116.397 90.1247 116.353 90.2238 116.319Z" fill="#EB996E"/>
<path d="M124.103 90.9025C124.103 90.9025 123.91 91.1646 123.653 91.6946C123.3 92.4488 123.121 93.2726 123.129 94.1052C123.136 95.3412 123.573 96.5361 124.365 97.4846C124.857 98.0224 125.376 98.5341 125.921 99.0176C126.519 99.5432 126.992 100.195 127.306 100.927C127.567 101.688 127.543 102.518 127.238 103.263C126.956 103.946 126.571 104.582 126.098 105.15C125.665 105.719 125.203 106.181 124.787 106.637C124.4 107.061 124.045 107.515 123.727 107.993C123.37 108.437 123.115 108.954 122.98 109.508C122.846 110.061 122.834 110.638 122.946 111.196C122.946 111.196 122.946 111.116 122.889 110.968C122.836 110.744 122.813 110.514 122.821 110.284C122.876 109.442 123.167 108.633 123.659 107.948C123.974 107.463 124.327 107.004 124.713 106.574C125.129 106.107 125.585 105.628 126.012 105.081C126.473 104.521 126.848 103.895 127.124 103.223C127.421 102.496 127.443 101.686 127.186 100.944C126.882 100.228 126.418 99.5905 125.83 99.0803C125.287 98.591 124.769 98.0736 124.28 97.5302C123.472 96.5639 123.034 95.342 123.043 94.0824C123.043 93.2382 123.238 92.4054 123.613 91.649C123.748 91.3826 123.913 91.1322 124.103 90.9025Z" fill="#263238"/>
<path d="M129.329 90.6289C129.329 90.6289 129.135 90.8968 128.879 91.4268C128.528 92.1795 128.351 93.0013 128.36 93.8317C128.361 95.0705 128.799 96.2692 129.597 97.2168C130.041 97.7411 130.6 98.2198 131.147 98.7498C131.748 99.2701 132.222 99.9212 132.532 100.653C132.791 101.416 132.769 102.247 132.469 102.995C132.185 103.677 131.8 104.313 131.329 104.882C130.891 105.452 130.429 105.907 130.019 106.369C129.631 106.793 129.275 107.244 128.953 107.72C128.47 108.39 128.175 109.177 128.098 109.999C128.091 110.303 128.118 110.607 128.178 110.905C128.152 110.831 128.131 110.755 128.115 110.677C128.064 110.455 128.043 110.227 128.053 109.999C128.108 109.157 128.396 108.346 128.885 107.657C129.204 107.176 129.558 106.718 129.945 106.289C130.355 105.822 130.811 105.343 131.244 104.796C131.703 104.236 132.076 103.609 132.349 102.938C132.647 102.212 132.671 101.402 132.418 100.659C132.11 99.9463 131.646 99.3115 131.062 98.8011C130.492 98.2711 129.962 97.7924 129.506 97.251C128.697 96.2827 128.259 95.0588 128.269 93.7975C128.272 92.9555 128.467 92.1252 128.839 91.3698C128.977 91.1069 129.141 90.8587 129.329 90.6289Z" fill="#263238"/>
<path d="M88.3888 174.601C88.3546 174.601 88.5198 170.287 88.7592 164.97C88.9985 159.653 89.2151 155.345 89.2436 155.351C89.2721 155.356 89.1125 159.659 88.8789 164.976C88.6452 170.293 88.4173 174.601 88.3888 174.601Z" fill="#EB996E"/>
<path d="M78.4785 133.94C77.3907 132.894 76.3596 131.791 75.3898 130.635C76.4776 131.681 77.5087 132.784 78.4785 133.94Z" fill="#EB996E"/>
<path d="M145.007 216.311L140.368 255.211H205.124L194.336 227.543L209.181 224.021C209.181 224.021 208.184 221.235 207.226 221.172C206.269 221.109 145.007 216.311 145.007 216.311Z" fill="#455A64"/>
<path d="M111.76 141.947C111.76 141.947 136.874 125.682 143.479 123.466C147.543 122.104 159.744 121.887 159.744 121.887L136.874 160.97L123.875 167.295L111.76 141.947Z" fill="#FF725E"/>
<path d="M237.652 169.278C229.982 150.757 217.57 129.831 213.894 126.247C210.218 122.662 187.679 119.767 187.679 119.767L158.125 122.975L134.43 155.459L144.807 206.116L144.454 206.788C143.678 208.282 143.321 209.959 143.422 211.639C143.522 213.32 144.076 214.942 145.024 216.334L207.232 221.2L207.312 173.233L237.652 169.278Z" fill="#FF725E"/>
<path d="M198.724 196.428C198.635 196.573 198.534 196.71 198.422 196.838C198.205 197.094 197.914 197.493 197.481 197.978C196.297 199.331 195.011 200.592 193.635 201.75C189.079 205.603 183.676 208.323 177.868 209.686C172.059 211.049 166.01 211.017 160.217 209.592C158.468 209.166 156.754 208.609 155.088 207.928C154.518 207.694 154.051 207.466 153.743 207.358C153.585 207.292 153.432 207.214 153.287 207.124C153.452 207.172 153.614 207.231 153.771 207.301C154.085 207.421 154.529 207.632 155.128 207.842C161.498 210.316 168.413 211.042 175.158 209.946C181.903 208.85 188.233 205.971 193.492 201.608C194.875 200.47 196.177 199.238 197.39 197.921C197.835 197.465 198.137 197.077 198.37 196.832C198.478 196.689 198.596 196.554 198.724 196.428Z" fill="#263238"/>
<path d="M207.295 171.427C207.243 171.277 207.204 171.122 207.181 170.965L206.907 169.643C206.674 168.458 206.337 166.794 205.95 164.759C205.169 160.605 204.098 154.912 202.918 148.626C202.77 147.839 202.627 147.059 202.485 146.289C202.343 145.52 202.166 144.768 202.086 144.01C201.89 142.56 201.836 141.094 201.927 139.633C202.02 138.314 202.22 137.005 202.525 135.718C202.812 134.603 203.18 133.509 203.625 132.447C204.271 130.911 205.108 129.461 206.115 128.133C206.457 127.649 206.776 127.318 206.97 127.079C207.062 126.951 207.172 126.835 207.295 126.737C207.295 126.737 207.204 126.868 207.016 127.119C206.827 127.369 206.531 127.688 206.212 128.201C205.245 129.543 204.442 130.995 203.818 132.527C203.388 133.582 203.036 134.668 202.764 135.775C202.469 137.049 202.279 138.345 202.194 139.65C202.113 141.092 202.172 142.539 202.371 143.97C202.451 144.722 202.639 145.463 202.77 146.249C202.901 147.036 203.055 147.794 203.203 148.586C204.343 154.855 205.391 160.554 206.149 164.736C206.514 166.782 206.805 168.452 207.01 169.637L207.232 170.971C207.265 171.121 207.286 171.273 207.295 171.427Z" fill="#263238"/>
<path d="M137.484 170.338C137.389 170.068 137.319 169.789 137.273 169.506C137.159 168.908 137.005 168.133 136.817 167.227C136.447 165.289 135.951 162.599 135.421 159.63C134.891 156.661 134.43 153.966 134.11 152.017C133.962 151.076 133.837 150.307 133.746 149.703C133.691 149.421 133.659 149.135 133.649 148.848C133.745 149.118 133.815 149.397 133.86 149.68C133.974 150.25 134.128 151.048 134.316 151.96C134.686 153.903 135.182 156.593 135.712 159.562C136.242 162.531 136.703 165.221 137.023 167.176C137.171 168.11 137.296 168.885 137.387 169.489C137.442 169.769 137.474 170.053 137.484 170.338Z" fill="#263238"/>
<path d="M209.432 143.719C209.597 142.616 209.858 141.529 210.212 140.471C210.475 139.387 210.834 138.329 211.284 137.308C211.115 138.411 210.852 139.498 210.497 140.556C210.239 141.641 209.882 142.699 209.432 143.719Z" fill="#FAFAFA"/>
<path d="M212.766 155.151C211.89 154.758 211.057 154.274 210.281 153.709C209.451 153.218 208.672 152.645 207.956 152C209.661 152.88 211.273 153.932 212.766 155.14V155.151Z" fill="#FAFAFA"/>
<path d="M219.057 150.734C218.924 149.749 218.947 148.749 219.126 147.771C219.207 146.78 219.439 145.808 219.815 144.887C219.901 144.887 219.627 146.198 219.422 147.811C219.217 149.424 219.143 150.734 219.057 150.734Z" fill="#FAFAFA"/>
<path d="M220.317 161.79C219.927 160.927 219.592 160.04 219.314 159.135C218.936 158.264 218.611 157.371 218.339 156.462C218.882 157.251 219.303 158.117 219.587 159.032C219.964 159.911 220.21 160.84 220.317 161.79Z" fill="#FAFAFA"/>
<path d="M215.438 168.629C213.883 167.468 212.447 166.155 211.153 164.708C212.712 165.865 214.148 167.179 215.438 168.629Z" fill="#FAFAFA"/>
<path d="M230.375 160.65C230.438 160.713 229.543 161.705 228.665 163.084C227.788 164.463 227.206 165.677 227.127 165.643C227.381 164.662 227.818 163.737 228.415 162.919C228.923 162.049 229.588 161.28 230.375 160.65Z" fill="#FAFAFA"/>
<path d="M214.088 132.606C213.472 132.251 212.909 131.81 212.418 131.296C211.858 130.855 211.361 130.339 210.942 129.763C211.557 130.124 212.121 130.567 212.617 131.079C213.176 131.518 213.671 132.032 214.088 132.606Z" fill="#FAFAFA"/>
<path d="M195.715 133.051C194.344 134.085 192.861 134.961 191.292 135.661C191.945 135.103 192.66 134.623 193.424 134.231C194.14 133.751 194.908 133.355 195.715 133.051Z" fill="#FAFAFA"/>
<path d="M192.501 149.139C191.898 148.543 191.366 147.879 190.916 147.161C190.387 146.5 189.937 145.779 189.577 145.013C190.711 146.268 191.692 147.653 192.501 149.139Z" fill="#FAFAFA"/>
<path d="M199.459 154.382C198.805 156.131 197.749 157.703 196.376 158.969C196.313 158.907 197.1 157.955 197.943 156.69C198.786 155.425 199.379 154.336 199.459 154.382Z" fill="#FAFAFA"/>
<path d="M182.55 155.556C182.465 155.584 181.981 154.308 181.2 152.843C180.419 151.378 179.616 150.273 179.684 150.216C181.077 151.721 182.058 153.56 182.533 155.556H182.55Z" fill="#FAFAFA"/>
<path d="M186.078 166.497C186.394 165.566 186.802 164.669 187.298 163.819C187.7 162.921 188.195 162.067 188.774 161.272C188.458 162.204 188.051 163.103 187.56 163.956C187.153 164.851 186.657 165.702 186.078 166.497Z" fill="#FAFAFA"/>
<path d="M197.88 174.704C197.549 173.692 197.308 172.652 197.162 171.598C196.925 170.563 196.784 169.508 196.74 168.446C197.073 169.456 197.314 170.493 197.459 171.547C197.696 172.584 197.837 173.641 197.88 174.704Z" fill="#FAFAFA"/>
<path d="M176.447 168.691C175.717 168.104 175.03 167.466 174.39 166.782C173.68 166.168 173.01 165.51 172.384 164.811C173.202 165.285 173.947 165.876 174.595 166.566C175.309 167.184 175.933 167.899 176.447 168.691Z" fill="#FAFAFA"/>
<path d="M166.941 152.849C165.659 154.264 164.232 155.542 162.684 156.661C163.967 155.246 165.393 153.968 166.941 152.849Z" fill="#FAFAFA"/>
<path d="M163.203 148.233C162.571 147.533 162.013 146.769 161.539 145.953C160.985 145.183 160.512 144.358 160.126 143.491C161.315 144.967 162.346 146.564 163.203 148.255V148.233Z" fill="#FAFAFA"/>
<path d="M148.705 156.188C147.939 155.333 147.247 154.414 146.636 153.441C145.947 152.527 145.339 151.555 144.818 150.535C145.584 151.387 146.275 152.304 146.881 153.276C147.575 154.191 148.185 155.165 148.705 156.188Z" fill="#FAFAFA"/>
<path d="M152.996 165.7C152.996 165.785 151.127 165.814 148.831 165.933C146.534 166.053 144.676 166.201 144.665 166.116C145.055 165.991 145.459 165.914 145.867 165.888C146.619 165.791 147.662 165.694 148.813 165.637C149.965 165.58 151.013 165.574 151.771 165.591C152.182 165.574 152.594 165.611 152.996 165.7Z" fill="#FAFAFA"/>
<path d="M154.051 138.112C154.13 138.112 153.806 139.542 153.509 141.297C153.213 143.052 153.053 144.494 152.968 144.489C152.938 142.315 153.305 140.154 154.051 138.112Z" fill="#FAFAFA"/>
<path d="M148.278 129.751C148.92 128.731 149.644 127.765 150.443 126.862C151.166 125.896 151.966 124.99 152.837 124.155C152.194 125.175 151.47 126.142 150.671 127.044C149.949 128.011 149.148 128.916 148.278 129.751Z" fill="#FAFAFA"/>
<path d="M142.488 137.547C142.425 137.604 141.08 136.237 139.302 134.698C137.524 133.159 136.008 131.963 136.059 131.894C136.443 132.069 136.802 132.296 137.125 132.567C137.758 133.022 138.607 133.706 139.501 134.476C140.396 135.245 141.154 136.026 141.69 136.596C141.997 136.876 142.265 137.196 142.488 137.547Z" fill="#FAFAFA"/>
<path d="M132.851 140.26C132.891 140.34 131.198 141.246 129.323 142.671C127.449 144.095 126.115 145.474 126.047 145.412C126.272 145.052 126.546 144.726 126.862 144.443C127.571 143.717 128.333 143.045 129.141 142.431C129.952 141.818 130.807 141.265 131.7 140.779C132.057 140.552 132.445 140.377 132.851 140.26Z" fill="#FAFAFA"/>
<path d="M119.92 148.261C119.841 148.261 119.852 146.717 119.778 144.813C119.704 142.91 119.578 141.394 119.664 141.394C119.936 142.514 120.073 143.661 120.074 144.813C120.166 145.965 120.114 147.123 119.92 148.261Z" fill="#FAFAFA"/>
<path d="M129.455 156.695C127.62 155.384 125.903 153.913 124.326 152.302C125.268 152.918 126.155 153.616 126.976 154.387C127.871 155.078 128.701 155.851 129.455 156.695Z" fill="#FAFAFA"/>
<path d="M144.528 144.614C143.461 144.997 142.362 145.287 141.245 145.48C140.148 145.772 139.026 145.963 137.894 146.05C138.963 145.667 140.064 145.377 141.183 145.184C142.279 144.895 143.398 144.704 144.528 144.614Z" fill="#FAFAFA"/>
<path d="M174.088 148.523C173.578 148.2 173.123 147.796 172.743 147.327C172.288 146.924 171.902 146.448 171.603 145.919C172.112 146.246 172.566 146.652 172.948 147.121C173.402 147.524 173.787 147.997 174.088 148.523Z" fill="#FAFAFA"/>
<path d="M187.349 140.824C186.853 141.472 186.279 142.056 185.639 142.562C185.062 143.143 184.417 143.652 183.719 144.078C184.795 142.849 186.018 141.756 187.36 140.824H187.349Z" fill="#FAFAFA"/>
<path d="M198.69 143.964C198.61 143.964 198.94 142.654 199.259 141.041C199.579 139.428 199.681 138.1 199.767 138.106C199.85 139.106 199.777 140.114 199.55 141.092C199.412 142.088 199.122 143.057 198.69 143.964Z" fill="#FAFAFA"/>
<path d="M140.425 162.297C140.064 161.899 139.78 161.437 139.587 160.935C139.309 160.476 139.116 159.97 139.017 159.442C139.384 159.839 139.674 160.301 139.872 160.804C140.143 161.265 140.33 161.771 140.425 162.297Z" fill="#FAFAFA"/>
<path d="M160.844 163.095C160.479 162.508 160.197 161.873 160.006 161.209C159.721 160.577 159.529 159.907 159.436 159.22C159.801 159.806 160.081 160.441 160.268 161.106C160.556 161.738 160.75 162.408 160.844 163.095Z" fill="#FAFAFA"/>
<path d="M171.979 157.488C171.916 157.431 172.247 156.952 172.72 156.416C173.193 155.88 173.62 155.487 173.683 155.539C173.746 155.59 173.409 156.074 172.942 156.61C172.475 157.146 172.07 157.539 171.979 157.488Z" fill="#FAFAFA"/>
<path d="M149.098 193.179C148.525 192.39 148.093 191.507 147.822 190.569C147.462 189.662 147.269 188.696 147.252 187.72C147.337 187.72 147.6 188.974 148.118 190.472C148.637 191.971 149.178 193.134 149.098 193.179Z" fill="#FAFAFA"/>
<path d="M157.789 193.829C157.931 192.984 158.168 192.159 158.496 191.367C158.728 190.545 159.057 189.753 159.476 189.008C159.335 189.85 159.099 190.674 158.775 191.464C158.538 192.288 158.208 193.081 157.789 193.829Z" fill="#FAFAFA"/>
<path d="M155.253 203.705C154.705 202.984 154.239 202.204 153.863 201.38C153.394 200.599 153.012 199.77 152.723 198.907C153.268 199.631 153.732 200.413 154.108 201.237C154.574 202.018 154.958 202.845 155.253 203.705Z" fill="#FAFAFA"/>
<path d="M171.352 200.867C170.367 200.716 169.408 200.428 168.503 200.012C167.566 199.688 166.681 199.229 165.876 198.65C166.809 198.961 167.725 199.324 168.617 199.739C169.551 200.058 170.464 200.435 171.352 200.867Z" fill="#FAFAFA"/>
<path d="M166.143 195.009C166.104 194.935 167.112 194.279 168.252 193.345C169.392 192.41 170.247 191.561 170.309 191.635C169.227 193.095 167.794 194.259 166.143 195.02V195.009Z" fill="#FAFAFA"/>
<path d="M179.559 199.174C179.507 199.243 178.47 198.605 177.108 197.944C175.746 197.282 174.583 196.912 174.606 196.832C176.437 197.155 178.148 197.964 179.559 199.174Z" fill="#FAFAFA"/>
<path d="M182.419 204.531C182.362 204.469 183.143 203.671 184.004 202.594C184.864 201.517 185.468 200.582 185.542 200.628C185.243 201.421 184.798 202.151 184.232 202.782C183.743 203.474 183.128 204.067 182.419 204.531Z" fill="#FAFAFA"/>
<path d="M153.156 214.88C152.208 214.428 151.306 213.886 150.46 213.262C149.557 212.724 148.708 212.1 147.924 211.398C148.872 211.851 149.775 212.393 150.62 213.017C151.523 213.555 152.372 214.179 153.156 214.88Z" fill="#FAFAFA"/>
<path d="M164.058 212.191C164.092 212.27 162.918 212.789 161.59 213.655C160.262 214.521 159.311 215.365 159.248 215.319C160.513 213.831 162.185 212.744 164.058 212.191Z" fill="#FAFAFA"/>
<path d="M173.809 216.499C173.327 216.019 172.915 215.474 172.583 214.88C172.172 214.339 171.843 213.74 171.609 213.102C172.506 214.128 173.247 215.28 173.809 216.522V216.499Z" fill="#FAFAFA"/>
<path d="M185.559 212.618C185.594 212.698 184.488 213.222 183.234 214.037C181.981 214.852 181.04 215.633 180.955 215.57C181.538 214.851 182.249 214.247 183.052 213.786C183.806 213.241 184.657 212.845 185.559 212.618Z" fill="#FAFAFA"/>
<path d="M190.99 207.518C190.911 207.557 190.574 206.948 189.936 206.452C189.298 205.956 188.665 205.705 188.688 205.626C189.223 205.618 189.74 205.823 190.124 206.195C190.577 206.504 190.888 206.98 190.99 207.518Z" fill="#FAFAFA"/>
<path d="M197.145 213.387C196.548 213.86 195.893 214.255 195.196 214.561C194.541 214.95 193.841 215.257 193.11 215.473C193.705 214.997 194.361 214.602 195.059 214.299C195.712 213.905 196.413 213.599 197.145 213.387Z" fill="#FAFAFA"/>
<path d="M202.69 216.499C202.605 216.499 202.918 215.194 203.123 213.587C203.328 211.98 203.351 210.652 203.442 210.652C203.599 211.636 203.589 212.64 203.414 213.621C203.338 214.614 203.093 215.588 202.69 216.499Z" fill="#FAFAFA"/>
<path d="M201.812 206.606C201.761 206.68 200.61 205.899 199.031 205.278C197.453 204.657 196.085 204.434 196.097 204.343C197.146 204.35 198.182 204.575 199.14 205.004C200.134 205.342 201.046 205.888 201.812 206.606Z" fill="#FAFAFA"/>
<path d="M189.457 176.772C187.749 175.897 186.136 174.849 184.642 173.644C186.348 174.522 187.961 175.57 189.457 176.772Z" fill="#FAFAFA"/>
<g opacity="0.3">
<path d="M160.553 209.717C160.371 209.362 160.315 208.955 160.395 208.563C160.475 208.172 160.685 207.819 160.992 207.563C161.624 207.069 162.386 206.77 163.186 206.703C167.266 206.064 171.637 207.17 175.461 205.614C178.026 204.566 180.02 202.428 181.525 200.115C183.029 197.801 184.22 195.271 185.708 192.934C187.041 190.831 188.745 188.825 191.07 187.925C193.395 187.025 196.421 187.6 197.681 189.749C198.94 191.897 198.097 194.536 196.917 196.656C193.583 202.639 187.577 206.874 181.029 208.891C174.481 210.908 167.431 210.857 160.673 209.66" fill="black"/>
</g>
<path d="M241.362 192.091L235.002 169.398L208.822 172.783L211.888 184.819L172.731 174.373L164.092 185.839L223.531 213.906C226.255 215.067 229.269 215.37 232.17 214.773C235.072 214.176 237.722 212.709 239.767 210.566C243.414 206.714 242.975 197.157 241.362 192.091Z" fill="#FFBE9D"/>
<path d="M133.147 170.338C132.27 170.105 131.21 169.917 130.56 170.544C130.303 170.846 130.152 171.224 130.13 171.62C130.107 172.015 130.214 172.408 130.435 172.738C130.839 173.416 131.147 173.513 132.218 173.877L142.642 176.242L146.631 173.119L133.147 170.338Z" fill="#EB996E"/>
<path d="M165.682 186.386C152.945 183.269 141.126 179.149 128.543 176.755C127.916 176.636 127.209 176.47 126.879 175.918C126.428 175.165 127.01 174.145 127.813 173.803C128.652 173.544 129.546 173.514 130.401 173.718C137.133 174.654 143.977 174.423 150.631 173.034C154.945 172.128 159.18 170.754 163.533 170.185C167.887 169.615 169.061 171.894 172.731 174.345" fill="#FFBE9D"/>
<path d="M172.731 174.373C171.672 172.514 170.131 170.976 168.27 169.919C166.41 168.862 164.299 168.325 162.16 168.367C159.556 168.452 157.065 169.398 154.552 170.076C152.039 170.754 149.292 171.176 146.864 170.219C145.936 169.854 145.069 169.29 144.078 169.153C143.086 169.016 141.901 169.501 141.724 170.481C141.587 171.222 142.066 171.928 142.585 172.481C144.408 174.407 150.215 176.55 154.791 176.322" fill="#FFBE9D"/>
<path d="M154.792 176.328C154.792 176.282 154.091 176.328 152.848 176.202C151.101 176.018 149.38 175.636 147.719 175.063C146.565 174.68 145.453 174.184 144.397 173.581C143.814 173.259 143.277 172.861 142.801 172.396C142.547 172.179 142.34 171.914 142.191 171.615C142.042 171.316 141.955 170.991 141.935 170.658C141.996 170.325 142.165 170.022 142.415 169.794C142.665 169.567 142.983 169.427 143.32 169.398C144.07 169.311 144.828 169.465 145.485 169.837C146.228 170.223 147.01 170.53 147.816 170.754C148.659 170.955 149.526 171.04 150.392 171.005C153.92 170.885 156.957 169.421 159.841 168.868C161.196 168.561 162.593 168.488 163.972 168.652C165.171 168.812 166.34 169.152 167.437 169.66C169.036 170.402 170.455 171.481 171.597 172.823C172.395 173.78 172.737 174.402 172.737 174.379C172.685 174.217 172.61 174.064 172.515 173.923C172.283 173.496 172.012 173.092 171.706 172.715C170.596 171.297 169.174 170.154 167.551 169.375C166.429 168.831 165.23 168.463 163.995 168.287C162.577 168.101 161.136 168.16 159.738 168.463C156.786 169.033 153.754 170.447 150.358 170.561C149.53 170.591 148.702 170.51 147.896 170.321C147.117 170.105 146.363 169.809 145.645 169.438C144.904 169.035 144.054 168.875 143.217 168.982C142.798 169.053 142.405 169.234 142.077 169.506C141.912 169.649 141.776 169.823 141.678 170.019C141.58 170.215 141.522 170.428 141.508 170.646C141.524 171.037 141.621 171.421 141.793 171.773C141.965 172.125 142.207 172.438 142.505 172.692C143.015 173.18 143.59 173.594 144.215 173.923C145.301 174.527 146.447 175.018 147.634 175.388C149.333 175.943 151.094 176.285 152.877 176.408C153.361 176.437 153.846 176.437 154.33 176.408C154.486 176.4 154.641 176.373 154.792 176.328Z" fill="#EB996E"/>
<path d="M223.548 188.438C223.548 188.438 223.502 188.438 223.417 188.398L223.046 188.267L221.701 187.777C220.562 187.366 218.977 186.825 217.216 186.272C215.456 185.72 213.843 185.264 212.657 184.956L211.273 184.597L210.891 184.5C210.805 184.5 210.76 184.46 210.765 184.454H210.896L211.284 184.528C211.614 184.597 212.093 184.705 212.68 184.848C213.86 185.144 215.473 185.583 217.239 186.136C219.006 186.688 220.584 187.247 221.719 187.674C222.288 187.891 222.739 188.073 223.052 188.204L223.411 188.358L223.548 188.438Z" fill="#EB996E"/>
<path d="M174.35 141.633C177.939 141.479 181.329 139.945 183.814 137.351C186.299 134.757 187.685 131.303 187.685 127.711V111.185L188.597 58.3793L187.417 55.4045L159.607 46.6283C151.059 45.9616 145.314 57.7182 145.012 66.2893C144.676 75.8177 144.642 87.4604 145.964 94.5212C148.62 108.723 159.607 110.239 159.607 110.239L159.824 127.905C159.849 129.768 160.249 131.608 160.998 133.314C161.747 135.02 162.831 136.559 164.185 137.839C165.54 139.119 167.137 140.115 168.883 140.766C170.629 141.418 172.488 141.713 174.35 141.633Z" fill="#FFBE9D"/>
<path d="M148.705 75.5498C148.714 76.0276 148.909 76.4831 149.248 76.8194C149.588 77.1557 150.045 77.3463 150.523 77.3507C150.757 77.3614 150.99 77.3254 151.21 77.2449C151.429 77.1644 151.631 77.041 151.802 76.8818C151.973 76.7227 152.111 76.531 152.208 76.3179C152.304 76.1049 152.357 75.8748 152.364 75.641C152.353 75.1642 152.158 74.7102 151.818 74.3751C151.479 74.04 151.023 73.8502 150.546 73.8459C150.312 73.8336 150.079 73.8683 149.859 73.9479C149.639 74.0274 149.437 74.1503 149.266 74.3091C149.094 74.468 148.956 74.6596 148.86 74.8727C148.763 75.0858 148.711 75.3161 148.705 75.5498Z" fill="#263238"/>
<path d="M147.697 72.1818C147.93 72.4155 149.292 71.3498 151.258 71.2985C153.224 71.2472 154.678 72.1932 154.906 71.9482C155.008 71.8399 154.763 71.4125 154.119 70.9737C153.253 70.4056 152.231 70.1208 151.196 70.1588C150.164 70.178 149.165 70.5275 148.346 71.156C147.776 71.6404 147.565 72.0792 147.697 72.1818Z" fill="#263238"/>
<path d="M167.791 75.5498C167.799 76.0266 167.994 76.4813 168.332 76.8174C168.67 77.1536 169.126 77.3448 169.603 77.3507C169.837 77.3629 170.071 77.3281 170.291 77.2481C170.511 77.1682 170.713 77.0449 170.885 76.8854C171.057 76.726 171.195 76.5337 171.291 76.3199C171.386 76.1061 171.438 75.8753 171.443 75.641C171.436 75.1643 171.242 74.7094 170.903 74.3739C170.565 74.0383 170.108 73.8488 169.631 73.8459C169.398 73.8336 169.164 73.8683 168.944 73.9479C168.724 74.0274 168.523 74.1503 168.351 74.3091C168.179 74.468 168.041 74.6596 167.945 74.8727C167.849 75.0858 167.796 75.3161 167.791 75.5498Z" fill="#263238"/>
<path d="M167.061 72.0166C167.295 72.2445 168.657 71.1845 170.623 71.1332C172.589 71.0819 174.042 72.0279 174.27 71.7829C174.367 71.6746 174.128 71.2472 173.484 70.8084C172.617 70.241 171.595 69.9563 170.56 69.9935C169.528 70.0127 168.529 70.3622 167.711 70.9908C167.141 71.4752 166.941 71.9083 167.061 72.0166Z" fill="#263238"/>
<path d="M160.319 86.8107C160.319 86.7024 159.094 86.5201 157.105 86.3206C156.604 86.2864 156.125 86.2009 156.028 85.859C155.97 85.3408 156.074 84.8175 156.324 84.3602C156.763 83.1293 157.219 81.8413 157.704 80.4907C159.618 74.98 160.992 70.4608 160.769 70.381C160.547 70.3012 158.809 74.7121 156.9 80.2172L155.578 84.1095C155.407 84.6794 155.093 85.3404 155.373 86.087C155.45 86.2631 155.567 86.419 155.714 86.5426C155.861 86.6661 156.035 86.754 156.222 86.7993C156.501 86.8697 156.789 86.9023 157.077 86.8962C159.077 86.9475 160.314 86.9247 160.319 86.8107Z" fill="#263238"/>
<path d="M159.601 110.147C166.322 110.064 172.887 108.117 178.567 104.523C178.567 104.523 174.202 114.45 159.886 113.51L159.601 110.147Z" fill="#EB996E"/>
<path d="M166.337 64.3402C166.548 64.8702 168.509 64.5625 170.822 64.779C173.136 64.9956 175.028 65.5712 175.324 65.0811C175.45 64.8474 175.113 64.3516 174.344 63.8558C173.322 63.2479 172.175 62.8806 170.991 62.7818C169.806 62.6831 168.614 62.8555 167.506 63.2859C166.662 63.6279 166.252 64.061 166.337 64.3402Z" fill="#263238"/>
<path d="M148.266 66.4602C148.625 66.899 149.976 66.3975 151.6 66.3292C153.224 66.2608 154.621 66.5514 154.923 66.0727C155.054 65.839 154.826 65.4002 154.21 64.9956C153.393 64.4935 152.437 64.2622 151.48 64.3346C150.523 64.3789 149.603 64.7194 148.848 65.3091C148.283 65.7821 148.135 66.2494 148.266 66.4602Z" fill="#263238"/>
<path d="M154.7 47.6028C155.362 52.068 157.131 56.2964 159.846 59.902C162.562 63.5076 166.138 66.3755 170.247 68.2439C170 67.1042 169.757 65.9644 169.517 64.8246C173.039 70.6488 180.516 75.527 185.326 77.4988C186.813 78.1086 188.717 77.5615 190.067 76.6953C191.959 75.4871 192.073 72.7745 191.674 70.5634C190.438 63.645 186.334 57.4561 180.989 52.897C175.643 48.3379 169.124 45.2948 162.382 43.2546C160.599 42.7132 159.624 42.3428 157.857 42.9412C156.091 43.5395 153.777 45.5512 154.632 47.2039" fill="#263238"/>
<path d="M183.069 67.0187C187.149 81.6362 181.753 97.8835 183.143 112.997C183.451 116.365 184.676 120.263 187.514 122.115C188.916 123.027 189.224 122.451 190.837 122.77C194.957 123.568 198.849 121.841 202.964 122.639C206.679 123.363 212.589 125.489 214.931 122.508C217.273 119.528 214.572 116.023 212.281 113.105C209.99 110.187 206.913 107.691 205.785 104.152C204.565 100.351 205.881 96.2708 206.451 92.3158C208.4 78.8153 203.602 65.1381 195.624 54.0653C192.843 50.2072 188.648 46.5542 184.876 43.6535C181.103 40.7528 172.572 38.308 167.819 38.5246C163.066 38.7411 155.15 42.5137 153.213 47.8422" fill="#263238"/>
<path d="M167.289 58.6756C167.261 58.7269 167.574 58.9378 168.178 59.2854L169.255 59.9123L168.338 59.0346C166.104 56.9555 164.197 54.5522 162.679 51.9054C159.829 46.9987 159.396 42.2972 159.168 42.3542C159.094 42.3542 159.094 43.5281 159.47 45.3803C159.979 47.7817 160.86 50.089 162.08 52.2189C163.597 54.9512 165.661 57.3413 168.144 59.2398L168.309 58.9891C167.665 58.7497 167.312 58.6414 167.289 58.6756Z" fill="#455A64"/>
<path d="M193.156 119.493C193.183 119.181 193.183 118.866 193.156 118.553C193.156 117.938 193.156 117.032 193.184 115.863C193.374 112.574 193.858 109.309 194.632 106.107C195.51 102.027 196.963 97.2453 197.835 91.7402C198.287 88.8553 198.426 85.9301 198.251 83.0153C198.098 79.8497 197.305 76.7479 195.92 73.8972C194.479 71.0682 192.368 68.6345 189.771 66.8078C187.32 64.9899 184.762 63.588 182.425 62.1291C178.265 59.5701 174.437 56.5076 171.027 53.011C168.741 50.6438 166.645 48.0999 164.759 45.403C164.092 44.4456 163.585 43.6934 163.248 43.1748C163.086 42.9007 162.895 42.6446 162.679 42.4112C162.798 42.7027 162.943 42.983 163.112 43.2489C163.402 43.8188 163.881 44.571 164.514 45.5284C166.334 48.3017 168.395 50.9086 170.674 53.3187C174.059 56.9044 177.889 60.0415 182.072 62.6534C184.42 64.1351 186.961 65.5484 189.349 67.3321C191.853 69.0971 193.891 71.4439 195.287 74.1707C196.628 76.9338 197.403 79.937 197.567 83.0039C197.745 85.8717 197.621 88.7502 197.196 91.592C196.37 97.0287 194.962 101.85 194.142 105.947C193.403 109.183 192.989 112.483 192.905 115.801C192.891 116.702 192.925 117.604 193.008 118.502C193.018 118.837 193.067 119.17 193.156 119.493Z" fill="#455A64"/>
<path d="M145.001 54.3958C144.494 58.0821 144.197 61.7942 144.112 65.5142C146.995 63.1891 149.908 60.8127 152.09 57.8094C154.273 54.8061 155.635 51.0506 155.065 47.3863C152.977 48.0004 151.087 49.1539 149.586 50.7306C148.086 52.3073 147.027 54.2516 146.517 56.3676" fill="#263238"/>
<path d="M159.698 93.4897C160.188 92.5323 160.319 92.2873 161.151 91.8314C161.782 91.6721 162.433 91.6068 163.083 91.6376C163.716 91.6718 164.138 92.2987 164.371 92.8857C164.753 93.7344 164.808 94.6945 164.525 95.5812C164.195 96.4417 161.208 97.4732 159.601 95.2108" fill="#EB996E"/>
<path d="M162.154 96.7096C162.318 96.6991 162.481 96.6991 162.644 96.7096C163.077 96.689 163.494 96.5402 163.841 96.2822C164.314 95.8525 164.619 95.2688 164.702 94.6352C164.768 94.2584 164.739 93.8709 164.617 93.5084C164.494 93.1458 164.282 92.82 164.001 92.5608C163.385 92.0772 162.618 91.8251 161.835 91.8485C161.52 91.8607 161.212 91.9396 160.93 92.0801C160.648 92.2206 160.399 92.4194 160.2 92.6634C159.934 93.0078 159.76 93.4135 159.692 93.8431C159.68 94.0075 159.65 94.1699 159.601 94.3275C159.555 94.1645 159.545 93.9932 159.573 93.826C159.604 93.3622 159.764 92.9163 160.034 92.538C160.229 92.2784 160.473 92.0597 160.752 91.8941C161.079 91.7034 161.446 91.594 161.824 91.5749C162.232 91.5593 162.641 91.6113 163.032 91.7288C163.453 91.8448 163.842 92.0532 164.172 92.3386C164.518 92.6383 164.767 93.0355 164.884 93.4784C165.001 93.8762 165.022 94.2959 164.947 94.7036C164.876 95.064 164.751 95.4117 164.576 95.7351C164.396 96.0914 164.114 96.3863 163.766 96.583C163.418 96.7797 163.02 96.8693 162.622 96.8407C162.458 96.8357 162.297 96.7907 162.154 96.7096Z" fill="#263238"/>
<path d="M168.93 82.1719C168.982 82.2346 168.794 82.4511 168.463 82.491C168.132 82.5309 167.893 82.3542 167.939 82.2859C167.984 82.2175 168.189 82.2232 168.429 82.1947C168.668 82.1662 168.879 82.1035 168.93 82.1719Z" fill="#EB996E"/>
<path d="M172.07 82.0066C171.991 82.0066 171.882 81.8527 171.837 81.6305C171.791 81.4082 171.808 81.2088 171.888 81.1917C171.968 81.1746 172.076 81.3398 172.127 81.5678C172.179 81.7957 172.173 82.0066 172.07 82.0066Z" fill="#EB996E"/>
<path d="M175.883 80.7415C175.883 80.8213 175.666 80.8441 175.444 80.7985C175.222 80.7529 175.051 80.6389 175.068 80.5591C175.085 80.4793 175.285 80.4565 175.507 80.5078C175.729 80.5591 175.9 80.6617 175.883 80.7415Z" fill="#EB996E"/>
<path d="M170.56 85.3404C170.48 85.3404 170.412 85.1581 170.412 84.9358C170.412 84.7136 170.48 84.5312 170.56 84.5312C170.64 84.5312 170.708 84.7079 170.708 84.9358C170.708 85.1638 170.64 85.3404 170.56 85.3404Z" fill="#EB996E"/>
<path d="M173.985 83.8074C173.905 83.8074 173.837 83.7675 173.837 83.7162C173.837 83.665 173.905 83.6251 173.985 83.6251C174.065 83.6251 174.133 83.665 174.133 83.7162C174.133 83.7675 174.071 83.8074 173.985 83.8074Z" fill="#EB996E"/>
<path d="M149.457 82.7247C149.457 82.8044 149.172 82.8614 148.888 82.7247C148.603 82.5879 148.426 82.3314 148.489 82.2802C148.551 82.2289 148.756 82.3428 149.007 82.4568C149.258 82.5708 149.463 82.6392 149.457 82.7247Z" fill="#EB996E"/>
<path d="M152.005 82.189C151.963 82.1735 151.928 82.1422 151.909 82.1017C151.89 82.0612 151.887 82.0147 151.902 81.9724C151.931 81.8755 152.01 81.8071 152.09 81.8299C152.132 81.8454 152.167 81.8767 152.186 81.9172C152.205 81.9577 152.207 82.0042 152.193 82.0465C152.19 82.0683 152.183 82.0893 152.172 82.1083C152.161 82.1273 152.146 82.1439 152.129 82.1572C152.111 82.1705 152.091 82.1801 152.07 82.1856C152.049 82.191 152.026 82.1922 152.005 82.189Z" fill="#EB996E"/>
<path d="M150.643 85.8818C150.563 85.8818 150.478 85.7564 150.455 85.5855C150.432 85.4145 150.455 85.2607 150.557 85.2493C150.66 85.2379 150.723 85.3689 150.751 85.5456C150.78 85.7223 150.728 85.8704 150.643 85.8818Z" fill="#EB996E"/>
<path d="M147.292 85.6994C147.223 85.6539 147.252 85.5 147.349 85.3461C147.446 85.1922 147.588 85.1125 147.657 85.1581C147.725 85.2036 147.696 85.3632 147.6 85.5114C147.503 85.6595 147.36 85.745 147.292 85.6994Z" fill="#EB996E"/>
<path d="M134.515 213.256V239.699C134.515 241.919 133.984 244.108 132.968 246.082C131.953 248.056 130.48 249.76 128.674 251.051C126.308 252.738 123.475 253.644 120.57 253.644H85.2373C82.5918 253.646 80.0004 252.895 77.7661 251.478L76.5465 250.692C74.5639 249.436 72.9301 247.7 71.7965 245.645C70.6629 243.59 70.0661 241.282 70.0613 238.935V213.256H134.515Z" fill="#263238"/>
<path d="M70.0613 219.622H52.1499V222.733L62.4933 224.323C64.0063 224.534 65.4415 225.125 66.6651 226.039C67.8887 226.954 68.8609 228.163 69.4914 229.555C69.854 230.364 70.0479 231.239 70.0613 232.125C70.0613 232.125 73.7086 232.068 74.3297 227.708C74.3297 227.623 74.3582 227.538 74.3696 227.452C74.5752 225.876 74.2789 224.276 73.5229 222.879C72.7668 221.481 71.5895 220.357 70.1582 219.667L70.0613 219.622Z" fill="#455A64"/>
<path d="M134.515 219.645H152.438V222.768L142.094 224.358C140.576 224.567 139.136 225.158 137.909 226.076C136.682 226.994 135.709 228.209 135.079 229.606C134.717 230.415 134.523 231.29 134.509 232.176C134.509 232.176 130.868 232.119 130.241 227.765L130.207 227.503C130.001 225.928 130.297 224.327 131.053 222.93C131.81 221.532 132.987 220.409 134.418 219.719L134.515 219.645Z" fill="#455A64"/>
<path d="M134.515 219.645C134.432 219.706 134.344 219.762 134.253 219.81C133.993 219.95 133.741 220.106 133.501 220.277C132.584 220.918 131.819 221.753 131.261 222.722C130.389 224.218 130.068 225.972 130.355 227.68C130.473 228.724 130.887 229.712 131.546 230.529C132.303 231.398 133.372 231.932 134.521 232.017L134.384 232.148C134.398 231.094 134.658 230.058 135.142 229.122C135.632 228.12 136.315 227.225 137.154 226.489C138.034 225.712 139.053 225.107 140.157 224.705C141.299 224.333 142.478 224.083 143.673 223.959L152.432 222.619L152.312 222.756C152.312 221.691 152.312 220.653 152.312 219.645L152.449 219.781L139.541 219.73L135.854 219.69H134.868C134.755 219.703 134.64 219.703 134.526 219.69H134.863H135.837L139.513 219.65L152.449 219.599H152.586V219.736C152.586 220.745 152.586 221.782 152.586 222.847V222.973H152.466L143.707 224.323C142.532 224.447 141.372 224.693 140.248 225.059C139.184 225.442 138.202 226.022 137.353 226.768C136.554 227.442 135.903 228.273 135.439 229.209C134.975 230.145 134.709 231.167 134.658 232.211V232.353H134.526C133.92 232.31 133.328 232.146 132.786 231.871C132.244 231.596 131.762 231.216 131.369 230.752C130.687 229.899 130.263 228.869 130.15 227.783C129.872 226.029 130.221 224.233 131.136 222.711C131.715 221.731 132.513 220.899 133.466 220.277C133.716 220.113 133.977 219.966 134.247 219.838C134.33 219.765 134.42 219.7 134.515 219.645Z" fill="#263238"/>
<path d="M133.364 213.963C133.319 213.998 133.269 214.027 133.216 214.048L132.771 214.271L131.061 215.108L129.813 215.707C129.352 215.918 128.833 216.111 128.286 216.334C127.186 216.767 125.955 217.32 124.531 217.753L122.314 218.493C121.539 218.744 120.712 218.932 119.869 219.166C118.188 219.662 116.347 219.998 114.421 220.397C110.21 221.126 105.946 221.507 101.673 221.537C97.399 221.51 93.135 221.129 88.9244 220.397C86.9982 220.004 85.1575 219.662 83.4763 219.172C82.6329 218.932 81.8065 218.744 81.0315 218.493L78.8147 217.758C77.39 217.325 76.159 216.772 75.0534 216.345C74.4836 216.117 73.9935 215.923 73.5319 215.718L72.2838 215.12L70.5742 214.282L70.1297 214.06L69.9872 213.974C70.0431 213.985 70.097 214.004 70.1467 214.031L70.6027 214.225C71.0187 214.419 71.6056 214.681 72.3465 215.011L73.6059 215.581C74.0675 215.781 74.5861 215.963 75.1332 216.185C76.2388 216.596 77.4697 217.137 78.9001 217.553L81.117 218.271C81.8863 218.516 82.7127 218.699 83.5504 218.927C85.2315 219.411 87.0666 219.736 88.9928 220.123C93.1877 220.843 97.4337 221.224 101.69 221.263C105.946 221.225 110.192 220.843 114.387 220.123C116.313 219.736 118.148 219.405 119.829 218.921C120.667 218.693 121.493 218.511 122.263 218.266L124.479 217.547C125.904 217.131 127.141 216.59 128.241 216.174C128.81 215.957 129.306 215.769 129.774 215.576L131.027 215.006L132.748 214.219L133.204 214.02L133.364 213.963Z" fill="#455A64"/>
<path d="M133.404 216.151C133.404 216.151 133.358 216.185 133.256 216.237L132.811 216.465L131.101 217.302L129.853 217.872C129.392 218.077 128.873 218.271 128.332 218.499C127.226 218.932 125.995 219.485 124.571 219.918L122.354 220.653C121.579 220.904 120.758 221.092 119.915 221.331C118.205 221.827 116.387 222.164 114.461 222.562C110.252 223.291 105.99 223.673 101.718 223.702C97.4448 223.673 93.1809 223.292 88.97 222.562C87.0381 222.164 85.1974 221.827 83.5162 221.331C82.6728 221.098 81.8465 220.91 81.0714 220.659L78.8546 219.924C77.4299 219.491 76.1989 218.938 75.0991 218.505C74.5292 218.283 74.0334 218.089 73.5718 217.878L72.3408 217.314L70.6312 216.476L70.1867 216.254C70.0841 216.203 70.0328 216.174 70.0385 216.168L70.1981 216.225L70.654 216.425L72.3978 217.211L73.6573 217.781C74.1246 217.975 74.6375 218.163 75.1902 218.379C76.2901 218.796 77.5268 219.331 78.9515 219.753L81.1683 220.465C81.9377 220.71 82.764 220.893 83.6074 221.121C85.2829 221.605 87.1236 221.936 89.0441 222.323C93.2409 223.043 97.4888 223.424 101.747 223.463C106.003 223.427 110.249 223.046 114.444 222.323C116.364 221.936 118.199 221.611 119.88 221.126C120.718 220.898 121.544 220.716 122.32 220.471L124.531 219.753C125.961 219.331 127.192 218.796 128.298 218.379C128.867 218.163 129.363 217.975 129.825 217.775L131.084 217.206L132.828 216.419L133.284 216.225L133.404 216.151Z" fill="#455A64"/>
<path d="M121.248 254.464C125.95 253.735 128.366 251.171 129.734 246.611C130.236 245.205 130.274 243.675 129.842 242.246C129.341 240.856 128.007 239.687 126.525 239.744C124.736 239.818 123.459 241.511 122.73 243.164C122 244.816 121.459 246.646 120.051 247.757C118.644 248.868 116.005 248.538 115.703 246.765C115.7 246.296 115.651 245.828 115.555 245.369C115.156 244.298 113.458 244.355 112.706 245.227C111.953 246.099 111.931 247.352 111.965 248.498C111.999 249.643 112.039 250.874 111.395 251.826C110.443 253.245 108.454 253.404 106.745 253.416L96.6464 253.513C96.6464 253.513 98.356 254.35 102.881 254.35C109.024 254.333 121.248 254.464 121.248 254.464Z" fill="#FF725E"/>
<path d="M101.718 253.496C98.3389 253.553 94.7544 253.558 91.8708 251.786C90.0471 250.675 88.5199 248.885 86.4113 248.566C85.8066 248.44 85.1766 248.551 84.6504 248.874C84.3938 249.04 84.2029 249.29 84.1104 249.581C84.0179 249.872 84.0294 250.186 84.1432 250.47C83.2086 250.116 82.4962 249.37 81.6927 248.76C80.8891 248.15 79.8462 247.711 78.9116 248.07C78.4353 248.3 78.0537 248.689 77.8322 249.169C77.6108 249.649 77.5632 250.192 77.6978 250.703C77.8572 251.207 78.1221 251.671 78.4749 252.064C78.8277 252.457 79.2602 252.77 79.7437 252.983C80.7146 253.404 81.7416 253.683 82.7925 253.809L107.109 254.271C107.104 253.655 101.718 253.496 101.718 253.496Z" fill="#FF725E"/>
<path d="M82.7412 255.211L82.7925 253.872L121.248 254.464V255.211H82.7412Z" fill="#455A64"/>
<path d="M118.792 239.699C118.337 238.937 118.08 238.073 118.044 237.186C118.008 236.299 118.195 235.418 118.587 234.621C118.934 233.932 119.647 233.248 120.382 233.481C121.117 233.715 121.265 234.621 121.248 235.351C121.208 236.941 120.063 240.155 118.792 239.687" fill="#FF725E"/>
<path d="M96.2759 191.994C96.3101 191.994 96.2417 192.267 96.2759 192.758C96.3419 193.448 96.5249 194.123 96.8173 194.752C97.2808 195.695 97.6418 196.684 97.8943 197.704C98.0733 199.017 97.743 200.349 96.9711 201.425C96.2417 202.594 95.3698 203.557 94.7999 204.566C94.5221 205.036 94.3057 205.539 94.1559 206.064C94.0409 206.52 94.0081 206.993 94.059 207.461C94.1158 208.148 94.4029 208.797 94.874 209.301C95.0643 209.468 95.2641 209.624 95.4723 209.769C95.4723 209.769 95.404 209.769 95.2786 209.706C95.1038 209.621 94.9409 209.514 94.7942 209.387C94.2656 208.885 93.9307 208.213 93.8482 207.489C93.7778 206.993 93.8029 206.488 93.9223 206.002C94.0649 205.447 94.2815 204.914 94.5662 204.417C95.1361 203.374 96.0137 202.394 96.7204 201.255C97.4561 200.239 97.7817 198.983 97.6322 197.738C97.3896 196.737 97.0538 195.76 96.6292 194.821C96.3459 194.166 96.1893 193.464 96.1676 192.752C96.1671 192.56 96.1882 192.369 96.2303 192.182C96.2353 192.117 96.2507 192.054 96.2759 191.994Z" fill="#263238"/>
<path d="M102.271 191.481C102.305 191.481 102.231 191.755 102.271 192.245C102.34 192.935 102.523 193.609 102.813 194.239C103.276 195.183 103.638 196.172 103.895 197.191C104.07 198.505 103.738 199.835 102.966 200.913C102.237 202.081 101.371 203.044 100.795 204.053C100.518 204.522 100.303 205.026 100.157 205.551C100.037 206.009 100.002 206.484 100.054 206.953C100.114 207.639 100.4 208.285 100.869 208.788C101.06 208.955 101.259 209.112 101.468 209.256C101.468 209.256 101.399 209.256 101.28 209.193C101.101 209.112 100.936 209.005 100.789 208.874C100.263 208.372 99.9296 207.7 99.8491 206.976C99.7796 206.48 99.8028 205.976 99.9175 205.489C100.059 204.937 100.276 204.408 100.561 203.916C101.131 202.873 102.003 201.893 102.716 200.759C103.45 199.74 103.773 198.483 103.622 197.237C103.384 196.234 103.048 195.256 102.619 194.319C102.335 193.665 102.179 192.963 102.157 192.25C102.157 192.059 102.178 191.868 102.22 191.681C102.237 191.544 102.26 191.475 102.271 191.481Z" fill="#263238"/>
<path d="M108.243 190.98C108.278 190.98 108.209 191.253 108.243 191.743C108.322 192.437 108.515 193.112 108.813 193.743C109.275 194.685 109.636 195.672 109.89 196.69C110.065 198.003 109.733 199.334 108.961 200.411C108.232 201.579 107.366 202.542 106.796 203.551C106.517 204.021 106.3 204.524 106.152 205.05C106.034 205.507 106.001 205.983 106.055 206.452C106.113 207.137 106.398 207.782 106.864 208.287C107.056 208.455 107.257 208.611 107.468 208.754C107.468 208.754 107.394 208.754 107.275 208.691C107.097 208.608 106.933 208.501 106.785 208.372C106.258 207.87 105.925 207.198 105.844 206.475C105.775 205.979 105.798 205.475 105.913 204.987C106.058 204.439 106.275 203.912 106.557 203.42C107.126 202.371 108.004 201.391 108.711 200.257C109.444 199.238 109.769 197.982 109.623 196.735C109.381 195.733 109.043 194.756 108.614 193.818C108.333 193.163 108.177 192.461 108.152 191.749C108.153 191.557 108.176 191.366 108.221 191.179C108.209 191.042 108.243 190.98 108.243 190.98Z" fill="#263238"/>
<path d="M25.0406 255.416C25.0406 255.416 17.3586 217.889 25.0406 197.037H33.5888C33.5888 197.037 40.114 219.029 33.5888 255.416H25.0406Z" fill="#FF725E"/>
<g opacity="0.7">
<path d="M25.0406 255.416C25.0406 255.416 17.3586 217.889 25.0406 197.037H33.5888C33.5888 197.037 40.114 219.029 33.5888 255.416H25.0406Z" fill="white"/>
</g>
<path d="M31.3379 177.559C32.7516 175.139 34.7684 173.128 37.1915 171.721C39.6146 170.313 42.3612 169.558 45.1632 169.529C43.8405 172.174 41.782 174.38 39.2353 175.882C36.6886 177.384 33.7622 178.119 30.8079 177.998" fill="#455A64"/>
<path d="M33.452 161.916C31.5118 159.89 30.1305 157.396 29.4432 154.677C28.7559 151.958 28.7863 149.107 29.5313 146.403C31.7112 148.401 33.267 150.986 34.0112 153.847C34.7554 156.709 34.6562 159.725 33.7256 162.531" fill="#455A64"/>
<path d="M25.7701 162.138C23.475 161.211 21.4631 159.699 19.9352 157.752C18.4072 155.805 17.4166 153.492 17.0623 151.042C19.5425 151.859 21.7301 153.382 23.3561 155.425C24.9821 157.468 25.9757 159.942 26.2146 162.542" fill="#455A64"/>
<path d="M23.6672 145.474C23.278 143.713 23.3579 141.88 23.8989 140.159C24.4399 138.438 25.4231 136.889 26.7503 135.667C27.2821 137.498 27.2671 139.444 26.7072 141.267C26.1473 143.089 25.0669 144.708 23.5988 145.925" fill="#455A64"/>
<path d="M29.5996 192.205C29.7774 190.409 30.423 188.692 31.4719 187.224C32.5209 185.756 33.9366 184.589 35.5777 183.839C35.5155 185.742 34.8981 187.586 33.8016 189.144C32.705 190.701 31.1771 191.904 29.4059 192.604" fill="#455A64"/>
<path d="M20.2992 129.768C20.2992 129.768 21.8379 135.519 23.633 144.962L24.3169 148.671C24.5505 149.959 24.75 151.31 24.9779 152.706C25.4509 155.487 25.8385 158.485 26.2716 161.631C27.0523 167.939 27.7305 174.892 28.1465 182.215C28.5625 189.538 28.6195 196.53 28.5283 202.884C28.4428 206.064 28.3858 209.085 28.2206 211.906C28.1408 213.313 28.0952 214.681 28.004 215.986C27.9128 217.291 27.8159 218.55 27.7248 219.747C26.9725 229.333 26.0721 235.208 26.0721 235.208C26.0721 235.208 26.0721 235.117 26.0721 234.935L26.1804 234.165C26.2602 233.447 26.3684 232.416 26.5109 231.088C26.585 230.421 26.6705 229.68 26.756 228.865C26.8414 228.05 26.9155 227.156 27.001 226.221C27.1606 224.318 27.3885 222.158 27.531 219.764C27.6108 218.56 27.6963 217.306 27.7875 216.003C27.8729 214.692 27.9128 213.33 27.9812 211.923C28.1408 209.102 28.1864 206.087 28.2662 202.913C28.3402 196.564 28.2661 189.578 27.8615 182.26C27.4569 174.943 26.7731 168.013 26.0094 161.693C25.5877 158.548 25.2116 155.556 24.7443 152.769C24.522 151.378 24.3283 150.028 24.1003 148.734C23.8724 147.441 23.6501 146.21 23.4392 145.024C23.0346 142.659 22.573 140.534 22.2083 138.664C22.0145 137.73 21.8379 136.858 21.6783 136.06C21.5187 135.262 21.3364 134.533 21.1882 133.877L20.5271 130.857C20.4531 130.521 20.4018 130.287 20.3562 130.071C20.3106 129.854 20.2992 129.768 20.2992 129.768Z" fill="#263238"/>
<path d="M39.1908 143.446C39.1824 143.516 39.1652 143.585 39.1395 143.651C39.0939 143.793 39.0369 143.987 38.9572 144.221L38.2391 146.443L37.7091 148.05C37.5325 148.62 37.3387 149.281 37.1392 149.971C36.7346 151.356 36.2331 152.917 35.7772 154.678C35.5436 155.556 35.2928 156.473 35.0364 157.431C34.7799 158.388 34.5577 159.391 34.3012 160.428C33.7769 162.497 33.3267 164.731 32.8309 167.079C31.9077 171.786 31.0586 176.995 30.4374 182.5C29.8163 188.005 29.5427 193.276 29.4173 198.075C29.4173 200.474 29.3432 202.753 29.4173 204.885C29.4173 205.95 29.4173 206.982 29.48 207.973C29.5427 208.965 29.5655 209.911 29.6054 210.823C29.6624 212.641 29.8163 214.276 29.9074 215.712C29.9644 216.43 30.01 217.103 30.0556 217.718C30.1012 218.334 30.1753 218.892 30.2209 219.428C30.3177 220.425 30.3918 221.206 30.4431 221.753C30.4431 222.01 30.4773 222.209 30.4944 222.363C30.4995 222.431 30.4995 222.5 30.4944 222.568C30.4751 222.501 30.4617 222.432 30.4545 222.363C30.4545 222.215 30.4089 222.015 30.3804 221.765C30.312 221.195 30.2209 220.437 30.1012 219.439L29.9131 217.758C29.8561 217.143 29.7992 216.476 29.7365 215.758C29.6282 214.316 29.4629 212.681 29.3888 210.863C29.3432 209.957 29.292 209.005 29.2464 208.013C29.2008 207.022 29.1894 205.99 29.1609 204.925C29.0925 202.788 29.1609 200.502 29.1609 198.086C29.2692 193.282 29.5655 187.999 30.1582 182.483C30.7509 176.966 31.6399 171.752 32.5802 167.039C33.0874 164.691 33.5433 162.48 34.079 160.388C34.3411 159.351 34.5691 158.342 34.8312 157.385C35.0934 156.428 35.3498 155.516 35.5949 154.638C36.0622 152.883 36.5751 151.321 36.9968 149.942C37.2133 149.253 37.4185 148.614 37.6008 148.022C37.7832 147.429 37.9884 146.882 38.1707 146.426C38.507 145.48 38.7406 144.716 38.9458 144.215C39.037 143.976 39.1053 143.788 39.1566 143.645C39.1601 143.577 39.1716 143.511 39.1908 143.446Z" fill="#263238"/>
<path d="M37.9484 147.691C36.0792 146.118 35.9653 143.189 36.8828 140.927C37.8003 138.664 39.527 136.846 40.9688 134.875C42.4106 132.903 43.6359 130.543 43.3053 128.127C43.1661 127.569 43.1255 126.99 43.1857 126.418C43.3053 125.848 43.8695 125.318 44.4223 125.489C44.9751 125.66 45.1119 126.218 45.2145 126.72C45.5339 128.28 45.6298 129.879 45.4994 131.467C45.8733 130.543 46.4523 129.716 47.1928 129.048C47.9332 128.381 48.8157 127.891 49.7735 127.614C49.9794 128.544 49.9474 129.51 49.6804 130.423C49.4134 131.337 48.9201 132.168 48.2462 132.84C49.4829 132.327 50.805 131.797 52.1214 132.054C53.4379 132.31 54.6118 133.701 54.116 134.949C53.5461 136.362 51.6256 136.39 50.1268 136.658C48.4498 136.964 46.9355 137.855 45.8527 139.172C44.4964 140.824 43.955 142.984 42.8551 144.819C41.7553 146.654 39.6524 148.238 37.6236 147.589" fill="#FF725E"/>
<path d="M21.9063 136.1C23.9749 134.812 24.4992 131.923 23.9066 129.558C23.3139 127.193 21.8664 125.147 20.7152 122.993C19.564 120.838 18.6807 118.331 19.3475 115.983C19.5681 115.439 19.6897 114.86 19.7065 114.273C19.6666 113.703 19.1879 113.088 18.6123 113.179C18.0368 113.27 17.8259 113.806 17.6549 114.319C17.1189 115.818 16.8003 117.386 16.7089 118.975C16.4694 118.007 16.0123 117.105 15.3725 116.34C14.7326 115.575 13.9267 114.966 13.0161 114.558C12.6816 115.45 12.5778 116.412 12.7143 117.354C12.8508 118.297 13.2232 119.189 13.7968 119.949C12.6571 119.266 11.4033 118.559 10.0698 118.627C8.73628 118.696 7.37426 119.909 7.68769 121.209C8.04102 122.691 9.96722 122.993 11.3976 123.488C13.0137 124.03 14.3876 125.124 15.2785 126.577C16.3841 128.401 16.6235 130.618 17.4498 132.589C18.2761 134.561 20.1396 136.436 22.2425 136.066" fill="#FF725E"/>
<path d="M19.4614 164.315C19.5474 164.429 19.6182 164.553 19.6723 164.685L20.2422 165.768C20.4815 166.241 20.7665 166.822 21.0685 167.512C21.3705 168.201 21.7467 168.971 22.1 169.848C22.4533 170.726 22.8579 171.678 23.2397 172.726C23.6216 173.775 24.0148 174.892 24.4194 176.077C25.183 178.459 25.9296 181.115 26.5622 183.93C27.1947 186.745 27.6221 189.475 27.9299 191.96C28.0667 193.202 28.2091 194.387 28.2775 195.499C28.3459 196.61 28.42 197.641 28.4599 198.587C28.4998 199.533 28.5055 200.388 28.5169 201.141C28.5283 201.893 28.5169 202.537 28.5169 203.067C28.5169 203.597 28.4599 203.961 28.4599 204.286C28.4599 204.611 28.4599 204.708 28.4257 204.708C28.4099 204.566 28.4099 204.423 28.4257 204.281C28.4257 203.979 28.4257 203.574 28.4257 203.067C28.4257 202.56 28.4257 201.893 28.3915 201.141C28.3573 200.388 28.3573 199.539 28.2889 198.599C28.2205 197.659 28.1806 196.621 28.0724 195.516C27.9641 194.41 27.8444 193.236 27.7019 191.994C27.3771 189.521 26.9269 186.808 26.3171 184.016C25.7073 181.223 24.9437 178.562 24.1971 176.18C23.8039 174.994 23.4392 173.866 23.0574 172.829C22.6756 171.792 22.3051 170.823 21.9518 169.945C21.5985 169.068 21.2623 168.287 20.9716 167.597C20.681 166.908 20.4017 166.315 20.1909 165.836L19.6894 164.725C19.6005 164.596 19.5242 164.458 19.4614 164.315Z" fill="#263238"/>
<path d="M20.8748 169.803C21.9063 168.965 22.0146 167.369 21.5131 166.133C21.0116 164.896 20.1112 163.887 19.3418 162.799C18.5725 161.71 17.9285 160.417 18.128 159.106C18.2079 158.799 18.2349 158.481 18.2078 158.166C18.1451 157.852 17.843 157.562 17.541 157.647C17.239 157.733 17.1592 158.04 17.0965 158.314C16.9095 159.161 16.8442 160.03 16.9027 160.895C16.7095 160.39 16.4038 159.935 16.0089 159.565C15.6141 159.194 15.1402 158.919 14.6232 158.758C14.5046 159.261 14.5145 159.786 14.6519 160.284C14.7893 160.782 15.0499 161.237 15.4096 161.608C14.766 161.254 14.0337 161.093 13.3011 161.146C12.5887 161.272 11.9334 162.024 12.1613 162.702C12.4577 163.483 13.5062 163.511 14.3212 163.671C15.2309 163.857 16.0471 164.355 16.6292 165.078C17.3529 165.99 17.6322 167.17 18.2135 168.179C18.7947 169.187 19.9231 170.076 21.0629 169.734" fill="#FF725E"/>
</svg>
