<svg width="203" height="199" viewBox="0 0 203 199" fill="none" xmlns="http://www.w3.org/2000/svg">
<path d="M202.21 133.549H124.636V88.6588H202.21V133.549ZM125.11 133.076H201.737V89.1321H125.11V133.076Z" fill="#E0E0E0"/>
<path d="M186.207 112.595H135.026V114.095H186.207V112.595Z" fill="#F0F0F0"/>
<path d="M189.733 118.19H135.026V119.827H189.733V118.19Z" fill="#F0F0F0"/>
<path d="M189.733 123.851H135.026V125.488H189.733V123.851Z" fill="#F0F0F0"/>
<path d="M152.913 104.468H135.026V108.363H152.913V104.468Z" fill="#F0F0F0"/>
<path d="M201.973 88.8955H124.887V96.0427H201.973V88.8955Z" fill="#E0E0E0"/>
<path d="M196.042 94.973C195.943 94.8783 196.937 93.6808 198.258 92.2987C199.578 90.9166 200.738 89.8705 200.833 89.9605C200.927 90.0504 199.938 91.2527 198.617 92.6395C197.297 94.0263 196.137 95.0677 196.042 94.973Z" fill="white"/>
<path d="M200.842 94.973C200.747 95.0677 199.592 94.0264 198.267 92.6395C196.942 91.2527 195.952 90.0551 196.052 89.9605C196.151 89.8658 197.301 90.9071 198.627 92.2987C199.952 93.6903 200.932 94.8783 200.842 94.973Z" fill="white"/>
<path d="M106.754 0H29.6681V44.4217H106.754V0Z" fill="#E6E6E6"/>
<path d="M90.9923 23.7042H39.8115V25.2046H90.9923V23.7042Z" fill="#F0F0F0"/>
<path d="M94.5186 29.2989H39.8115V30.9366H94.5186V29.2989Z" fill="#F0F0F0"/>
<path d="M94.5186 34.9599H39.8115V36.5976H94.5186V34.9599Z" fill="#F0F0F0"/>
<path d="M57.6985 15.5772H39.8115V19.4727H57.6985V15.5772Z" fill="#F0F0F0"/>
<path d="M106.754 0H29.6681V7.14723H106.754V0Z" fill="#E0E0E0"/>
<path d="M100.563 6.04438C100.464 5.95445 101.458 4.7522 102.778 3.37009C104.099 1.98798 105.258 0.941925 105.353 1.03659C105.448 1.13126 104.458 2.32877 103.138 3.71088C101.817 5.093 100.658 6.12958 100.563 6.04438Z" fill="white"/>
<path d="M105.353 6.04438C105.258 6.13904 104.103 5.09773 102.778 3.71088C101.453 2.32403 100.464 1.13125 100.563 1.03658C100.662 0.941919 101.813 1.98324 103.138 3.37008C104.463 4.75693 105.452 5.95445 105.353 6.04438Z" fill="white"/>
<path d="M77.5593 82.5198H0V37.6248H77.5593V82.5198ZM0.473327 82.0465H77.086V38.0981H0.473327V82.0465Z" fill="#E0E0E0"/>
<path d="M61.5609 61.5656H10.3801V63.066H61.5609V61.5656Z" fill="#F0F0F0"/>
<path d="M65.0872 67.1603H10.3801V68.798H65.0872V67.1603Z" fill="#F0F0F0"/>
<path d="M65.0872 72.8213H10.3801V74.459H65.0872V72.8213Z" fill="#F0F0F0"/>
<path d="M28.2671 53.4386H10.3801V57.334H28.2671V53.4386Z" fill="#F0F0F0"/>
<path d="M77.3226 37.8614H0.236664V45.0086H77.3226V37.8614Z" fill="#E0E0E0"/>
<path d="M167.07 92.8051H76.0494V174.293H167.07V92.8051Z" fill="#E6E6E6"/>
<path d="M80.6264 67.1367H9.32452V141.217H80.6264V67.1367Z" fill="#F0F0F0"/>
<path d="M80.6264 67.1367H9.32452V75.2069H80.6264V67.1367Z" fill="#E0E0E0"/>
<path d="M15.2127 71.0889C15.1998 71.3816 15.1011 71.664 14.9291 71.9011C14.757 72.1382 14.5192 72.3195 14.245 72.4226C13.9708 72.5258 13.6724 72.5461 13.3867 72.4811C13.1011 72.4161 12.8408 72.2687 12.6382 72.0571C12.4356 71.8455 12.2996 71.5791 12.247 71.2909C12.1945 71.0027 12.2277 70.7055 12.3426 70.436C12.4575 70.1665 12.649 69.9368 12.8933 69.7751C13.1377 69.6135 13.4241 69.5272 13.717 69.5269C14.1221 69.5369 14.5068 69.7067 14.7871 69.9994C15.0673 70.2921 15.2204 70.6838 15.2127 71.0889Z" fill="white"/>
<path d="M21.2855 71.0889C21.2734 71.383 21.1752 71.667 21.0029 71.9056C20.8307 72.1442 20.5921 72.3269 20.3168 72.4309C20.0415 72.535 19.7417 72.5558 19.4547 72.4907C19.1677 72.4257 18.9062 72.2777 18.7026 72.0651C18.4991 71.8526 18.3625 71.5849 18.31 71.2953C18.2575 71.0058 18.2912 70.7071 18.4071 70.4366C18.523 70.1661 18.7158 69.9356 18.9617 69.7739C19.2075 69.6121 19.4955 69.5263 19.7898 69.527C20.1949 69.5369 20.5796 69.7067 20.8599 69.9994C21.1401 70.2921 21.2931 70.6838 21.2855 71.0889Z" fill="white"/>
<path d="M27.3583 71.0889C27.3462 71.383 27.2479 71.667 27.0757 71.9056C26.9034 72.1442 26.6648 72.3269 26.3896 72.4309C26.1143 72.535 25.8145 72.5558 25.5275 72.4907C25.2405 72.4257 24.9789 72.2777 24.7754 72.0651C24.5718 71.8526 24.4353 71.5849 24.3828 71.2953C24.3302 71.0058 24.364 70.7071 24.4798 70.4366C24.5957 70.1661 24.7886 69.9356 25.0344 69.7739C25.2803 69.6121 25.5683 69.5263 25.8626 69.527C26.2677 69.5369 26.6524 69.7067 26.9326 69.9994C27.2129 70.2921 27.3659 70.6838 27.3583 71.0889Z" fill="white"/>
<path d="M192.029 16.202H101.008V106.92H192.029V16.202Z" fill="#F0F0F0"/>
<path d="M192.029 16.202H101.008V26.8282H192.029V16.202Z" fill="#E0E0E0"/>
<path d="M108.761 21.4086C108.744 21.7949 108.615 22.1678 108.388 22.481C108.161 22.7942 107.847 23.0338 107.485 23.1702C107.124 23.3067 106.73 23.3338 106.353 23.2483C105.975 23.1628 105.632 22.9684 105.364 22.6893C105.097 22.4101 104.917 22.0586 104.847 21.6782C104.778 21.2978 104.822 20.9054 104.973 20.5497C105.125 20.194 105.378 19.8906 105.7 19.6772C106.023 19.4639 106.401 19.35 106.787 19.3496C107.322 19.362 107.829 19.5857 108.199 19.9715C108.569 20.3574 108.771 20.8741 108.761 21.4086Z" fill="white"/>
<path d="M116.178 20.017C116.44 20.3019 116.613 20.6578 116.675 21.0403C116.736 21.4227 116.684 21.8148 116.524 22.1677C116.365 22.5207 116.105 22.8188 115.777 23.025C115.449 23.2311 115.067 23.3363 114.68 23.3272C114.293 23.3182 113.917 23.1954 113.599 22.9741C113.281 22.7529 113.035 22.443 112.892 22.083C112.749 21.723 112.715 21.3289 112.794 20.9497C112.873 20.5706 113.063 20.2231 113.338 19.9507C113.724 19.5836 114.239 19.3845 114.772 19.3969C115.304 19.4093 115.81 19.6323 116.178 20.017Z" fill="white"/>
<path d="M124.75 21.4086C124.733 21.7949 124.603 22.1678 124.377 22.481C124.15 22.7942 123.836 23.0338 123.474 23.1702C123.113 23.3067 122.719 23.3338 122.342 23.2483C121.964 23.1628 121.621 22.9684 121.353 22.6893C121.086 22.4101 120.906 22.0586 120.836 21.6782C120.767 21.2978 120.811 20.9054 120.962 20.5497C121.114 20.194 121.367 19.8906 121.689 19.6772C122.011 19.4639 122.39 19.35 122.776 19.3496C123.311 19.362 123.818 19.5857 124.188 19.9715C124.558 20.3574 124.76 20.8741 124.75 21.4086Z" fill="white"/>
<path d="M172.367 198.362C172.367 198.428 139.499 198.485 98.9679 198.485C58.4369 198.485 25.5549 198.428 25.5549 198.362C25.5549 198.295 58.418 198.239 98.9679 198.239C139.518 198.239 172.367 198.3 172.367 198.362Z" fill="#263238"/>
<path d="M140.341 140.417C133.028 135.31 131.372 125.829 131.661 117.305C131.708 115.885 131.552 114.379 132.229 113.135C132.905 111.89 134.486 111.033 135.76 111.629C136.815 112.126 137.274 113.357 137.866 114.375C138.655 115.73 139.812 116.834 141.203 117.56C142.107 118.033 143.229 118.317 144.123 117.825C145.354 117.148 145.496 115.459 145.486 114.039C145.486 111.397 145.471 108.759 145.439 106.125C145.354 104.71 145.498 103.29 145.865 101.921C146.305 100.577 147.285 99.3323 148.625 98.9537C149.964 98.575 151.635 99.356 151.938 100.738C151.99 101.323 152.004 101.912 151.98 102.499C152.018 103.091 152.293 103.739 152.847 103.919C153.4 104.099 153.978 103.687 154.404 103.27C155.862 101.85 156.856 99.9997 157.779 98.1727C158.702 96.3456 159.606 94.4665 160.931 92.9093C162.256 91.352 164.088 90.1167 166.138 89.9983C168.187 89.88 170.322 91.139 170.833 93.127C171.344 95.115 170.185 97.1456 168.94 98.7596C167.061 101.155 164.847 103.268 162.365 105.031C161.881 105.296 161.494 105.709 161.262 106.21C160.955 107.156 161.849 108.103 162.782 108.401C163.837 108.752 164.983 108.643 166.095 108.775C167.207 108.908 168.391 109.391 168.812 110.432C169.389 111.88 168.178 113.395 166.99 114.389C164.604 116.377 161.895 117.941 158.981 119.013C157.94 119.392 156.846 119.728 156.004 120.457C155.161 121.186 154.659 122.459 155.166 123.458C155.672 124.457 156.974 124.774 158.067 124.57C159.161 124.367 160.131 123.78 161.172 123.387C163.118 122.653 165.626 122.786 166.852 124.466C167.232 125.045 167.473 125.704 167.555 126.391C167.637 127.079 167.558 127.776 167.326 128.428C166.852 129.725 166.123 130.915 165.182 131.926C162.081 135.63 158.053 138.444 153.509 140.081C148.998 141.643 144.819 142.069 140.337 140.427" fill="#FF725E"/>
<path d="M168.75 91.1674C168.75 91.1674 168.708 91.2148 168.613 91.3L168.192 91.6739C167.823 92.0052 167.278 92.488 166.592 93.127C164.646 94.9338 162.839 96.8847 161.187 98.9631C160.131 100.274 159.038 101.76 157.873 103.375C156.709 104.989 155.507 106.73 154.314 108.581C153.042 110.533 151.878 112.552 150.825 114.63C150.276 115.714 149.794 116.845 149.297 118L147.829 121.527C145.895 125.968 144.211 130.515 142.784 135.144C141.634 138.932 140.842 142.819 140.417 146.755C140.142 149.411 140.097 152.086 140.285 154.749C140.36 155.696 140.431 156.42 140.498 156.913C140.526 157.149 140.545 157.339 140.564 157.476V157.67C140.543 157.608 140.529 157.545 140.521 157.481C140.498 157.343 140.469 157.159 140.431 156.922C140.346 156.449 140.256 155.701 140.171 154.754C139.943 152.086 139.958 149.402 140.218 146.736C140.617 142.784 141.392 138.878 142.533 135.073C143.948 130.431 145.628 125.873 147.564 121.422L149.069 117.91C149.566 116.76 150.054 115.619 150.608 114.531C151.667 112.446 152.841 110.422 154.125 108.468C155.336 106.574 156.557 104.861 157.708 103.261C158.858 101.661 159.97 100.165 161.021 98.859C162.69 96.786 164.522 94.8488 166.497 93.0655C167.198 92.436 167.756 91.9626 168.135 91.6455L168.575 91.2905C168.629 91.2435 168.688 91.2023 168.75 91.1674Z" fill="#263238"/>
<path d="M150.669 114.521C150.603 114.326 150.557 114.125 150.532 113.92C150.456 113.527 150.371 112.974 150.272 112.254C150.068 110.834 149.86 108.889 149.637 106.735C149.415 104.582 149.164 102.631 148.956 101.226C148.847 100.525 148.752 99.9618 148.686 99.569C148.634 99.3679 148.607 99.1613 148.606 98.9537C148.687 99.1433 148.746 99.3419 148.781 99.5453C148.885 99.9334 149.003 100.492 149.136 101.197C149.406 102.617 149.671 104.548 149.893 106.707C150.116 108.865 150.305 110.758 150.452 112.23C150.523 112.893 150.584 113.456 150.631 113.906C150.668 114.109 150.681 114.315 150.669 114.521Z" fill="#263238"/>
<path d="M168.883 111.123C168.653 111.173 168.418 111.202 168.182 111.208C167.709 111.251 167.037 111.307 166.204 111.402C164.538 111.582 162.247 111.913 159.734 112.387C157.22 112.86 154.962 113.395 153.339 113.807C152.53 114.015 151.876 114.204 151.446 114.332C151.216 114.414 150.978 114.471 150.736 114.502C150.954 114.392 151.182 114.302 151.417 114.233C151.862 114.076 152.506 113.859 153.31 113.627C154.925 113.153 157.182 112.59 159.705 112.107C161.842 111.699 163.999 111.399 166.166 111.208C167.004 111.137 167.681 111.109 168.154 111.099C168.397 111.083 168.641 111.091 168.883 111.123Z" fill="#263238"/>
<path d="M142.765 134.742C142.714 134.673 142.673 134.599 142.642 134.519L142.329 133.861C142.06 133.289 141.695 132.442 141.26 131.405C140.379 129.322 139.257 126.407 138.065 123.169C136.872 119.932 135.774 117.016 134.941 114.91C134.534 113.887 134.198 113.049 133.947 112.425L133.682 111.748C133.645 111.67 133.619 111.587 133.606 111.502C133.656 111.57 133.698 111.645 133.729 111.724L134.041 112.382C134.306 112.955 134.676 113.802 135.111 114.839C135.991 116.921 137.113 119.837 138.306 123.074C139.499 126.312 140.597 129.228 141.43 131.334C141.837 132.356 142.173 133.194 142.419 133.819C142.528 134.089 142.618 134.292 142.689 134.496C142.726 134.574 142.751 134.657 142.765 134.742Z" fill="#263238"/>
<path d="M166.942 126.946C166.866 126.99 166.785 127.023 166.701 127.046L166 127.282L163.411 128.12C161.224 128.83 158.205 129.843 154.891 130.96C151.578 132.077 148.544 133.071 146.343 133.734C145.245 134.07 144.35 134.325 143.73 134.496L143.016 134.68C142.932 134.707 142.847 134.724 142.76 134.732C142.836 134.689 142.917 134.655 143.001 134.633L143.702 134.396L146.291 133.559C148.478 132.849 151.498 131.836 154.811 130.719C158.124 129.602 161.153 128.608 163.354 127.945C164.457 127.609 165.347 127.353 165.972 127.183L166.687 126.998C166.77 126.972 166.855 126.954 166.942 126.946Z" fill="#263238"/>
<path d="M157.078 12.1314L154.641 13.0023L153.594 9.81678C151.673 3.9428 145.548 0.823577 139.92 2.80682C134.292 4.79005 131.296 11.232 133.218 17.106L134.264 20.2915L131.817 21.1672C130.884 21.5291 130.126 22.2367 129.701 23.1429C129.276 24.0491 129.217 25.0842 129.535 26.033L136.318 46.7599C136.459 47.2296 136.693 47.6662 137.005 48.0438C137.318 48.4214 137.704 48.7322 138.139 48.9578C138.575 49.1834 139.051 49.3192 139.54 49.3572C140.029 49.3951 140.52 49.3344 140.985 49.1786L166.246 40.1428C167.192 39.7815 167.96 39.0676 168.39 38.1513C168.82 37.235 168.878 36.1877 168.552 35.2297L161.764 14.5027C161.62 14.0343 161.382 13.5999 161.066 13.2252C160.75 12.8505 160.362 12.5434 159.925 12.3221C159.487 12.1008 159.01 11.9698 158.521 11.937C158.032 11.9043 157.541 11.9704 157.078 12.1314ZM137.823 15.4446C137.305 13.9173 137.398 12.2487 138.083 10.7885C138.767 9.32818 139.991 8.18954 141.496 7.61108C142.24 7.35673 143.027 7.25473 143.81 7.31118C144.594 7.36762 145.358 7.58135 146.058 7.9396C146.757 8.29786 147.377 8.79331 147.881 9.39639C148.384 9.99946 148.761 10.6978 148.989 11.4498L150.03 14.6352L138.865 18.6301L137.823 15.4446ZM152.023 33.8381L153.755 39.1299C153.787 39.236 153.777 39.3503 153.727 39.449C153.676 39.5477 153.59 39.6233 153.486 39.66L151.057 40.5262C150.961 40.553 150.858 40.5414 150.769 40.4937C150.681 40.4461 150.615 40.3661 150.584 40.2706L148.838 35.0025C147.874 34.95 146.95 34.6046 146.189 34.0125C145.428 33.4203 144.866 32.6097 144.578 31.6892C144.166 30.4723 144.241 29.1432 144.787 27.9804C145.333 26.8176 146.308 25.9111 147.507 25.4508C148.1 25.2484 148.727 25.1674 149.351 25.2125C149.975 25.2576 150.584 25.4278 151.141 25.7132C151.698 25.9985 152.191 26.393 152.593 26.8733C152.994 27.3535 153.294 27.9096 153.476 28.5085C153.781 29.4435 153.806 30.4471 153.549 31.3963C153.291 32.3455 152.763 33.199 152.028 33.8523L152.023 33.8381Z" fill="#FF725E"/>
<path d="M154.532 12.9455C154.532 13.0118 150.011 14.711 144.388 16.7321C138.765 18.7532 134.179 20.3767 134.155 20.3294C134.131 20.2821 138.675 18.5686 144.303 16.5428C149.931 14.5169 154.508 12.884 154.532 12.9455Z" fill="#263238"/>
<path d="M159.899 13.8164C159.92 13.8575 159.937 13.9002 159.951 13.9442C159.989 14.0389 160.032 14.1619 160.089 14.3134C160.212 14.6589 160.382 15.137 160.595 15.7334L162.413 21.0252C163.17 23.2687 164.074 25.9288 165.077 28.8824C165.551 30.3639 166.109 31.9069 166.63 33.5305C166.909 34.3671 167.029 35.2483 166.985 36.129C166.945 36.5871 166.814 37.0326 166.602 37.4401C166.374 37.8463 166.07 38.2047 165.707 38.4957C164.976 39.0295 164.164 39.4433 163.302 39.7216L160.865 40.5972L156.25 42.2491L148.435 45.0323L143.158 46.8877L141.738 47.3611L141.359 47.4841C141.319 47.5021 141.275 47.5133 141.231 47.5173C141.231 47.5173 141.269 47.5173 141.35 47.4605L141.719 47.3137L143.139 46.7789L148.388 44.8477L156.188 42.0077L160.794 40.3416L163.231 39.4612C164.068 39.1943 164.857 38.793 165.565 38.2732C165.903 38.0032 166.186 37.6705 166.398 37.2934C166.598 36.9165 166.719 36.5025 166.753 36.077C166.797 35.2284 166.681 34.3791 166.412 33.5731C165.901 31.9638 165.361 30.4065 164.874 28.925C163.889 25.9667 162.981 23.2971 162.261 21.0536C161.542 18.81 160.936 17.0066 160.519 15.7381C160.32 15.1181 160.169 14.6353 160.046 14.285L159.932 13.9063C159.918 13.8777 159.907 13.8475 159.899 13.8164Z" fill="#263238"/>
<path d="M146.57 7.28923C146.57 7.28923 146.319 7.16617 145.856 6.97684C145.194 6.72279 144.495 6.58197 143.787 6.56031C142.738 6.52432 141.693 6.72155 140.729 7.13777C139.557 7.65605 138.555 8.49435 137.837 9.55647C137.115 10.6155 136.728 11.8671 136.725 13.149C136.735 14.1997 136.894 15.2436 137.198 16.2493C137.445 17.1108 137.7 17.7971 137.871 18.2751C137.971 18.518 138.053 18.7679 138.117 19.023C137.982 18.796 137.87 18.5566 137.781 18.3083C137.587 17.835 137.307 17.1628 137.033 16.2966C136.696 15.2803 136.512 14.2195 136.488 13.149C136.476 11.8187 136.872 10.5166 137.624 9.4192C138.367 8.31829 139.41 7.45406 140.63 6.9295C141.624 6.511 142.701 6.32639 143.778 6.38991C144.501 6.42677 145.212 6.59519 145.875 6.8869C146.052 6.96867 146.223 7.06361 146.386 7.1709C146.453 7.20048 146.515 7.2404 146.57 7.28923Z" fill="#263238"/>
<path d="M146.788 25.8105C146.864 25.7647 146.943 25.7252 147.025 25.6922C147.262 25.5853 147.507 25.4982 147.758 25.4318C148.157 25.3141 148.569 25.2442 148.984 25.2236C149.549 25.1932 150.115 25.2786 150.646 25.4744C151.857 25.9004 152.97 27.1358 153.519 28.7877C153.782 29.6742 153.782 30.6181 153.519 31.5046C153.227 32.4668 152.703 33.3427 151.995 34.0559L152.023 33.9281C152.653 35.6557 153.339 37.5301 154.049 39.4849L154.091 39.6032L153.973 39.6458L152.889 40.0056L150.523 40.796L150.404 40.8339L150.366 40.7156C149.718 38.756 149.008 36.9289 148.473 35.135L148.577 35.2155C147.652 35.1386 146.77 34.7913 146.04 34.2168C145.38 33.7085 144.839 33.0624 144.455 32.3235C144.108 31.6682 143.935 30.9348 143.953 30.1935C143.975 29.4359 144.164 28.6926 144.507 28.0166C144.85 27.3407 145.338 26.749 145.936 26.2838C146.182 26.0839 146.459 25.9241 146.755 25.8105C146.488 25.9691 146.228 26.1413 145.979 26.3264C145.321 26.8825 144.818 27.598 144.516 28.4043C144.257 29.0124 144.136 29.6702 144.161 30.3307C144.187 30.9911 144.358 31.6377 144.663 32.2241C145.041 32.9349 145.569 33.5551 146.211 34.0417C146.906 34.5878 147.748 34.917 148.629 34.9883H148.71L148.733 35.0593C149.254 36.8201 149.969 38.6613 150.627 40.6304L150.471 40.5546L152.837 39.7642L153.916 39.3997L153.841 39.5606C153.135 37.6058 152.454 35.7267 151.829 33.9991V33.9281L151.886 33.8713C152.574 33.1877 153.087 32.3483 153.381 31.4242C153.633 30.5762 153.633 29.6736 153.381 28.8256C152.866 27.2352 151.801 26.0282 150.646 25.6022C150.134 25.4051 149.589 25.3133 149.041 25.3324C148.632 25.3418 148.226 25.3974 147.829 25.4981C147.124 25.6732 146.793 25.8342 146.788 25.8105Z" fill="#263238"/>
<path d="M132.158 162.479L84.8769 162.261C82.1465 162.246 79.5337 161.148 77.6123 159.208C75.6909 157.268 74.6181 154.645 74.6294 151.914L75.1311 33.3885C75.1367 32.0357 75.4088 30.6973 75.9319 29.4498C76.4551 28.2023 77.2189 27.0701 78.1799 26.118C79.1408 25.1659 80.2799 24.4124 81.5322 23.9008C82.7845 23.3892 84.1253 23.1294 85.478 23.1362L132.754 23.3539C135.484 23.3677 138.098 24.4646 140.02 26.4038C141.942 28.3429 143.016 30.9657 143.006 33.6961L142.504 152.217C142.499 153.57 142.227 154.909 141.704 156.157C141.181 157.405 140.417 158.538 139.456 159.491C138.495 160.444 137.356 161.198 136.104 161.711C134.852 162.223 133.511 162.484 132.158 162.479Z" fill="#455A64"/>
<path d="M132.683 27.4293H123.519C123.22 27.4348 122.925 27.4992 122.651 27.6188C122.377 27.7383 122.129 27.9107 121.922 28.1261C121.714 28.3415 121.551 28.5956 121.442 28.874C121.333 29.1524 121.28 29.4496 121.285 29.7486V31.41C121.291 31.7087 121.237 32.0057 121.128 32.2838C121.019 32.5619 120.856 32.8157 120.648 33.0307C120.441 33.2457 120.193 33.4177 119.919 33.5367C119.645 33.6558 119.35 33.7196 119.051 33.7245L101.188 33.6441C100.583 33.6279 100.01 33.3727 99.594 32.9342C99.1778 32.4958 98.9526 31.9102 98.9679 31.3058V29.6444C98.9831 29.0409 98.7586 28.4559 98.3434 28.0177C97.9282 27.5794 97.3562 27.3236 96.7527 27.3062H93.5293L85.5064 27.2683C83.5982 27.257 81.7632 28.0022 80.4032 29.3409C79.0432 30.6796 78.2691 32.5026 78.2504 34.4108L77.777 150.101C77.7727 151.048 77.9548 151.986 78.3131 152.863C78.6713 153.739 79.1987 154.536 79.865 155.208C80.5313 155.881 81.3235 156.416 82.1965 156.782C83.0694 157.148 84.006 157.339 84.9527 157.343L132.134 157.561C133.081 157.565 134.02 157.383 134.897 157.025C135.774 156.666 136.571 156.138 137.244 155.472C137.917 154.805 138.452 154.012 138.819 153.139C139.185 152.265 139.376 151.328 139.38 150.381L139.854 34.6901C139.865 32.7765 139.116 30.9367 137.771 29.5752C136.427 28.2137 134.596 27.4418 132.683 27.4293Z" fill="white"/>
<path d="M126.336 142.126L91.2526 141.974C90.8882 141.974 90.5947 141.577 90.5994 141.094L90.6373 131.916C90.6373 131.443 90.9355 131.036 91.3 131.036L126.383 131.197C126.585 131.232 126.766 131.343 126.887 131.508C127.009 131.673 127.062 131.879 127.036 132.082L127.003 141.25C127.003 141.738 126.7 142.131 126.336 142.126Z" fill="#FF725E"/>
<path d="M98.2503 61.4379L86.0765 61.3826L86.0664 63.6167L98.2402 63.672L98.2503 61.4379Z" fill="#FF725E"/>
<path opacity="0.1" d="M98.2503 61.4379L86.0765 61.3826L86.0664 63.6167L98.2402 63.672L98.2503 61.4379Z" fill="black"/>
<path d="M133.937 75.1548C134.033 75.1451 134.127 75.1229 134.216 75.0885C134.347 75.0373 134.461 74.9502 134.545 74.8372C134.629 74.7241 134.679 74.5898 134.69 74.4495C134.69 73.697 134.69 72.5988 134.69 71.1883C134.69 70.4831 134.69 69.6926 134.69 68.8217C134.69 68.6087 134.69 68.3862 134.69 68.1638C134.721 67.9479 134.674 67.7281 134.557 67.5437C134.492 67.4553 134.407 67.3832 134.31 67.3331C134.212 67.283 134.104 67.2563 133.994 67.255H133.256H126.416L86.827 67.1083C86.7257 67.1065 86.6254 67.1293 86.5348 67.1746C86.4442 67.2199 86.3658 67.2865 86.3064 67.3686C86.1921 67.5537 86.1484 67.7739 86.1833 67.9886C86.1833 68.462 86.1833 68.9353 86.1833 69.4086C86.1833 70.3553 86.1833 71.3019 86.1833 72.2486C86.1833 72.7219 86.1833 73.1952 86.1833 73.6686C86.1637 73.889 86.1637 74.1108 86.1833 74.3312C86.2082 74.4257 86.2544 74.5133 86.3184 74.5871C86.3824 74.661 86.4625 74.7192 86.5525 74.7572C86.6458 74.7943 86.7456 74.8121 86.846 74.8093H89.2552L99.7678 74.8661L117.565 74.9749L129.564 75.0696L132.825 75.1075H133.672C133.866 75.1075 133.961 75.1075 133.961 75.1075H133.672H132.825H129.564H117.565L99.7678 75.0507L89.2552 75.0081H86.846C86.7134 75.0134 86.5811 74.9909 86.4578 74.9418C86.3332 74.8886 86.2224 74.8077 86.1338 74.7051C86.0452 74.6026 85.9812 74.4812 85.9466 74.3502C85.9192 74.2259 85.9097 74.0984 85.9182 73.9715V73.6212C85.9182 73.1479 85.9182 72.6746 85.9182 72.2012C85.9182 71.2546 85.9182 70.3079 85.9182 69.3613C85.9182 68.888 85.9182 68.4146 85.9182 67.9413C85.9092 67.8152 85.9092 67.6887 85.9182 67.5626C85.936 67.4234 85.9898 67.2912 86.0744 67.1793C86.1561 67.065 86.2642 66.9722 86.3894 66.9087C86.5147 66.8453 86.6535 66.813 86.7939 66.8148L126.383 67.0325L133.223 67.0799H133.961C134.091 67.08 134.219 67.1114 134.334 67.1716C134.45 67.2317 134.549 67.3188 134.624 67.4254C134.757 67.6312 134.811 67.8785 134.775 68.1212C134.775 68.3436 134.775 68.5661 134.775 68.7791C134.775 69.6406 134.775 70.431 134.775 71.1457C134.775 72.5657 134.742 73.6544 134.732 74.4117C134.721 74.5573 134.668 74.6966 134.58 74.8131C134.492 74.9297 134.372 75.0187 134.235 75.0696C134.146 75.1251 134.043 75.1546 133.937 75.1548Z" fill="#E0E0E0"/>
<path d="M111.999 69.4843H89.7332V71.5717H111.999V69.4843Z" fill="#FF725E"/>
<path opacity="0.2" d="M111.999 69.4843H89.7332V71.5717H111.999V69.4843Z" fill="white"/>
<path d="M98.1673 81.8187L85.9935 81.7635L85.9834 83.9976L98.1572 84.0528L98.1673 81.8187Z" fill="#FF725E"/>
<path opacity="0.1" d="M98.1673 81.8187L85.9935 81.7635L85.9834 83.9976L98.1572 84.0528L98.1673 81.8187Z" fill="black"/>
<path d="M133.63 95.5362C133.725 95.5245 133.82 95.5071 133.914 95.4842C134.046 95.4421 134.167 95.3722 134.27 95.2791C134.373 95.186 134.455 95.0719 134.51 94.9446C134.584 94.7535 134.614 94.5477 134.595 94.3435C134.595 94.1163 134.595 93.8701 134.595 93.5956C134.595 93.0465 134.595 92.4217 134.595 91.7023V88.6967C134.618 88.4791 134.57 88.26 134.458 88.0719C134.341 87.879 134.158 87.7358 133.942 87.6696C133.706 87.6275 133.466 87.6148 133.227 87.6317H126.416L86.9643 87.485C86.7521 87.4855 86.5473 87.563 86.388 87.7032C86.2286 87.8433 86.1256 88.0366 86.0981 88.247C86.0981 88.6967 86.0981 89.1937 86.0981 89.667C86.0981 90.6136 86.0981 91.5603 86.0981 92.5069C86.0981 92.9803 86.0981 93.4536 86.0981 93.9269C86.0805 94.1481 86.09 94.3707 86.1265 94.5896C86.1856 94.7815 86.3072 94.9481 86.472 95.0629C86.6469 95.1739 86.8523 95.2269 87.059 95.2144H87.7169H89.0848L99.5595 95.2664L117.295 95.3753L129.251 95.47L132.503 95.5078H129.251H117.295L99.5501 95.4889L89.0753 95.451H87.0164C86.7603 95.4662 86.5063 95.3981 86.2922 95.257C86.0768 95.1078 85.9196 94.8887 85.8472 94.6369C85.8048 94.3964 85.7921 94.1516 85.8094 93.908C85.8094 93.4347 85.8094 92.9613 85.8094 92.488C85.8094 91.5414 85.8094 90.5947 85.8094 89.6481C85.8094 89.1747 85.8094 88.7014 85.8094 88.2281C85.8439 87.9574 85.9759 87.7086 86.1807 87.5283C86.3854 87.3479 86.6489 87.2484 86.9217 87.2483L126.373 87.466L133.185 87.5181C133.438 87.5025 133.693 87.52 133.942 87.5701C134.188 87.6505 134.395 87.8191 134.524 88.0435C134.647 88.252 134.7 88.494 134.676 88.7345C134.676 88.957 134.676 89.1747 134.676 89.3925C134.676 90.2492 134.676 91.0349 134.676 91.7591C134.676 92.4833 134.676 93.0939 134.676 93.6524C134.676 93.9222 134.676 94.1731 134.676 94.405C134.693 94.6167 134.659 94.8294 134.576 95.025C134.515 95.1556 134.426 95.2715 134.316 95.3646C134.205 95.4577 134.076 95.5259 133.937 95.5646C133.834 95.5732 133.73 95.5636 133.63 95.5362Z" fill="#E0E0E0"/>
<path d="M98.0756 103.085L85.9017 103.029L85.8916 105.264L98.0654 105.319L98.0756 103.085Z" fill="#FF725E"/>
<path opacity="0.1" d="M98.0756 103.085L85.9017 103.029L85.8916 105.264L98.0654 105.319L98.0756 103.085Z" fill="black"/>
<path d="M133.535 116.793C133.631 116.782 133.725 116.765 133.819 116.741C133.951 116.699 134.072 116.63 134.175 116.538C134.277 116.446 134.359 116.333 134.415 116.206C134.489 116.015 134.519 115.81 134.5 115.605C134.5 115.373 134.5 115.132 134.5 114.853C134.5 114.308 134.5 113.679 134.5 112.959V109.954C134.523 109.736 134.475 109.517 134.363 109.329C134.244 109.14 134.061 108.999 133.847 108.931C133.612 108.888 133.372 108.873 133.133 108.889H126.321L86.8696 108.742C86.6574 108.743 86.4526 108.82 86.2933 108.96C86.134 109.1 86.031 109.294 86.0034 109.504C86.0034 109.977 86.0034 110.451 86.0034 110.924C86.0034 111.871 86.0034 112.817 86.0034 113.764C86.0034 114.237 86.0034 114.711 86.0034 115.184C85.9858 115.404 85.9954 115.625 86.0318 115.842C86.0885 116.035 86.2107 116.202 86.3774 116.315C86.5511 116.429 86.7573 116.482 86.9643 116.467H89.0233L99.498 116.524L117.234 116.632L129.19 116.727L132.442 116.765H129.19H117.234L99.498 116.713L89.0233 116.67H86.9643C86.7081 116.688 86.4534 116.619 86.2401 116.476C86.0247 116.327 85.8675 116.108 85.7952 115.856C85.7528 115.616 85.74 115.371 85.7573 115.127C85.7573 114.654 85.7573 114.181 85.7573 113.707C85.7573 112.761 85.7573 111.814 85.7573 110.867C85.7573 110.394 85.7573 109.921 85.7573 109.424C85.7908 109.153 85.9218 108.905 86.1258 108.724C86.3297 108.544 86.5926 108.444 86.8649 108.444L126.317 108.662L133.128 108.714C133.381 108.698 133.636 108.716 133.885 108.766C134.131 108.846 134.338 109.015 134.467 109.239C134.59 109.448 134.643 109.69 134.619 109.93C134.619 110.153 134.619 110.375 134.619 110.588C134.619 111.445 134.619 112.23 134.619 112.955C134.619 113.679 134.619 114.289 134.619 114.848C134.619 115.118 134.619 115.369 134.619 115.601C134.637 115.812 134.603 116.025 134.519 116.221C134.458 116.351 134.369 116.467 134.259 116.56C134.149 116.653 134.019 116.722 133.88 116.76C133.769 116.798 133.651 116.81 133.535 116.793Z" fill="#E0E0E0"/>
<path d="M111.523 90.4559L89.2582 90.3549L89.2487 92.4422L111.514 92.5433L111.523 90.4559Z" fill="#FF725E"/>
<path opacity="0.2" d="M111.523 90.4559L89.2582 90.3549L89.2487 92.4422L111.514 92.5433L111.523 90.4559Z" fill="white"/>
<path d="M91.2716 112.931C91.2576 113.121 91.188 113.303 91.0715 113.455C90.955 113.606 90.7967 113.72 90.6162 113.782C90.4356 113.844 90.2408 113.852 90.056 113.804C89.8711 113.756 89.7043 113.655 89.5762 113.514C89.4481 113.372 89.3643 113.196 89.3354 113.008C89.3064 112.819 89.3334 112.626 89.4132 112.452C89.4929 112.279 89.6218 112.133 89.7839 112.032C89.9459 111.931 90.1341 111.88 90.3249 111.885C90.5886 111.9 90.8359 112.018 91.0131 112.214C91.1903 112.409 91.2832 112.667 91.2716 112.931Z" fill="#FF725E"/>
<path d="M94.2866 112.945C94.296 113.079 94.2777 113.213 94.233 113.339C94.1884 113.465 94.1182 113.58 94.027 113.678C93.9358 113.776 93.8254 113.854 93.7027 113.907C93.58 113.961 93.4477 113.988 93.3139 113.988C93.1802 113.988 93.0478 113.961 92.9252 113.907C92.8025 113.854 92.6921 113.776 92.6009 113.678C92.5096 113.58 92.4395 113.465 92.3949 113.339C92.3502 113.213 92.332 113.079 92.3413 112.945C92.332 112.812 92.3502 112.678 92.3949 112.552C92.4395 112.426 92.5096 112.31 92.6009 112.212C92.6921 112.114 92.8025 112.036 92.9252 111.983C93.0478 111.93 93.1802 111.902 93.3139 111.902C93.4477 111.902 93.58 111.93 93.7027 111.983C93.8254 112.036 93.9358 112.114 94.027 112.212C94.1182 112.31 94.1884 112.426 94.233 112.552C94.2777 112.678 94.296 112.812 94.2866 112.945Z" fill="#FF725E"/>
<path d="M97.3065 112.959C97.2925 113.15 97.223 113.332 97.1064 113.483C96.9899 113.634 96.8316 113.748 96.6511 113.81C96.4705 113.872 96.2757 113.88 96.0909 113.832C95.906 113.785 95.7392 113.684 95.6111 113.542C95.483 113.401 95.3992 113.225 95.3703 113.036C95.3413 112.847 95.3684 112.654 95.4481 112.481C95.5278 112.307 95.6567 112.161 95.8188 112.06C95.9809 111.959 96.169 111.908 96.3598 111.913C96.6231 111.929 96.8696 112.048 97.0466 112.243C97.2236 112.439 97.3169 112.696 97.3065 112.959Z" fill="#FF725E"/>
<path d="M100.322 112.974C100.308 113.164 100.238 113.346 100.122 113.497C100.005 113.649 99.8467 113.762 99.6662 113.824C99.4856 113.886 99.2909 113.894 99.106 113.846C98.9211 113.799 98.7543 113.698 98.6262 113.557C98.4981 113.415 98.4144 113.239 98.3854 113.05C98.3564 112.862 98.3835 112.668 98.4632 112.495C98.5429 112.322 98.6718 112.175 98.8339 112.074C98.996 111.974 99.1841 111.922 99.3749 111.928C99.6382 111.943 99.8847 112.062 100.062 112.257C100.239 112.453 100.332 112.71 100.322 112.974Z" fill="#FF725E"/>
<path d="M103.337 112.983C103.324 113.174 103.255 113.356 103.139 113.508C103.023 113.66 102.865 113.775 102.684 113.837C102.504 113.9 102.309 113.909 102.123 113.861C101.938 113.814 101.771 113.714 101.642 113.572C101.514 113.431 101.43 113.255 101.4 113.066C101.371 112.877 101.398 112.684 101.478 112.51C101.557 112.336 101.686 112.19 101.848 112.089C102.011 111.988 102.199 111.937 102.39 111.942C102.652 111.958 102.898 112.075 103.075 112.27C103.252 112.464 103.346 112.72 103.337 112.983Z" fill="#FF725E"/>
<path d="M106.356 112.997C106.344 113.187 106.275 113.369 106.161 113.52C106.046 113.672 105.889 113.786 105.71 113.85C105.531 113.913 105.337 113.923 105.152 113.878C104.967 113.833 104.8 113.735 104.67 113.596C104.541 113.457 104.455 113.283 104.423 113.095C104.391 112.908 104.414 112.715 104.49 112.541C104.566 112.367 104.691 112.218 104.851 112.114C105.01 112.011 105.196 111.955 105.386 111.956C105.653 111.966 105.905 112.081 106.086 112.276C106.268 112.471 106.365 112.731 106.356 112.997Z" fill="#FF725E"/>
<path d="M109.372 113.011C109.381 113.145 109.363 113.279 109.318 113.405C109.273 113.531 109.203 113.647 109.112 113.744C109.021 113.842 108.91 113.92 108.788 113.974C108.665 114.027 108.533 114.054 108.399 114.054C108.265 114.054 108.133 114.027 108.01 113.974C107.887 113.92 107.777 113.842 107.686 113.744C107.595 113.647 107.524 113.531 107.48 113.405C107.435 113.279 107.417 113.145 107.426 113.011C107.417 112.878 107.435 112.744 107.48 112.618C107.524 112.492 107.595 112.376 107.686 112.279C107.777 112.181 107.887 112.103 108.01 112.049C108.133 111.996 108.265 111.969 108.399 111.969C108.533 111.969 108.665 111.996 108.788 112.049C108.91 112.103 109.021 112.181 109.112 112.279C109.203 112.376 109.273 112.492 109.318 112.618C109.363 112.744 109.381 112.878 109.372 113.011Z" fill="#FF725E"/>
<path d="M112.387 113.026C112.374 113.215 112.306 113.397 112.191 113.549C112.076 113.7 111.919 113.815 111.74 113.878C111.561 113.942 111.367 113.952 111.182 113.907C110.998 113.861 110.83 113.763 110.701 113.624C110.571 113.485 110.485 113.311 110.453 113.124C110.421 112.936 110.444 112.744 110.52 112.569C110.596 112.395 110.722 112.247 110.881 112.143C111.04 112.039 111.226 111.984 111.416 111.984C111.683 111.994 111.935 112.109 112.117 112.305C112.299 112.5 112.396 112.759 112.387 113.026Z" fill="#FF725E"/>
<path d="M115.402 113.04C115.389 113.231 115.32 113.413 115.204 113.565C115.088 113.717 114.93 113.831 114.749 113.894C114.569 113.957 114.374 113.965 114.189 113.918C114.003 113.871 113.836 113.771 113.707 113.629C113.579 113.488 113.495 113.312 113.465 113.123C113.436 112.934 113.463 112.741 113.543 112.567C113.622 112.393 113.751 112.247 113.913 112.146C114.076 112.045 114.264 111.993 114.455 111.999C114.718 112.014 114.963 112.132 115.14 112.327C115.317 112.521 115.411 112.777 115.402 113.04Z" fill="#FF725E"/>
<g opacity="0.2">
<path d="M91.2716 112.931C91.2576 113.121 91.188 113.303 91.0715 113.455C90.955 113.606 90.7967 113.72 90.6162 113.782C90.4356 113.844 90.2408 113.852 90.056 113.804C89.8711 113.756 89.7043 113.655 89.5762 113.514C89.4481 113.372 89.3643 113.196 89.3354 113.008C89.3064 112.819 89.3334 112.626 89.4132 112.452C89.4929 112.279 89.6218 112.133 89.7839 112.032C89.9459 111.931 90.1341 111.88 90.3249 111.885C90.5886 111.9 90.8359 112.018 91.0131 112.214C91.1903 112.409 91.2832 112.667 91.2716 112.931Z" fill="white"/>
<path d="M94.2867 112.945C94.296 113.079 94.2777 113.213 94.2331 113.339C94.1884 113.465 94.1183 113.58 94.027 113.678C93.9358 113.776 93.8254 113.854 93.7028 113.907C93.5801 113.961 93.4477 113.988 93.314 113.988C93.1802 113.988 93.0479 113.961 92.9252 113.907C92.8025 113.854 92.6921 113.776 92.6009 113.678C92.5097 113.58 92.4395 113.465 92.3949 113.339C92.3502 113.213 92.332 113.079 92.3413 112.945C92.332 112.812 92.3502 112.678 92.3949 112.552C92.4395 112.426 92.5097 112.31 92.6009 112.212C92.6921 112.114 92.8025 112.036 92.9252 111.983C93.0479 111.93 93.1802 111.902 93.314 111.902C93.4477 111.902 93.5801 111.93 93.7028 111.983C93.8254 112.036 93.9358 112.114 94.027 112.212C94.1183 112.31 94.1884 112.426 94.2331 112.552C94.2777 112.678 94.296 112.812 94.2867 112.945Z" fill="white"/>
<path d="M97.3065 112.959C97.2925 113.15 97.223 113.332 97.1065 113.483C96.99 113.634 96.8316 113.748 96.6511 113.81C96.4706 113.872 96.2758 113.88 96.0909 113.832C95.906 113.785 95.7392 113.684 95.6111 113.542C95.483 113.401 95.3993 113.225 95.3703 113.036C95.3413 112.847 95.3684 112.654 95.4481 112.481C95.5278 112.307 95.6567 112.161 95.8188 112.06C95.9809 111.959 96.169 111.908 96.3598 111.913C96.6231 111.929 96.8697 112.048 97.0466 112.243C97.2236 112.439 97.3169 112.696 97.3065 112.959Z" fill="white"/>
<path d="M100.322 112.974C100.308 113.164 100.238 113.346 100.122 113.497C100.005 113.649 99.8467 113.762 99.6662 113.824C99.4856 113.886 99.2909 113.894 99.106 113.847C98.9211 113.799 98.7543 113.698 98.6262 113.557C98.4981 113.415 98.4144 113.239 98.3854 113.05C98.3564 112.862 98.3835 112.668 98.4632 112.495C98.5429 112.322 98.6718 112.175 98.8339 112.074C98.996 111.974 99.1841 111.922 99.3749 111.928C99.6382 111.943 99.8847 112.062 100.062 112.257C100.239 112.453 100.332 112.71 100.322 112.974Z" fill="white"/>
<path d="M103.337 112.983C103.324 113.174 103.255 113.356 103.139 113.508C103.023 113.66 102.865 113.775 102.684 113.837C102.504 113.9 102.309 113.909 102.123 113.861C101.938 113.814 101.771 113.714 101.642 113.572C101.514 113.431 101.43 113.255 101.4 113.066C101.371 112.877 101.398 112.684 101.478 112.51C101.557 112.336 101.686 112.19 101.848 112.089C102.011 111.988 102.199 111.937 102.39 111.942C102.652 111.958 102.898 112.075 103.075 112.27C103.252 112.464 103.346 112.72 103.337 112.983Z" fill="white"/>
<path d="M106.356 112.997C106.344 113.187 106.275 113.369 106.161 113.52C106.046 113.672 105.889 113.786 105.71 113.85C105.531 113.914 105.337 113.923 105.152 113.878C104.967 113.833 104.8 113.735 104.67 113.596C104.541 113.457 104.455 113.283 104.423 113.095C104.391 112.908 104.414 112.715 104.49 112.541C104.566 112.367 104.691 112.218 104.851 112.115C105.01 112.011 105.196 111.955 105.386 111.956C105.653 111.966 105.905 112.081 106.086 112.276C106.268 112.471 106.365 112.731 106.356 112.997Z" fill="white"/>
<path d="M109.372 113.011C109.381 113.145 109.363 113.279 109.318 113.405C109.273 113.531 109.203 113.647 109.112 113.744C109.021 113.842 108.91 113.92 108.788 113.974C108.665 114.027 108.533 114.054 108.399 114.054C108.265 114.054 108.133 114.027 108.01 113.974C107.887 113.92 107.777 113.842 107.686 113.744C107.595 113.647 107.524 113.531 107.48 113.405C107.435 113.279 107.417 113.145 107.426 113.011C107.417 112.878 107.435 112.744 107.48 112.618C107.524 112.492 107.595 112.376 107.686 112.279C107.777 112.181 107.887 112.103 108.01 112.049C108.133 111.996 108.265 111.969 108.399 111.969C108.533 111.969 108.665 111.996 108.788 112.049C108.91 112.103 109.021 112.181 109.112 112.279C109.203 112.376 109.273 112.492 109.318 112.618C109.363 112.744 109.381 112.878 109.372 113.011Z" fill="white"/>
<path d="M112.387 113.026C112.374 113.215 112.306 113.397 112.191 113.549C112.076 113.7 111.919 113.815 111.74 113.878C111.561 113.942 111.367 113.952 111.182 113.907C110.998 113.861 110.83 113.763 110.701 113.624C110.571 113.485 110.485 113.311 110.453 113.124C110.421 112.936 110.444 112.744 110.52 112.569C110.596 112.395 110.722 112.247 110.881 112.143C111.04 112.039 111.226 111.984 111.416 111.984C111.683 111.994 111.935 112.109 112.117 112.305C112.299 112.5 112.396 112.759 112.387 113.026Z" fill="white"/>
<path d="M115.402 113.04C115.389 113.231 115.32 113.413 115.204 113.565C115.088 113.717 114.93 113.831 114.749 113.894C114.569 113.957 114.374 113.965 114.189 113.918C114.003 113.871 113.836 113.771 113.708 113.629C113.579 113.488 113.495 113.312 113.465 113.123C113.436 112.934 113.463 112.741 113.543 112.567C113.622 112.393 113.751 112.247 113.914 112.146C114.076 112.045 114.264 111.993 114.455 111.999C114.718 112.014 114.963 112.132 115.14 112.327C115.317 112.521 115.411 112.777 115.402 113.04Z" fill="white"/>
</g>
<path d="M111.118 44.7104C111.447 44.5656 111.726 44.3273 111.92 44.0252C112.115 43.7231 112.216 43.3704 112.212 43.0112C112.224 42.7776 112.188 42.5441 112.107 42.3247C112.026 42.1052 111.902 41.9046 111.741 41.735C111.58 41.5653 111.386 41.4302 111.171 41.3379C110.956 41.2456 110.725 41.198 110.491 41.198C110.257 41.198 110.026 41.2456 109.811 41.3379C109.596 41.4302 109.402 41.5653 109.241 41.735C109.08 41.9046 108.955 42.1052 108.875 42.3247C108.794 42.5441 108.758 42.7776 108.77 43.0112C108.763 43.374 108.864 43.7309 109.059 44.0367C109.255 44.3425 109.536 44.5835 109.869 44.7294C107.218 45.127 107.336 48.0048 107.336 48.0048L113.603 48.0332C113.603 48.0332 113.75 45.1033 111.118 44.7104Z" fill="#FF725E"/>
<path opacity="0.1" d="M111.118 44.7104C111.447 44.5656 111.726 44.3273 111.92 44.0252C112.115 43.7231 112.216 43.3704 112.212 43.0112C112.224 42.7776 112.188 42.5441 112.107 42.3247C112.026 42.1052 111.902 41.9046 111.741 41.735C111.58 41.5653 111.386 41.4302 111.171 41.3379C110.956 41.2456 110.725 41.198 110.491 41.198C110.257 41.198 110.026 41.2456 109.811 41.3379C109.596 41.4302 109.402 41.5653 109.241 41.735C109.08 41.9046 108.955 42.1052 108.875 42.3247C108.794 42.5441 108.758 42.7776 108.77 43.0112C108.763 43.374 108.864 43.7309 109.059 44.0367C109.255 44.3425 109.536 44.5835 109.869 44.7294C107.218 45.127 107.336 48.0048 107.336 48.0048L113.603 48.0332C113.603 48.0332 113.75 45.1033 111.118 44.7104Z" fill="black"/>
<path d="M121.302 49.8893L98.9655 49.788L98.9534 52.4575L121.289 52.5589L121.302 49.8893Z" fill="#FF725E"/>
<path opacity="0.2" d="M121.302 49.8893L98.9655 49.788L98.9534 52.4575L121.289 52.5589L121.302 49.8893Z" fill="white"/>
<path d="M39.1867 63.724H38.9642L38.3205 63.7713C37.9721 63.7922 37.6257 63.8381 37.2839 63.9086C37.0625 63.9397 36.8429 63.9823 36.626 64.0364L35.8923 64.2399C34.6436 64.623 33.4655 65.2065 32.4039 65.9675C31.0014 66.9856 29.8303 68.289 28.9676 69.792C28.4605 70.6585 28.057 71.5815 27.7653 72.542C27.4588 73.5861 27.2824 74.6639 27.2399 75.7512C27.2117 76.3224 27.2212 76.8947 27.2683 77.4646C27.2683 77.7534 27.3488 78.0421 27.3867 78.3356C27.4185 78.6314 27.4739 78.9242 27.5523 79.2112C27.978 81.1106 28.8416 82.8842 30.0743 84.3905C31.307 85.8969 32.8746 87.0943 34.6522 87.8873C35.9388 88.4424 37.3177 88.7523 38.7181 88.8008C40.1645 88.8804 41.6123 88.6728 42.978 88.1902L43.3946 88.034H43.4514L43.4987 88.0624L49.4674 91.0917L49.2922 91.2432C48.6532 89.2647 48.0379 87.3477 47.4415 85.5065V85.4355L47.4936 85.3834C48.9415 83.925 50.0163 82.139 50.627 80.1768C51.1801 78.3829 51.3415 76.4911 51.1003 74.6294C50.8858 72.9749 50.3538 71.3774 49.5336 69.9246C48.8266 68.6765 47.9145 67.5565 46.8357 66.6113C45.9455 65.8631 44.9604 65.2361 43.9058 64.7464C43.1078 64.4022 42.2767 64.1405 41.4255 63.9654L40.4789 63.8092L39.7926 63.7571L39.376 63.7287H39.234C39.2812 63.7235 39.3288 63.7235 39.376 63.7287H39.7973L40.4836 63.7571L41.4303 63.8944C42.2921 64.0567 43.1345 64.3089 43.9436 64.647C45.0164 65.1308 46.0193 65.7565 46.9256 66.5071C48.0243 67.4481 48.9557 68.5684 49.6803 69.8204C50.5238 71.2889 51.0721 72.908 51.2944 74.5868C51.5556 76.4773 51.4054 78.4018 50.8542 80.2289C50.2395 82.2319 49.1481 84.0559 47.6734 85.5443L47.7018 85.4213C48.2982 87.2625 48.9183 89.1795 49.562 91.1533L49.6519 91.442L49.3821 91.3047L43.4135 88.2802H43.5176L43.0916 88.4364C41.6996 88.9262 40.225 89.1385 38.7512 89.0612C37.3207 89.0067 35.9129 88.6856 34.6002 88.1145C32.0961 87.0421 30.0128 85.1782 28.6694 82.8085C28.0512 81.7141 27.5997 80.5335 27.3299 79.3059C27.256 79.0115 27.2006 78.7127 27.1642 78.4113C27.1263 78.1131 27.0648 77.8196 27.0506 77.5262C26.9225 75.842 27.1005 74.1486 27.576 72.5278C27.8749 71.554 28.2897 70.6196 28.8114 69.7447C29.6947 68.228 30.8902 66.9163 32.3187 65.8965C33.3977 65.1335 34.5957 64.5546 35.8639 64.1831L36.6071 63.9938C36.8258 63.943 37.047 63.9035 37.2697 63.8754C37.6151 63.8115 37.9647 63.7735 38.3158 63.7618L38.9642 63.7382C39.038 63.7282 39.1123 63.7235 39.1867 63.724Z" fill="#FF725E"/>
<path d="M41.8847 74.7619H41.009L39.1157 72.1018V70.3553C39.1157 70.3553 37.762 70.2701 37.9229 72.5562C38.0839 74.8424 37.9229 74.2602 37.9229 74.2602C37.9229 74.2602 35.0498 74.2602 34.8132 74.5205C34.5765 74.7809 34.5623 77.5546 34.5292 79.1023C34.511 79.4755 34.6181 79.8439 34.8333 80.1492C35.0486 80.4545 35.3597 80.6791 35.7172 80.7874C35.8174 80.8151 35.9209 80.8295 36.0249 80.83C36.7443 80.83 40.4032 80.2478 40.4032 80.2478H41.9131L41.8847 74.7619Z" fill="#FF725E"/>
<path d="M44.3886 74.2934L43.849 80.2762H42.3533V74.4164L44.3886 74.2934Z" fill="#FF725E"/>
<path d="M62.2282 196.094V192.048L54.9721 191.995L54.9106 198.116L55.3603 198.149C57.3624 198.277 65.5463 198.466 66.8905 198.049C68.3862 197.585 62.2282 196.094 62.2282 196.094Z" fill="#FF725E"/>
<path d="M67.0609 197.671C67.0609 197.737 64.344 197.794 60.9976 197.794C57.6512 197.794 54.9343 197.737 54.9343 197.671C54.9343 197.604 57.6512 197.548 60.9976 197.548C64.344 197.548 67.0609 197.604 67.0609 197.671Z" fill="#263238"/>
<path d="M62.356 196.923C62.2945 196.89 62.356 196.677 62.5028 196.449C62.6495 196.222 62.8483 196.128 62.8956 196.175C62.943 196.222 62.8436 196.402 62.7016 196.596C62.5596 196.79 62.4176 196.956 62.356 196.923Z" fill="#263238"/>
<path d="M62.8199 197.188C62.7536 197.188 62.7868 196.923 62.9288 196.672C63.0708 196.421 63.2601 196.27 63.3122 196.307C63.3642 196.345 63.279 196.558 63.1465 196.781C63.014 197.003 62.8814 197.212 62.8199 197.188Z" fill="#263238"/>
<path d="M57.1211 197.652C57.0927 197.652 56.9838 197.567 56.8276 197.387C56.6369 197.155 56.4245 196.943 56.1933 196.752C55.966 196.571 55.6951 196.452 55.4076 196.407C55.1852 196.378 55.0432 196.407 55.029 196.378C55.0148 196.35 55.152 196.251 55.4123 196.232C55.7559 196.224 56.0911 196.338 56.359 196.554C56.61 196.758 56.8218 197.007 56.9838 197.287C57.0927 197.496 57.1495 197.633 57.1211 197.652Z" fill="#263238"/>
<path d="M62.3797 196.161C62.4129 196.218 62.2898 196.36 62.0815 196.435C61.8733 196.511 61.6887 196.483 61.6792 196.435C61.6697 196.388 61.8165 196.289 61.9963 196.222C62.1762 196.156 62.3419 196.104 62.3797 196.161Z" fill="#263238"/>
<path d="M62.2661 195.768C62.2661 195.839 62.0768 195.896 61.8307 195.9C61.5845 195.905 61.3905 195.848 61.3952 195.782C61.3999 195.716 61.594 195.654 61.8307 195.65C62.0673 195.645 62.2566 195.702 62.2661 195.768Z" fill="#263238"/>
<path d="M80.0963 196.094V192.048L72.8403 191.995L72.7787 198.054L73.2284 198.087C75.2305 198.215 83.4191 198.466 84.7586 198.049C86.2543 197.585 80.0963 196.094 80.0963 196.094Z" fill="#FF725E"/>
<path d="M84.929 197.68C84.929 197.746 82.2168 197.803 78.8657 197.803C75.5145 197.803 72.8071 197.746 72.8071 197.68C72.8071 197.614 75.5193 197.557 78.8657 197.557C82.2121 197.557 84.929 197.614 84.929 197.68Z" fill="#263238"/>
<path d="M80.2241 196.923C80.1673 196.89 80.2241 196.677 80.3709 196.449C80.5176 196.222 80.7164 196.128 80.7637 196.175C80.8111 196.222 80.7117 196.402 80.5697 196.596C80.4277 196.79 80.2857 196.956 80.2241 196.923Z" fill="#263238"/>
<path d="M80.688 197.188C80.6265 197.188 80.6549 196.923 80.8016 196.672C80.9483 196.421 81.1329 196.27 81.185 196.307C81.2371 196.345 81.1471 196.558 81.0146 196.781C80.8821 197.003 80.7543 197.212 80.688 197.188Z" fill="#263238"/>
<path d="M74.9891 197.652C74.9607 197.652 74.8566 197.567 74.6957 197.387C74.505 197.155 74.2926 196.943 74.0614 196.752C73.8341 196.571 73.5632 196.452 73.2757 196.407C73.058 196.378 72.9112 196.407 72.897 196.378C72.8828 196.35 73.0201 196.251 73.2804 196.232C73.624 196.224 73.9591 196.338 74.2271 196.554C74.4794 196.757 74.6914 197.006 74.8519 197.287C74.9607 197.496 75.0175 197.633 74.9891 197.652Z" fill="#263238"/>
<path d="M80.2478 196.161C80.2809 196.218 80.1579 196.36 79.9496 196.435C79.7413 196.511 79.5567 196.483 79.5473 196.435C79.5378 196.388 79.6845 196.289 79.8644 196.222C80.0443 196.156 80.2099 196.104 80.2478 196.161Z" fill="#263238"/>
<path d="M80.1436 195.768C80.1436 195.839 79.9543 195.896 79.7082 195.9C79.4621 195.905 79.2727 195.848 79.2775 195.782C79.2822 195.716 79.4715 195.654 79.7082 195.65C79.9449 195.645 80.1436 195.702 80.1436 195.768Z" fill="#263238"/>
<path d="M106.83 75.9169C106.64 75.7228 106.172 75.8175 106.172 75.8175C106.219 75.5449 106.219 75.2664 106.172 74.9939C106.087 74.7288 105.49 74.7809 105.49 74.7809C105.463 74.5577 105.463 74.332 105.49 74.1088C105.495 74.0593 105.484 74.0095 105.46 73.9663C105.435 73.9231 105.398 73.8886 105.353 73.8674C105.071 73.7523 104.768 73.6975 104.463 73.7064C104.099 73.4461 105.576 71.3777 106.125 70.715C106.674 70.0523 106.574 69.5364 106.087 69.5364C105.751 69.5364 104.028 71.5244 103.498 72.1918C102.967 72.8592 101.562 74.7146 101.514 73.2331C101.467 71.7516 100.871 70.6345 100.497 70.4452C100.123 70.2559 99.7252 70.7008 99.9287 71.1126C100.108 71.5804 100.219 72.0713 100.26 72.5704C100.311 72.9681 100.294 73.3716 100.208 73.7632C100.051 74.4919 99.8374 75.2073 99.569 75.9027H99.5311C99.5311 75.9027 89.2031 85.8094 88.4553 86.5146C87.7879 87.1489 74.3643 85.7621 71.6711 85.4781C70.7559 85.3441 69.8318 85.2808 68.9069 85.2887C67.7378 85.3408 67.5295 85.5065 66.3651 85.5207C63.4245 85.5533 60.4908 85.8112 57.5896 86.2922C56.276 86.5155 55.0489 87.0954 54.0423 87.9684C53.0357 88.8415 52.2881 89.9743 51.8813 91.2432C49.1692 99.7157 43.0254 119.771 41.9415 131.036C41.1224 132.521 40.383 134.049 39.7263 135.613C38.9642 137.686 39.1488 137.757 39.4044 137.804C40.0955 137.932 40.8812 134.212 41.1747 135.111C41.4681 136.01 39.6837 139.546 40.4079 139.65C41.3545 139.783 42.1071 135.864 42.1971 135.551C42.287 135.239 42.7556 135.338 42.6704 135.632C42.5331 136.048 41.2031 140.464 42.1308 140.606C42.642 140.682 42.6988 139.75 42.6988 139.75C42.6988 139.75 43.6454 135.523 44.0762 135.608C44.5069 135.693 44.0478 138.188 43.83 139.021C43.6123 139.854 43.9152 140.275 44.3602 140.072C44.6631 139.93 45.3873 137.397 45.5861 136.574C45.7849 135.75 46.2819 133.469 46.9493 134.789C47.6167 136.11 48.6296 136.877 49.0461 136.896C49.14 136.885 49.2284 136.846 49.3001 136.785C49.3718 136.723 49.4235 136.641 49.4484 136.55C49.4734 136.459 49.4705 136.363 49.4401 136.273C49.4097 136.184 49.3533 136.105 49.278 136.048C48.9198 135.698 48.6123 135.3 48.3645 134.865C48.1437 134.526 47.9835 134.151 47.8912 133.757C47.7004 132.972 47.5894 132.17 47.5599 131.362L47.4841 130.889C48.5444 125.64 51.5973 110.233 56.004 100.393L57.8121 104.113L58.5978 106.868L53.7794 118.762L74.3312 118.493L71.2641 106.688L74.9891 94.3813C79.0171 94.4713 89.3593 94.6227 91.0822 93.8417C93.2501 92.8951 104.463 78.7332 104.463 78.7332C105.194 78.1652 105.894 77.5585 106.56 76.9156C106.56 76.9156 107.242 76.3429 106.83 75.9169Z" fill="#FFBE9D"/>
<path d="M52.8753 109.973C53.4717 107.937 56.5341 97.8745 56.5341 97.8745C56.5341 97.8745 58.0393 106.077 57.6417 107.066C57.276 107.913 56.8439 108.73 56.3495 109.509C52.8753 114.796 53.3297 117.442 53.3297 117.442L74.3217 116.803C74.3691 113.868 72.6319 107.043 72.2722 105.954C71.9125 104.866 73.11 101.301 73.11 101.301C73.11 101.301 75.4766 98.8921 75.3914 97.652C75.3465 96.5381 75.2087 95.4298 74.9797 94.3387L87.7595 94.812L87.3571 86.1502L69.0015 84.3137C68.3625 86.117 62.5832 85.2319 62.5832 85.2319C56.3448 85.4402 55.9567 86.5856 53.3628 88.602C50.769 90.6184 46.4759 107.923 46.4759 107.923L52.8753 109.973Z" fill="#FF725E"/>
<path d="M65.2859 107.923C64.9221 107.988 64.5516 108.007 64.1831 107.98C63.4968 107.98 62.5548 107.933 61.5183 107.829C60.4817 107.724 59.5445 107.578 58.8771 107.445C58.5091 107.398 58.1483 107.306 57.8026 107.171C58.1727 107.171 58.5419 107.206 58.9055 107.275C59.5776 107.36 60.5101 107.478 61.5419 107.582C62.5738 107.687 63.511 107.758 64.1878 107.805C64.5568 107.81 64.9245 107.849 65.2859 107.923Z" fill="#263238"/>
<path d="M66.7249 106.139C66.3609 106.317 65.9761 106.449 65.5794 106.532C63.691 107.028 61.7427 107.259 59.7906 107.218C59.3867 107.231 58.9827 107.193 58.5884 107.104C58.987 107.054 59.3889 107.033 59.7906 107.043C60.5337 107.019 61.5561 106.967 62.6827 106.835C63.8092 106.702 64.8126 106.513 65.5226 106.361C65.917 106.256 66.3189 106.182 66.7249 106.139Z" fill="#263238"/>
<path d="M73.7869 98.1774C73.7773 98.5383 73.7281 98.897 73.6402 99.2471C73.5171 99.9051 73.3278 100.804 73.0864 101.789C72.845 102.773 72.613 103.682 72.4048 104.298C72.321 104.65 72.1972 104.991 72.0356 105.315C72.062 104.955 72.1286 104.6 72.2344 104.255C72.4142 103.517 72.6178 102.665 72.845 101.732C73.0722 100.8 73.2899 99.9477 73.4698 99.2093C73.5338 98.8539 73.6403 98.5074 73.7869 98.1774Z" fill="#263238"/>
<path d="M53.0978 108.766C52.0028 108.597 50.9221 108.345 49.865 108.013C48.7848 107.761 47.7248 107.428 46.6937 107.019C47.7882 107.191 48.8686 107.443 49.9265 107.772C51.0069 108.023 52.067 108.356 53.0978 108.766Z" fill="#263238"/>
<path d="M75.2069 94.2346C75.0283 94.2653 74.8458 94.2653 74.6673 94.2346C74.1729 94.1839 73.6874 94.0677 73.2236 93.8891C72.4493 93.5981 71.7444 93.1484 71.1543 92.5688C70.5641 91.9892 70.1017 91.2926 69.7967 90.5237C69.4597 89.6779 69.3158 88.7674 69.3755 87.8589C69.3966 87.1095 69.6207 86.3799 70.0239 85.7479C70.3075 85.3221 70.7312 85.009 71.2214 84.8627C71.3524 84.8266 71.4879 84.8091 71.6238 84.8107C71.7184 84.8107 71.7658 84.8107 71.7658 84.8107C71.7658 84.8107 71.567 84.8107 71.2498 84.9385C70.8001 85.1046 70.4186 85.4161 70.1659 85.8236C69.5222 86.8365 69.3423 88.6872 70.0287 90.4149C70.3481 91.2294 70.8482 91.9609 71.4912 92.5543C72.0182 93.0398 72.6251 93.4305 73.2851 93.7092C73.9046 93.954 74.549 94.1302 75.2069 94.2346Z" fill="#263238"/>
<path d="M86.2401 94.6417C86.1217 93.1902 86.0838 91.7333 86.1265 90.2776C86.0894 88.8231 86.1337 87.3678 86.259 85.9183C86.3775 87.3682 86.4155 88.8235 86.3726 90.2776C86.4124 91.7336 86.3682 93.1907 86.2401 94.6417Z" fill="#263238"/>
<path d="M68.8785 84.8438C68.9305 83.7883 69.0394 82.5955 69.0394 82.5955C69.0394 82.5955 71.6522 82.3068 71.8084 79.6088C71.9646 76.9108 71.8084 70.6866 71.8084 70.6866L67.0751 68.2632L61.8212 72.3953L62.6306 85.8851L67.449 86.1928C67.8173 86.203 68.1747 86.0667 68.4426 85.8138C68.7106 85.5609 68.8673 85.2121 68.8785 84.8438Z" fill="#FFBE9D"/>
<path d="M69.3471 77.4741C69.3471 77.4741 69.3471 77.5262 69.3045 77.5877C69.2693 77.6323 69.2237 77.6677 69.1718 77.6908C69.1198 77.7139 69.063 77.724 69.0063 77.7202C68.7034 77.7202 68.4099 77.37 68.3058 76.9629C68.2563 76.7656 68.2563 76.5591 68.3058 76.3618C68.3155 76.2757 68.3465 76.1933 68.3961 76.1222C68.4457 76.0511 68.5123 75.9936 68.5898 75.9547C68.6534 75.9284 68.7249 75.9284 68.7886 75.9547C68.8358 75.9782 68.874 76.0164 68.8974 76.0636C68.9306 76.144 68.8974 76.1961 68.8974 76.1914C68.8974 76.1867 68.8974 76.1441 68.8501 76.0967C68.8253 76.0628 68.789 76.0392 68.7479 76.0305C68.7069 76.0218 68.664 76.0285 68.6276 76.0494C68.5696 76.0845 68.5213 76.1337 68.4874 76.1925C68.4535 76.2512 68.4349 76.3176 68.4336 76.3854C68.3937 76.5615 68.3937 76.7442 68.4336 76.9203C68.5282 77.2895 68.7838 77.5877 69.011 77.6161C69.0555 77.6221 69.1007 77.6189 69.1438 77.6067C69.187 77.5945 69.2272 77.5735 69.2619 77.5451C69.3187 77.5072 69.3376 77.4694 69.3471 77.4741Z" fill="#EB996E"/>
<path d="M73.4319 69.2287C73.0674 67.9886 71.7468 67.3733 70.5446 67.0325C68.7128 66.5119 66.7343 66.2847 64.9451 66.9426C63.156 67.6005 61.0071 68.7554 61.0071 70.7292C59.9516 70.644 59.3457 71.567 58.9292 72.7124C58.6629 73.4103 58.5033 74.1443 58.4558 74.8897C58.3233 77.4741 57.5991 81.043 55.9235 82.9363C54.9769 83.9918 53.6658 84.7207 53.1262 86.0366C52.6529 87.1773 52.899 88.531 52.4588 89.6859C52.0659 90.7036 51.1997 91.4278 50.5655 92.3129C49.9193 93.317 49.539 94.4689 49.4604 95.6604C49.3817 96.8518 49.6073 98.0437 50.1158 99.1241C50.628 100.177 51.3492 101.114 52.2354 101.879C53.1216 102.644 54.1542 103.22 55.2703 103.573C57.4813 104.246 59.839 104.269 62.0626 103.64C63.7314 103.241 65.2882 102.469 66.616 101.382C67.9746 100.272 68.9077 98.7272 69.2572 97.0083C69.5932 95.0771 69.0536 93.1128 68.6513 91.1911C67.3922 85.1183 67.752 84.8012 69.3423 79.1639C69.3802 79.0645 69.3991 78.9603 69.4275 78.8609C69.4559 78.7615 69.4701 78.7142 69.4891 78.6385C69.5343 78.4156 69.558 78.189 69.5601 77.9616C69.3278 78.048 69.0757 78.0663 68.8333 78.0143C68.591 77.9623 68.3686 77.8422 68.1922 77.6682C68.0153 77.4826 67.8921 77.2526 67.8354 77.0026C67.7787 76.7526 67.7908 76.4919 67.8703 76.2482C67.982 75.9817 68.1484 75.7415 68.3588 75.5434C68.5691 75.3453 68.8187 75.1935 69.0915 75.098C69.6169 74.8803 70.1801 74.7667 70.6961 74.5253C71.7894 74.0046 72.5468 72.9254 73.0627 71.7942C73.4869 71.0101 73.6178 70.1006 73.4319 69.2287Z" fill="#263238"/>
<path d="M69.5364 77.6019C69.6364 77.7497 69.719 77.9085 69.7825 78.0752C69.9245 78.3734 70.1139 78.7947 70.3221 79.2822L70.36 79.3721H70.2606L69.7873 79.4147C69.4607 79.4147 69.1861 79.4763 68.8643 79.4715C68.8363 79.4652 68.8103 79.452 68.7888 79.4329C68.7673 79.4139 68.7509 79.3897 68.7412 79.3627C68.7271 79.3196 68.7271 79.2732 68.7412 79.2301C68.7522 79.1663 68.7664 79.1031 68.7838 79.0408L68.869 78.7048C68.9118 78.4806 68.9785 78.2616 69.0678 78.0516C69.059 78.2801 69.0257 78.507 68.9684 78.7284L68.9022 79.0645C68.8785 79.1781 68.8359 79.3532 68.9022 79.339C69.1388 79.339 69.4749 79.2869 69.7873 79.268L70.2606 79.2254L70.1991 79.3295C69.9955 78.8562 69.8251 78.4113 69.7257 78.1036C69.6385 77.9465 69.5748 77.7775 69.5364 77.6019Z" fill="#FF725E"/>
<path d="M53.3297 117.442L74.3217 116.803L83.4569 152.463L81.7766 193.368H70.6771L72.0356 153.334L63.918 128.508L65.1676 194.954L53.9498 195.119L52.7712 132.664C52.7191 130.927 52.1511 127.012 52.3641 125.29L53.3297 117.442Z" fill="#263238"/>
<path d="M66.7106 129.015C66.367 129.036 66.0221 129.016 65.6835 128.953C65.0493 128.877 64.1831 128.745 63.2317 128.556C62.2803 128.366 61.4283 128.148 60.813 127.973C60.4841 127.901 60.1659 127.786 59.8663 127.633C59.8663 127.562 61.4094 127.931 63.3027 128.314C65.196 128.698 66.7201 128.944 66.7106 129.015Z" fill="#455A64"/>
<path d="M81.663 191.125C81.663 191.191 79.1497 191.248 76.0494 191.248C72.9491 191.248 70.431 191.191 70.431 191.125C70.431 191.058 72.9444 191.001 76.0494 191.001C79.1544 191.001 81.663 191.054 81.663 191.125Z" fill="#455A64"/>
<path d="M65.0682 193.226C65.0682 193.297 62.6258 193.349 59.6155 193.349C56.6051 193.349 54.1675 193.297 54.1675 193.226C54.1675 193.155 56.6099 193.103 59.6155 193.103C62.6211 193.103 65.0682 193.16 65.0682 193.226Z" fill="#455A64"/>
<path d="M63.6198 193.056C63.5536 193.056 63.2601 178.539 62.9619 160.633C62.6637 142.727 62.4886 128.201 62.5501 128.201C62.6116 128.201 62.9146 142.713 63.208 160.628C63.5015 178.544 63.6908 193.056 63.6198 193.056Z" fill="#455A64"/>
<path d="M80.1721 191.125C80.1669 191.06 80.1669 190.995 80.1721 190.93V190.363C80.1721 189.851 80.2099 189.118 80.2383 188.185C80.3046 186.292 80.3993 183.542 80.5176 180.172C80.7732 173.394 81.1329 164.05 81.5258 153.736C81.5258 153.637 81.5258 153.542 81.5258 153.457V153.49C79.0408 143.55 76.7925 134.529 75.1595 128.002L73.2662 120.282C73.0485 119.378 72.8828 118.672 72.7645 118.18C72.7077 117.948 72.6698 117.768 72.6367 117.631C72.6183 117.57 72.6072 117.506 72.6036 117.442C72.6282 117.501 72.6472 117.563 72.6604 117.626C72.6982 117.759 72.7456 117.939 72.8118 118.166C72.9396 118.639 73.1242 119.359 73.3609 120.258C73.8342 122.085 74.5016 124.717 75.3347 127.959C76.9818 134.482 79.2538 143.479 81.7719 153.434V153.467C81.7719 153.552 81.7719 153.651 81.7719 153.746C81.3506 164.06 80.9673 173.398 80.688 180.177C80.5413 183.551 80.4182 186.282 80.333 188.185C80.2857 189.132 80.2478 189.851 80.2241 190.363C80.2241 190.604 80.1957 190.793 80.191 190.93C80.1917 190.996 80.1854 191.061 80.1721 191.125Z" fill="#455A64"/>
<path d="M76.5511 152.624C75.7538 152.886 74.9325 153.069 74.0993 153.168C73.0769 153.344 72.206 153.467 71.8131 153.486V153.391C71.9409 153.429 72.0072 153.453 72.0072 153.471C72.0072 153.49 71.9267 153.471 71.7942 153.471H71.5102L71.7942 153.386C72.1634 153.277 73.0343 153.097 74.0567 152.913C74.8766 152.735 75.7122 152.638 76.5511 152.624Z" fill="#455A64"/>
<path d="M76.3571 153.983C75.6188 154.016 74.8789 153.983 74.1466 153.883C73.4073 153.868 72.6707 153.787 71.9456 153.642C73.4249 153.521 74.9139 153.636 76.3571 153.983Z" fill="#455A64"/>
<path opacity="0.2" d="M53.2398 118.194C53.4884 118.514 53.8015 118.777 54.1588 118.967C54.516 119.157 54.9093 119.269 55.3129 119.297C56.1584 119.397 57.0136 119.381 57.8547 119.25C63.2743 118.649 69.0157 118.095 74.3217 116.803C67.4538 117.186 60.1977 117.058 53.3297 117.442L53.2587 118.029" fill="black"/>
<g opacity="0.2">
<path d="M60.316 127.874L64.1878 142.897L63.918 128.508L60.316 127.874Z" fill="black"/>
</g>
</svg>
